<svg width="19" height="19" viewBox="0 0 19 19" fill="none" xmlns="http://www.w3.org/2000/svg">
<path fill-rule="evenodd" clip-rule="evenodd" d="M9.5 0.5C14.4706 0.5 18.5 4.52943 18.5 9.5C18.5 14.4706 14.4706 18.5 9.5 18.5C4.52943 18.5 0.5 14.4706 0.5 9.5C0.5 4.52943 4.52943 0.5 9.5 0.5ZM14.784 13.6638C14.9126 13.5345 14.9848 13.3596 14.9848 13.1772C14.9848 12.9949 14.9126 12.82 14.784 12.6907L13.0223 10.9294C12.893 10.8007 12.718 10.7285 12.5355 10.7285C12.3531 10.7285 12.1781 10.8007 12.0488 10.9294L11.5701 11.4083C11.4111 11.5686 11.2046 11.6733 10.9813 11.7067C10.7581 11.7402 10.5299 11.7006 10.331 11.5939C9.08517 10.934 8.06624 9.91524 7.40623 8.6695C7.2995 8.4705 7.25988 8.24236 7.29326 8.01902C7.32664 7.79568 7.43125 7.58909 7.59151 7.43L8.07114 6.95117C8.19974 6.82186 8.27193 6.6469 8.27193 6.46452C8.27193 6.28215 8.19974 6.10719 8.07114 5.97787L6.30943 4.21672C6.18011 4.08804 6.0051 4.0158 5.82267 4.0158C5.64024 4.0158 5.46523 4.08804 5.33592 4.21672C5.26311 4.28932 5.171 4.37703 5.07249 4.46984C4.82615 4.70268 4.51882 4.99248 4.39457 5.17466C3.74021 6.13228 4.05402 7.41344 4.431 8.3197C4.92898 9.5142 5.84677 10.8158 7.01625 11.9845C8.18466 13.153 9.48583 14.0709 10.681 14.5689C11.5871 14.9464 12.8677 15.2594 13.8253 14.6052C14.0074 14.4808 14.2976 14.1742 14.53 13.9276C14.6232 13.8292 14.711 13.7363 14.784 13.6638Z" fill="white"/>
</svg>
