<svg width="128" height="67" viewBox="0 0 128 67" fill="none" xmlns="http://www.w3.org/2000/svg">
<path d="M0.300783 51.1168H2.48361L4.61486 61.4637H4.64924L6.67737 51.1168H10.1063L12.2547 61.4637H12.2891L14.3001 51.1168H16.3884L13.7844 63.3801H10.5618L8.38754 52.8527H8.36176L6.32503 63.3801H3.06798L0.300783 51.1168ZM18.2532 51.1168H20.3157V56.1957H25.5751V51.1168H27.6376V63.3801H25.5751V58.1207H20.3157V63.3801H18.2532V51.1168ZM30.7658 51.1168H32.8283V63.3801H30.7658V51.1168ZM35.1658 62.0395L41.5596 53.0504V53.0332H35.5181V51.1168H44.6018V52.4832L38.2252 61.4465V61.4637H44.6705V63.3801H35.1658V62.0395ZM46.3893 61.5496C46.6815 61.5898 46.9966 61.6241 47.3346 61.6528C47.6268 61.6814 47.9591 61.7043 48.3315 61.7215C48.7096 61.7387 49.1078 61.7473 49.526 61.7473C50.0817 61.7473 50.5229 61.7129 50.8495 61.6442C51.176 61.5697 51.4252 61.4637 51.5971 61.3262C51.769 61.183 51.8778 61.0082 51.9237 60.802C51.9752 60.5957 52.001 60.358 52.001 60.0887C52.001 59.8767 51.9896 59.6848 51.9666 59.5129C51.9495 59.3353 51.9036 59.1778 51.8291 59.0403C51.7547 58.9028 51.6487 58.7853 51.5112 58.6879C51.3737 58.5848 51.1846 58.5017 50.944 58.4387L48.4432 57.7856C48.0479 57.6824 47.7127 57.5449 47.4377 57.3731C47.1627 57.1955 46.9393 56.972 46.7674 56.7028C46.6013 56.4335 46.4781 56.1098 46.3979 55.7317C46.3234 55.3478 46.2862 54.8981 46.2862 54.3824C46.2862 53.7751 46.3778 53.2509 46.5612 52.8098C46.7445 52.3629 47.0023 51.9962 47.3346 51.7098C47.6726 51.4233 48.0794 51.2113 48.5549 51.0738C49.0304 50.9363 49.5604 50.8676 50.1448 50.8676C50.6317 50.8676 51.0758 50.8962 51.4768 50.9535C51.8836 51.0051 52.2331 51.0624 52.5252 51.1254C52.869 51.1999 53.1812 51.2829 53.462 51.3746V52.9645C53.2042 52.9301 52.932 52.8986 52.6456 52.8699C52.3992 52.8413 52.1213 52.8184 51.812 52.8012C51.5083 52.7783 51.1932 52.7668 50.8666 52.7668C50.3567 52.7668 49.9385 52.784 49.6119 52.8184C49.2854 52.8527 49.0276 52.9243 48.8385 53.0332C48.6494 53.1421 48.5177 53.2967 48.4432 53.4973C48.3687 53.6978 48.3315 53.9642 48.3315 54.2965C48.3315 54.4798 48.3401 54.6431 48.3573 54.7863C48.3802 54.9296 48.426 55.0556 48.4948 55.1645C48.5692 55.2733 48.6724 55.3679 48.8041 55.4481C48.9416 55.5283 49.125 55.6027 49.3541 55.6715L51.683 56.3418C51.981 56.4278 52.2445 56.5194 52.4737 56.6168C52.7086 56.7085 52.912 56.8202 53.0838 56.952C53.2557 57.078 53.4018 57.227 53.5221 57.3988C53.6482 57.5707 53.7484 57.777 53.8229 58.0176C53.8974 58.2525 53.9518 58.5304 53.9862 58.8512C54.0206 59.172 54.0377 59.5416 54.0377 59.9598C54.0377 60.6129 53.9805 61.1744 53.8659 61.6442C53.757 62.1082 53.5479 62.4892 53.2385 62.7872C52.9291 63.0793 52.5023 63.2942 51.9581 63.4317C51.4195 63.5749 50.7205 63.6465 49.8612 63.6465C49.1966 63.6465 48.6437 63.615 48.2026 63.552C47.7671 63.4947 47.4119 63.4288 47.1369 63.3543C46.8218 63.2684 46.5726 63.171 46.3893 63.0622V61.5496ZM56.4612 51.1168H63.8347V53.0332H58.5237V56.2559H62.9753V58.1379H58.5237V61.4637H63.9808V63.3801H56.4612V51.1168ZM66.3441 51.1168H73.7175V53.0332H68.4066V56.2559H72.8581V58.1379H68.4066V61.4637H73.8636V63.3801H66.3441V51.1168ZM76.2269 51.1168H80.6269C81.0795 51.1168 81.5121 51.1483 81.9246 51.2113C82.3428 51.2743 82.7295 51.3861 83.0848 51.5465C83.44 51.7069 83.7637 51.9303 84.0559 52.2168C84.348 52.5033 84.5973 52.8699 84.8035 53.3168C85.0098 53.7637 85.1673 54.3022 85.2762 54.9324C85.3908 55.5626 85.448 56.3017 85.448 57.1496C85.448 58.0262 85.3965 58.791 85.2934 59.4442C85.1902 60.0916 85.0413 60.6473 84.8465 61.1114C84.6517 61.5697 84.4139 61.9478 84.1332 62.2457C83.8525 62.5379 83.5316 62.77 83.1707 62.9418C82.8155 63.108 82.423 63.2226 81.9933 63.2856C81.5694 63.3486 81.1139 63.3801 80.6269 63.3801H76.2269V51.1168ZM80.0683 61.4637C80.3605 61.4637 80.6441 61.458 80.9191 61.4465C81.1941 61.4293 81.4491 61.3778 81.684 61.2918C81.9246 61.2059 82.1423 61.077 82.3371 60.9051C82.5376 60.7275 82.7066 60.4783 82.8441 60.1575C82.9874 59.8366 83.0962 59.4327 83.1707 58.9457C83.2509 58.453 83.291 57.8486 83.291 57.1324C83.291 56.4679 83.2538 55.9064 83.1793 55.4481C83.1048 54.984 82.9988 54.6001 82.8613 54.2965C82.7238 53.9928 82.5577 53.7579 82.3629 53.5918C82.1738 53.4199 81.959 53.2939 81.7183 53.2137C81.4777 53.1277 81.217 53.0762 80.9363 53.059C80.6613 53.0418 80.372 53.0332 80.0683 53.0332H78.2894V61.4637H80.0683ZM87.3215 62.1856C87.3215 61.9163 87.3387 61.6986 87.3731 61.5325C87.4132 61.3606 87.4819 61.226 87.5793 61.1286C87.6824 61.0312 87.8171 60.9653 87.9832 60.9309C88.1551 60.8965 88.3699 60.8793 88.6277 60.8793C88.8913 60.8793 89.109 60.8965 89.2809 60.9309C89.4528 60.9653 89.5874 61.0312 89.6848 61.1286C89.7822 61.226 89.8509 61.3606 89.891 61.5325C89.9311 61.6986 89.9512 61.9163 89.9512 62.1856C89.9512 62.4491 89.9311 62.6668 89.891 62.8387C89.8509 63.0049 89.7822 63.1395 89.6848 63.2426C89.5874 63.34 89.4528 63.4059 89.2809 63.4403C89.109 63.4804 88.8913 63.5004 88.6277 63.5004C88.3699 63.5004 88.1551 63.4804 87.9832 63.4403C87.8171 63.4059 87.6824 63.34 87.5793 63.2426C87.4819 63.1395 87.4132 63.0049 87.3731 62.8387C87.3387 62.6668 87.3215 62.4491 87.3215 62.1856ZM96.6114 63.595C96.2161 63.595 95.8207 63.5577 95.4254 63.4833C95.0358 63.4088 94.6635 63.2799 94.3082 63.0965C93.9588 62.9132 93.6322 62.6668 93.3285 62.3575C93.0249 62.0424 92.7614 61.647 92.5379 61.1715C92.3145 60.6903 92.1397 60.1202 92.0137 59.4614C91.8877 58.8025 91.8246 58.0319 91.8246 57.1496C91.8246 56.3017 91.8963 55.5598 92.0395 54.9238C92.1827 54.2822 92.3746 53.7293 92.6153 53.2652C92.8559 52.8012 93.1366 52.4202 93.4575 52.1223C93.7783 51.8186 94.1163 51.578 94.4715 51.4004C94.8267 51.2228 95.1877 51.0996 95.5543 51.0309C95.921 50.9564 96.2734 50.9191 96.6114 50.9191C97.1843 50.9191 97.6827 50.9478 98.1067 51.0051C98.5307 51.0624 98.8859 51.1254 99.1723 51.1941C99.5046 51.2743 99.7882 51.366 100.023 51.4691V52.9473C99.7882 52.9301 99.5361 52.9129 99.2669 52.8957C99.0377 52.8842 98.7741 52.8728 98.4762 52.8613C98.184 52.8441 97.8775 52.8355 97.5567 52.8355C97.2645 52.8355 96.9723 52.847 96.6801 52.8699C96.3937 52.8928 96.1158 52.953 95.8465 53.0504C95.583 53.1421 95.3366 53.2796 95.1075 53.4629C94.8783 53.6462 94.6778 53.8983 94.5059 54.2191C94.3398 54.5343 94.208 54.9296 94.1106 55.4051C94.0189 55.8806 93.9731 56.4564 93.9731 57.1324C93.9731 57.8429 94.0218 58.4502 94.1192 58.9543C94.2166 59.4585 94.3512 59.8796 94.5231 60.2176C94.695 60.5556 94.8955 60.822 95.1247 61.0168C95.3538 61.2116 95.603 61.3606 95.8723 61.4637C96.1416 61.5611 96.4223 61.6241 96.7145 61.6528C97.0067 61.6757 97.2989 61.6872 97.5911 61.6872C97.9692 61.6872 98.3129 61.6814 98.6223 61.67C98.9317 61.6585 99.1952 61.647 99.413 61.6356C99.6708 61.6184 99.9028 61.6012 100.109 61.584V63.0622C99.857 63.1653 99.559 63.2541 99.2153 63.3286C98.9174 63.3973 98.5507 63.4575 98.1153 63.509C97.6856 63.5663 97.1843 63.595 96.6114 63.595ZM107.01 63.6465C106.483 63.6465 105.993 63.6093 105.54 63.5348C105.088 63.4603 104.675 63.3314 104.303 63.1481C103.93 62.959 103.598 62.7098 103.306 62.4004C103.019 62.0911 102.776 61.7015 102.575 61.2317C102.375 60.7562 102.223 60.1947 102.12 59.5473C102.017 58.8999 101.965 58.1465 101.965 57.2871C101.965 55.9981 102.08 54.9382 102.309 54.1074C102.538 53.2767 102.871 52.6236 103.306 52.148C103.741 51.6668 104.271 51.3345 104.896 51.1512C105.52 50.9621 106.225 50.8676 107.01 50.8676C107.531 50.8676 108.018 50.9077 108.471 50.9879C108.923 51.0681 109.336 51.2027 109.708 51.3918C110.081 51.5809 110.41 51.8358 110.697 52.1566C110.983 52.4717 111.224 52.8671 111.418 53.3426C111.619 53.8181 111.771 54.3824 111.874 55.0356C111.977 55.683 112.029 56.4335 112.029 57.2871C112.029 58.1408 111.977 58.8913 111.874 59.5387C111.771 60.1861 111.619 60.7476 111.418 61.2231C111.224 61.6929 110.983 62.0853 110.697 62.4004C110.41 62.7098 110.081 62.9562 109.708 63.1395C109.336 63.3228 108.923 63.4517 108.471 63.5262C108.018 63.6064 107.531 63.6465 107.01 63.6465ZM107.01 61.7473C107.571 61.7473 108.035 61.6814 108.402 61.5496C108.774 61.4179 109.07 61.1858 109.287 60.8536C109.505 60.5155 109.657 60.0601 109.743 59.4871C109.834 58.9085 109.88 58.1752 109.88 57.2871C109.88 56.3934 109.834 55.6572 109.743 55.0785C109.657 54.4999 109.505 54.0415 109.287 53.7035C109.07 53.3598 108.774 53.122 108.402 52.9902C108.035 52.8527 107.571 52.784 107.01 52.784C106.448 52.784 105.981 52.8527 105.609 52.9902C105.237 53.122 104.942 53.3598 104.724 53.7035C104.506 54.0415 104.352 54.4999 104.26 55.0785C104.174 55.6572 104.131 56.3934 104.131 57.2871C104.131 58.1752 104.174 58.9085 104.26 59.4871C104.352 60.0601 104.506 60.5155 104.724 60.8536C104.942 61.1858 105.237 61.4179 105.609 61.5496C105.981 61.6814 106.448 61.7473 107.01 61.7473ZM114.59 51.1168H118.165L120.433 58.5074H120.502L122.848 51.1168H126.363V63.3801H124.309V53.0332H124.258L124.026 53.8066C123.963 54.0244 123.894 54.2535 123.819 54.4941C123.745 54.729 123.679 54.9324 123.622 55.1043L122.04 60.0543H118.955L117.34 55.0699C117.282 54.8981 117.216 54.6975 117.142 54.4684C117.067 54.2335 116.999 54.01 116.936 53.7981C116.861 53.5517 116.784 53.2967 116.704 53.0332H116.652V63.3801H114.59V51.1168Z" fill="#454343"/>
<path d="M40.4421 42.4139C39.6318 43.7756 37.6513 43.7495 36.8772 42.367L21.0839 14.1605C20.3098 12.778 21.3226 11.0758 22.907 11.0967L55.2311 11.5225C56.8155 11.5434 57.7832 13.2716 56.9729 14.6333L40.4421 42.4139Z" fill="#0047AB"/>
<path d="M59.4047 42.4139C58.5945 43.7756 56.6139 43.7495 55.8398 42.367L40.0465 14.1605C39.2724 12.778 40.2853 11.0758 41.8697 11.0967L74.1938 11.5225C75.7782 11.5434 76.7458 13.2716 75.9356 14.6333L59.4047 42.4139Z" fill="#0076FF"/>
<path d="M81.7651 14.4234C80.9548 13.0617 78.9743 13.0878 78.2002 14.4703L62.4384 42.6205C61.6643 44.003 62.6771 45.7052 64.2616 45.6843L96.5212 45.2593C98.1056 45.2385 99.0732 43.5102 98.263 42.1485L81.7651 14.4234Z" fill="#062B65"/>
<path d="M77.9412 31.1381L86.3764 28.2071C86.7764 28.0681 86.8467 27.5324 86.496 27.2949L82.2376 24.4113C82.0976 24.3166 81.9201 24.2966 81.7626 24.3578L73.6467 27.514C73.2597 27.6645 73.2011 28.1879 73.5453 28.4202L77.4844 31.0786C77.6188 31.1693 77.7881 31.1913 77.9412 31.1381Z" fill="#CDCDCD"/>
<path d="M71.7617 41.9011L88.6114 41.1951C88.9345 41.1816 89.1652 40.8769 89.0905 40.5622L88.3951 37.629C88.3382 37.3891 88.1191 37.2232 87.8728 37.2335L71.0232 37.9395C70.7001 37.9531 70.4694 38.2578 70.544 38.5724L71.2395 41.5057C71.2964 41.7456 71.5154 41.9114 71.7617 41.9011Z" fill="#CDCDCD"/>
<path d="M73.0446 34.3214L88.5195 40.8499C88.8587 40.993 89.2341 40.7439 89.2341 40.3758L89.2341 35.1748C89.2341 34.9679 89.1102 34.7811 88.9196 34.7007L73.4447 28.1722C73.1054 28.0291 72.73 28.2782 72.73 28.6463L72.73 33.8473C72.73 34.0542 72.854 34.241 73.0446 34.3214Z" fill="white"/>
</svg>
