<svg width="130" height="41" viewBox="0 0 130 41" fill="none" xmlns="http://www.w3.org/2000/svg">
<rect y="0.5" width="130" height="40" rx="20" fill="#29A71A"/>
<g clip-path="url(#clip0_1728_441)">
<path d="M24.5 32.5C31.1274 32.5 36.5 27.1274 36.5 20.5C36.5 13.8726 31.1274 8.5 24.5 8.5C17.8726 8.5 12.5 13.8726 12.5 20.5C12.5 27.1274 17.8726 32.5 24.5 32.5Z" fill="#29A71A"/>
<path d="M29.7908 15.2091C28.5423 13.9482 26.8843 13.1749 25.1158 13.0287C23.3474 12.8826 21.5849 13.3731 20.1464 14.412C18.7078 15.4509 17.6878 16.9696 17.2704 18.6943C16.8529 20.419 17.0656 22.2361 17.8699 23.8178L17.0803 27.651C17.0721 27.6891 17.0719 27.7285 17.0797 27.7668C17.0874 27.805 17.103 27.8413 17.1253 27.8732C17.1581 27.9217 17.2049 27.9591 17.2595 27.9803C17.3141 28.0015 17.3739 28.0055 17.4308 27.9919L21.1876 27.1014C22.7649 27.8854 24.5691 28.0843 26.2793 27.6629C27.9895 27.2414 29.4947 26.2269 30.5271 24.7998C31.5595 23.3727 32.0521 21.6257 31.9173 19.8695C31.7824 18.1133 31.0289 16.4619 29.7908 15.2091ZM28.6194 24.5582C27.7556 25.4196 26.6432 25.9883 25.4391 26.184C24.235 26.3797 22.9998 26.1926 21.9076 25.6491L21.384 25.39L19.0808 25.9355L19.0876 25.9069L19.5649 23.5887L19.3085 23.0828C18.7505 21.9868 18.5536 20.7423 18.7461 19.5276C18.9387 18.3128 19.5107 17.1902 20.3803 16.3205C21.473 15.2282 22.9548 14.6145 24.4999 14.6145C26.0449 14.6145 27.5267 15.2282 28.6194 16.3205C28.6287 16.3312 28.6388 16.3412 28.6494 16.3505C29.7286 17.4457 30.331 18.923 30.3254 20.4605C30.3198 21.998 29.7066 23.471 28.6194 24.5582Z" fill="white"/>
<path d="M28.4149 22.8577C28.1326 23.3023 27.6867 23.8463 27.1263 23.9813C26.1445 24.2186 24.6376 23.9895 22.7626 22.2413L22.7395 22.2209C21.0908 20.6923 20.6626 19.42 20.7663 18.4109C20.8235 17.8382 21.3008 17.32 21.7031 16.9818C21.7667 16.9275 21.8421 16.8889 21.9233 16.8689C22.0045 16.849 22.0893 16.8484 22.1708 16.8671C22.2523 16.8858 22.3282 16.9232 22.3927 16.9766C22.4571 17.0299 22.5081 17.0975 22.5417 17.1741L23.1485 18.5377C23.188 18.6261 23.2026 18.7236 23.1908 18.8197C23.179 18.9158 23.1413 19.0069 23.0817 19.0832L22.7749 19.4813C22.7091 19.5636 22.6693 19.6636 22.6608 19.7686C22.6523 19.8736 22.6754 19.9787 22.7272 20.0704C22.899 20.3718 23.3108 20.815 23.7676 21.2254C24.2804 21.6891 24.849 22.1132 25.209 22.2577C25.3053 22.2971 25.4112 22.3067 25.5131 22.2853C25.6149 22.2639 25.708 22.2125 25.7804 22.1377L26.1363 21.7791C26.2049 21.7113 26.2904 21.6631 26.3838 21.6391C26.4772 21.6151 26.5753 21.6164 26.6681 21.6427L28.1095 22.0518C28.189 22.0762 28.2618 22.1184 28.3225 22.1753C28.3832 22.2322 28.4301 22.3022 28.4595 22.3799C28.489 22.4577 28.5003 22.5412 28.4926 22.624C28.4848 22.7068 28.4583 22.7867 28.4149 22.8577Z" fill="white"/>
</g>
<path d="M39.8821 25.5L36.9281 15.42H38.9301L40.8201 22.35L42.7101 15.434L44.7121 15.42L46.6021 22.35L48.4921 15.42H50.4941L47.5401 25.5H45.6641L43.7111 18.696L41.7581 25.5H39.8821ZM56.7697 25.5V21.93C56.7697 21.7573 56.7604 21.538 56.7417 21.272C56.723 21.0013 56.6647 20.7307 56.5667 20.46C56.4687 20.1893 56.3077 19.963 56.0837 19.781C55.8644 19.599 55.5517 19.508 55.1457 19.508C54.9824 19.508 54.8074 19.5337 54.6207 19.585C54.434 19.6363 54.259 19.7367 54.0957 19.886C53.9324 20.0307 53.797 20.2453 53.6897 20.53C53.587 20.8147 53.5357 21.1927 53.5357 21.664L52.4437 21.146C52.4437 20.5487 52.565 19.9887 52.8077 19.466C53.0504 18.9433 53.4144 18.521 53.8997 18.199C54.3897 17.877 55.0057 17.716 55.7477 17.716C56.3404 17.716 56.8234 17.8163 57.1967 18.017C57.57 18.2177 57.8594 18.472 58.0647 18.78C58.2747 19.088 58.424 19.41 58.5127 19.746C58.6014 20.0773 58.655 20.3807 58.6737 20.656C58.6924 20.9313 58.7017 21.132 58.7017 21.258V25.5H56.7697ZM51.6037 25.5V15.42H53.2977V20.6H53.5357V25.5H51.6037ZM62.6181 25.71C62.0768 25.71 61.6171 25.6073 61.2391 25.402C60.8658 25.192 60.5811 24.9143 60.3851 24.569C60.1938 24.219 60.0981 23.834 60.0981 23.414C60.0981 23.064 60.1518 22.7443 60.2591 22.455C60.3664 22.1657 60.5391 21.9113 60.7771 21.692C61.0198 21.468 61.3441 21.2813 61.7501 21.132C62.0301 21.0293 62.3638 20.9383 62.7511 20.859C63.1384 20.7797 63.5771 20.705 64.0671 20.635C64.5571 20.5603 65.0961 20.4787 65.6841 20.39L64.9981 20.768C64.9981 20.32 64.8908 19.991 64.6761 19.781C64.4614 19.571 64.1021 19.466 63.5981 19.466C63.3181 19.466 63.0264 19.5337 62.7231 19.669C62.4198 19.8043 62.2074 20.0447 62.0861 20.39L60.3641 19.844C60.5554 19.2187 60.9148 18.71 61.4421 18.318C61.9694 17.926 62.6881 17.73 63.5981 17.73C64.2654 17.73 64.8581 17.8327 65.3761 18.038C65.8941 18.2433 66.2861 18.598 66.5521 19.102C66.7014 19.382 66.7901 19.662 66.8181 19.942C66.8461 20.222 66.8601 20.5347 66.8601 20.88V25.5H65.1941V23.946L65.4321 24.268C65.0634 24.7767 64.6644 25.1453 64.2351 25.374C63.8104 25.598 63.2714 25.71 62.6181 25.71ZM63.0241 24.212C63.3741 24.212 63.6681 24.1513 63.9061 24.03C64.1488 23.904 64.3401 23.7617 64.4801 23.603C64.6248 23.4443 64.7228 23.3113 64.7741 23.204C64.8721 22.9987 64.9281 22.7607 64.9421 22.49C64.9608 22.2147 64.9701 21.986 64.9701 21.804L65.5301 21.944C64.9654 22.0373 64.5081 22.1167 64.1581 22.182C63.8081 22.2427 63.5258 22.2987 63.3111 22.35C63.0964 22.4013 62.9074 22.4573 62.7441 22.518C62.5574 22.5927 62.4058 22.6743 62.2891 22.763C62.1771 22.847 62.0931 22.9403 62.0371 23.043C61.9858 23.1457 61.9601 23.26 61.9601 23.386C61.9601 23.5587 62.0021 23.708 62.0861 23.834C62.1748 23.9553 62.2984 24.0487 62.4571 24.114C62.6158 24.1793 62.8048 24.212 63.0241 24.212ZM73.2162 25.5C72.6935 25.598 72.1802 25.64 71.6762 25.626C71.1769 25.6167 70.7289 25.5303 70.3322 25.367C69.9402 25.199 69.6415 24.9307 69.4362 24.562C69.2495 24.2167 69.1515 23.8667 69.1422 23.512C69.1329 23.1527 69.1282 22.7467 69.1282 22.294V15.84H71.0322V22.182C71.0322 22.476 71.0345 22.742 71.0392 22.98C71.0485 23.2133 71.0975 23.4 71.1862 23.54C71.3542 23.806 71.6225 23.9507 71.9912 23.974C72.3599 23.9973 72.7682 23.9787 73.2162 23.918V25.5ZM67.8402 19.41V17.94H73.2162V19.41H67.8402ZM77.8549 25.71C76.9029 25.71 76.1329 25.4953 75.5449 25.066C74.9616 24.632 74.6069 24.0207 74.4809 23.232L76.4269 22.938C76.5062 23.2927 76.6812 23.5703 76.9519 23.771C77.2272 23.9717 77.5749 24.072 77.9949 24.072C78.3402 24.072 78.6062 24.0067 78.7929 23.876C78.9796 23.7407 79.0729 23.554 79.0729 23.316C79.0729 23.1667 79.0356 23.0477 78.9609 22.959C78.8862 22.8657 78.7182 22.7747 78.4569 22.686C78.2002 22.5973 77.7989 22.4807 77.2529 22.336C76.6369 22.1773 76.1446 22 75.7759 21.804C75.4072 21.608 75.1412 21.3747 74.9779 21.104C74.8146 20.8287 74.7329 20.4973 74.7329 20.11C74.7329 19.6247 74.8566 19.2047 75.1039 18.85C75.3512 18.4907 75.6989 18.2153 76.1469 18.024C76.5996 17.828 77.1316 17.73 77.7429 17.73C78.3356 17.73 78.8606 17.821 79.3179 18.003C79.7752 18.185 80.1439 18.444 80.4239 18.78C80.7086 19.116 80.8836 19.5127 80.9489 19.97L79.0029 20.32C78.9702 20.04 78.8489 19.8183 78.6389 19.655C78.4289 19.4917 78.1442 19.396 77.7849 19.368C77.4349 19.3447 77.1526 19.3913 76.9379 19.508C76.7279 19.6247 76.6229 19.7927 76.6229 20.012C76.6229 20.1427 76.6672 20.2523 76.7559 20.341C76.8492 20.4297 77.0382 20.5207 77.3229 20.614C77.6122 20.7073 78.0509 20.8287 78.6389 20.978C79.2129 21.1273 79.6726 21.3023 80.0179 21.503C80.3679 21.699 80.6222 21.937 80.7809 22.217C80.9396 22.4923 81.0189 22.826 81.0189 23.218C81.0189 23.9927 80.7389 24.6017 80.1789 25.045C79.6189 25.4883 78.8442 25.71 77.8549 25.71ZM84.6571 25.71C84.1158 25.71 83.6561 25.6073 83.2781 25.402C82.9048 25.192 82.6201 24.9143 82.4241 24.569C82.2328 24.219 82.1371 23.834 82.1371 23.414C82.1371 23.064 82.1908 22.7443 82.2981 22.455C82.4055 22.1657 82.5781 21.9113 82.8161 21.692C83.0588 21.468 83.3831 21.2813 83.7891 21.132C84.0691 21.0293 84.4028 20.9383 84.7901 20.859C85.1775 20.7797 85.6161 20.705 86.1061 20.635C86.5961 20.5603 87.1351 20.4787 87.7231 20.39L87.0371 20.768C87.0371 20.32 86.9298 19.991 86.7151 19.781C86.5005 19.571 86.1411 19.466 85.6371 19.466C85.3571 19.466 85.0655 19.5337 84.7621 19.669C84.4588 19.8043 84.2465 20.0447 84.1251 20.39L82.4031 19.844C82.5945 19.2187 82.9538 18.71 83.4811 18.318C84.0085 17.926 84.7271 17.73 85.6371 17.73C86.3045 17.73 86.8971 17.8327 87.4151 18.038C87.9331 18.2433 88.3251 18.598 88.5911 19.102C88.7405 19.382 88.8291 19.662 88.8571 19.942C88.8851 20.222 88.8991 20.5347 88.8991 20.88V25.5H87.2331V23.946L87.4711 24.268C87.1025 24.7767 86.7035 25.1453 86.2741 25.374C85.8495 25.598 85.3105 25.71 84.6571 25.71ZM85.0631 24.212C85.4131 24.212 85.7071 24.1513 85.9451 24.03C86.1878 23.904 86.3791 23.7617 86.5191 23.603C86.6638 23.4443 86.7618 23.3113 86.8131 23.204C86.9111 22.9987 86.9671 22.7607 86.9811 22.49C86.9998 22.2147 87.0091 21.986 87.0091 21.804L87.5691 21.944C87.0045 22.0373 86.5471 22.1167 86.1971 22.182C85.8471 22.2427 85.5648 22.2987 85.3501 22.35C85.1355 22.4013 84.9465 22.4573 84.7831 22.518C84.5965 22.5927 84.4448 22.6743 84.3281 22.763C84.2161 22.847 84.1321 22.9403 84.0761 23.043C84.0248 23.1457 83.9991 23.26 83.9991 23.386C83.9991 23.5587 84.0411 23.708 84.1251 23.834C84.2138 23.9553 84.3375 24.0487 84.4961 24.114C84.6548 24.1793 84.8438 24.212 85.0631 24.212ZM94.4293 25.71C93.6779 25.71 93.0503 25.535 92.5463 25.185C92.0423 24.835 91.6619 24.359 91.4053 23.757C91.1533 23.155 91.0273 22.476 91.0273 21.72C91.0273 20.964 91.1533 20.285 91.4053 19.683C91.6573 19.081 92.0283 18.605 92.5183 18.255C93.0083 17.905 93.6126 17.73 94.3313 17.73C95.0546 17.73 95.6846 17.9027 96.2213 18.248C96.7579 18.5933 97.1733 19.067 97.4673 19.669C97.7659 20.2663 97.9153 20.95 97.9153 21.72C97.9153 22.476 97.7683 23.155 97.4743 23.757C97.1849 24.359 96.7789 24.835 96.2563 25.185C95.7336 25.535 95.1246 25.71 94.4293 25.71ZM90.7053 28.86V17.94H92.3853V23.12H92.6233V28.86H90.7053ZM94.1213 24.016C94.5319 24.016 94.8679 23.9133 95.1293 23.708C95.3906 23.5027 95.5843 23.2273 95.7103 22.882C95.8363 22.532 95.8993 22.1447 95.8993 21.72C95.8993 21.3 95.8339 20.9173 95.7033 20.572C95.5726 20.222 95.3696 19.9443 95.0943 19.739C94.8236 19.529 94.4759 19.424 94.0513 19.424C93.6546 19.424 93.3326 19.5197 93.0853 19.711C92.8426 19.9023 92.6653 20.1707 92.5533 20.516C92.4413 20.8613 92.3853 21.2627 92.3853 21.72C92.3853 22.1773 92.4413 22.5787 92.5533 22.924C92.6653 23.2693 92.8473 23.5377 93.0993 23.729C93.3559 23.9203 93.6966 24.016 94.1213 24.016ZM103.166 25.71C102.414 25.71 101.787 25.535 101.283 25.185C100.779 24.835 100.398 24.359 100.142 23.757C99.8896 23.155 99.7636 22.476 99.7636 21.72C99.7636 20.964 99.8896 20.285 100.142 19.683C100.394 19.081 100.765 18.605 101.255 18.255C101.745 17.905 102.349 17.73 103.068 17.73C103.791 17.73 104.421 17.9027 104.958 18.248C105.494 18.5933 105.91 19.067 106.204 19.669C106.502 20.2663 106.652 20.95 106.652 21.72C106.652 22.476 106.505 23.155 106.211 23.757C105.921 24.359 105.515 24.835 104.993 25.185C104.47 25.535 103.861 25.71 103.166 25.71ZM99.4416 28.86V17.94H101.122V23.12H101.36V28.86H99.4416ZM102.858 24.016C103.268 24.016 103.604 23.9133 103.866 23.708C104.127 23.5027 104.321 23.2273 104.447 22.882C104.573 22.532 104.636 22.1447 104.636 21.72C104.636 21.3 104.57 20.9173 104.44 20.572C104.309 20.222 104.106 19.9443 103.831 19.739C103.56 19.529 103.212 19.424 102.788 19.424C102.391 19.424 102.069 19.5197 101.822 19.711C101.579 19.9023 101.402 20.1707 101.29 20.516C101.178 20.8613 101.122 21.2627 101.122 21.72C101.122 22.1773 101.178 22.5787 101.29 22.924C101.402 23.2693 101.584 23.5377 101.836 23.729C102.092 23.9203 102.433 24.016 102.858 24.016Z" fill="white"/>
<defs>
<clipPath id="clip0_1728_441">
<rect width="24" height="24" fill="white" transform="translate(12.5 8.5)"/>
</clipPath>
</defs>
</svg>
