<svg width="100" height="172" viewBox="0 0 100 172" fill="none" xmlns="http://www.w3.org/2000/svg">
<path d="M58.0894 89.8341C59.4486 91.2455 61.3719 92.4813 63.5527 93.3475C65.7156 94.2468 68.1129 94.7827 70.4235 94.9575C70.6962 94.9782 70.9638 94.9721 71.238 94.9858C71.5086 94.9913 71.7761 95.011 72.057 94.9929C72.61 94.9734 73.1615 94.9608 73.7018 94.898C74.7959 94.8122 75.8477 94.6178 76.875 94.3851C78.9147 93.887 80.8349 93.1573 82.5486 92.2217C84.2712 91.2954 85.8275 90.2049 87.2025 88.9951C87.9045 88.3987 88.5344 87.7576 89.1405 87.1005C89.7808 86.4616 90.2986 85.76 90.8705 85.0846C91.9053 83.6849 92.8367 82.2339 93.566 80.7106C94.2694 79.1819 94.8924 77.6215 95.2792 75.9964C95.6756 74.3771 95.9583 72.7301 96.0367 71.0472L96.0773 70.418L96.0807 69.7847C96.078 69.3602 96.0908 68.939 96.0822 68.5169C96.0285 67.6651 96.0067 66.8163 95.8891 65.9583C95.8485 65.6106 95.7974 65.2607 95.7248 64.9099L95.4795 63.8591L95.4824 63.9224C95.1159 61.8506 94.5665 59.7697 93.8357 57.6985C93.0886 55.6274 92.1647 53.5706 91.0839 51.536C88.9334 47.4654 86.0634 43.5082 82.6522 39.7721C80.6685 37.6131 78.4892 35.5307 76.1196 33.5519L72.444 30.63L68.5558 27.8401C63.2427 24.2072 57.4284 20.9404 51.3121 18.0226C39.0632 12.1873 25.7038 7.75046 12.1059 4.23642C11.0485 3.943 9.78739 3.66183 8.50927 3.33284C7.22891 3.01443 5.93302 2.66695 4.76785 2.3692C2.44123 1.75604 0.68608 1.16408 0.837943 0.779606C1.14391 7.00362e-05 6.24578 0.49172 13.8038 2.42385L17.2235 3.31586L20.6291 4.27488L22.3315 4.75621L24.0212 5.27166L27.3999 6.30616C31.8687 7.76262 36.3218 9.26737 40.6529 10.9896C42.8434 11.81 44.9632 12.7333 47.1053 13.6282L47.9093 13.9639L51.8405 15.7529C52.3666 15.9893 52.8919 16.2293 53.3971 16.4872C55.4425 17.5054 57.5184 18.4822 59.4872 19.5801C60.4761 20.1207 61.4977 20.6352 62.4665 21.1937L65.3647 22.8824C70.9798 26.2178 76.1368 29.9466 80.7592 33.9938C85.3251 38.0771 89.1119 42.5302 92.1063 47.1588C95.0903 51.7852 97.2686 56.5989 98.4799 61.4369C99.692 66.2714 99.9133 71.1399 98.9471 75.7908C98.0719 79.9594 96.2336 83.9542 93.2889 87.4497C91.8281 89.1944 90.1607 90.8623 88.1368 92.3147C86.1321 93.7787 83.8139 95.0547 81.1415 96.0015C79.7989 96.4662 78.3761 96.8476 76.8732 97.12C75.3583 97.3713 73.7849 97.5145 72.1587 97.5211C68.8313 97.5039 65.4494 96.7931 62.3993 95.5663C60.8635 94.9654 59.4273 94.2012 58.1176 93.3273C57.4467 92.9017 56.8659 92.4104 56.2724 91.9275L55.4694 91.1496C55.1916 90.8955 54.9926 90.6028 54.7513 90.3306C52.9333 88.1071 52.2795 85.4401 53.2947 83.2069C53.7547 82.1613 54.5282 81.2262 55.5113 80.457C56.4943 79.6877 57.6689 79.0659 58.9409 78.5752C61.4945 77.5996 64.4305 77.1287 67.4814 77.117C70.5308 77.1124 73.7405 77.5841 76.7528 78.6554C77.1266 78.7897 77.5048 78.9286 77.8681 79.0864L78.4172 79.3167L78.9246 79.564C79.5926 79.9004 80.294 80.2071 80.9143 80.5889C81.554 80.9562 82.2003 81.3177 82.782 81.7281L83.6772 82.3264C83.9647 82.5345 84.2344 82.75 84.5159 82.9606C86.7318 84.6637 88.553 86.5635 90.0471 88.5195C91.5456 90.4802 92.7275 92.4994 93.7006 94.5297C94.6684 96.5589 95.4259 98.6063 96.0229 100.642L96.8035 103.686L97.1883 105.209C97.3203 105.716 97.3705 106.224 97.4645 106.73C98.7725 113.734 98.725 120.699 97.4624 127.396C96.1983 134.099 93.7334 140.546 90.2029 146.583C89.9968 146.941 89.7907 147.299 89.5839 147.661C89.3874 148.025 89.1546 148.382 88.9121 148.732C88.4367 149.439 87.9658 150.151 87.506 150.861C86.6459 152.308 85.6268 153.66 84.8397 155.02L84.8857 154.981C83.4965 156.439 82.0551 158.04 80.6776 159.674C80.0186 160.504 79.1835 161.242 78.3944 161.967C77.5906 162.686 76.7533 163.357 75.8647 163.936C74.7449 164.812 73.5559 165.682 72.5208 166.569C72.2226 166.823 71.9378 167.065 71.6664 167.296C71.3853 167.52 71.0938 167.716 70.8254 167.907C70.2886 168.287 69.7994 168.623 69.3584 168.909C68.4818 169.483 67.8067 169.875 67.3175 170.082C66.3384 170.498 66.1068 170.18 66.4775 169.196C66.6391 168.766 65.9018 168.861 67.0076 167.871C67.0135 167.868 67.1168 167.816 67.1168 167.816L67.0648 167.831C67.7654 167.087 68.6049 166.38 69.4616 165.643C70.2803 164.879 71.1735 164.124 72.0985 163.372C72.5536 162.993 73.0489 162.629 73.495 162.241C73.9323 161.843 74.3747 161.446 74.8113 161.052C75.6798 160.258 76.5826 159.483 77.3761 158.685C85.0111 150.761 90.4477 141.643 93.0166 131.824C93.7532 129.392 94.116 126.877 94.5301 124.376L94.8707 120.578C94.9499 119.946 94.928 119.303 94.9329 118.663L94.9423 116.74C94.9308 116.1 94.9736 115.461 94.925 114.816L94.7634 112.88C94.6454 111.587 94.6016 110.302 94.3326 109.003C94.1008 107.708 93.9292 106.411 93.6491 105.113L92.6557 101.225C91.7875 98.0552 90.5178 94.9079 88.7086 91.8973C86.9149 88.8901 84.4381 86.0297 81.1932 83.7185C80.7735 83.4418 80.3671 83.1532 79.9407 82.8825L78.6197 82.1132C77.691 81.6479 76.7668 81.1614 75.8283 80.8194C73.9276 80.0934 71.8172 79.6918 69.7363 79.5361C67.6472 79.3934 65.572 79.519 63.6661 79.8979C61.7692 80.286 60.0215 80.9195 58.7017 81.8166C57.2451 82.7954 56.3718 84.1002 56.3077 85.5354L56.3125 86.0783L56.3858 86.632L56.5407 87.1845L56.6127 87.4615C56.6475 87.5536 56.6987 87.6455 56.7343 87.7341L56.977 88.2831L57.3148 88.8189L57.4804 89.0898L57.6913 89.3519L58.1124 89.8795C58.1154 89.8654 58.1028 89.848 58.0894 89.8341Z" fill="#1E1E1E"/>
<path d="M65.3334 171.218C64.805 171.199 64.2186 171.196 63.7021 171.146L62.3882 171.012C62.941 170.068 63.5919 169.07 64.0496 168.164C64.0779 168.107 64.0333 168.035 64.0252 167.971L64.0133 167.975L64.3586 167.267C64.439 167.092 64.5097 166.912 64.5648 166.728C64.8158 165.874 65.0059 165.026 65.4895 164.203C65.5602 164.074 65.5938 163.838 66.7777 164.021C68.0142 164.213 68.7141 164.501 68.6359 164.768C68.4415 165.405 68.0413 165.988 68.0892 166.661C68.1201 167.158 68.0105 167.625 67.8497 168.078C67.8095 168.191 67.7641 168.303 67.7187 168.415L67.6026 168.682C67.5706 168.756 67.5505 168.8 67.5483 168.836C67.546 168.899 67.5177 168.955 67.4835 169.014C67.5659 169.036 67.7168 169.042 67.8335 169.029C67.8841 169.022 67.9361 169.007 67.9725 168.989L67.9852 168.98L68.0832 168.979L68.2899 168.978L68.7083 168.978C69.2627 168.977 69.8201 168.988 70.3738 169.043C71.3369 169.139 72.3052 169.443 73.269 169.614C73.4942 169.654 73.7409 169.721 73.9396 169.424L73.9366 169.412C74.2106 169.813 74.489 169.138 74.7628 169.719C74.8505 169.741 74.9456 169.806 75.0318 169.783C75.4228 169.682 75.5371 169.99 75.4376 170.923C75.4159 171.129 75.4611 171.404 75.3674 171.539L75.3599 171.523L75.3622 171.538C75.118 172.153 74.7763 171.816 74.4805 171.801C73.0179 171.728 71.5457 171.598 70.0794 171.491L68.729 171.375C68.4994 171.356 68.2951 171.346 68.0424 171.333C67.6351 171.306 67.2204 171.289 66.7886 171.275C66.3293 171.263 65.7443 171.331 65.3223 171.219L65.3334 171.218Z" fill="#1E1E1E"/>
</svg>
