<svg width="187" height="69" viewBox="0 0 187 69" fill="none" xmlns="http://www.w3.org/2000/svg">
<path fill-rule="evenodd" clip-rule="evenodd" d="M0 34.2833C0 15.3492 15.3492 0 34.2833 0H152.717C171.651 0 187 15.3492 187 34.2833C187 53.2175 171.651 68.5667 152.717 68.5667H34.2833C15.3492 68.5667 0 53.2175 0 34.2833Z" fill="white"/>
<circle cx="35.5" cy="34.5" r="24.5" fill="#0071DC"/>
<path d="M67.3973 29V18.747L65.0453 20.1844V17.8672L67.3973 16.456H69.5403V29H67.3973ZM77.3711 29.2613C76.4826 29.2613 75.6986 29.0726 75.0191 28.6951C74.3397 28.3118 73.8083 27.7804 73.425 27.101C73.0475 26.4215 72.8588 25.6375 72.8588 24.749V20.707C72.8588 19.8185 73.0475 19.0345 73.425 18.355C73.8083 17.6756 74.3397 17.1471 75.0191 16.7696C75.6986 16.3863 76.4826 16.1947 77.3711 16.1947C78.2597 16.1947 79.0408 16.3863 79.7144 16.7696C80.3939 17.1471 80.9253 17.6756 81.3085 18.355C81.6918 19.0345 81.8835 19.8185 81.8835 20.707V24.749C81.8835 25.6375 81.6918 26.4215 81.3085 27.101C80.9253 27.7804 80.3939 28.3118 79.7144 28.6951C79.0408 29.0726 78.2597 29.2613 77.3711 29.2613ZM77.3711 27.2665C77.8125 27.2665 78.2132 27.162 78.5733 26.9529C78.9333 26.738 79.2179 26.4535 79.427 26.0992C79.636 25.7391 79.7406 25.3384 79.7406 24.8971V20.5502C79.7406 20.1031 79.636 19.7024 79.427 19.3481C79.2179 18.988 78.9333 18.7035 78.5733 18.4944C78.2132 18.2795 77.8125 18.1721 77.3711 18.1721C76.9298 18.1721 76.5291 18.2795 76.169 18.4944C75.8089 18.7035 75.5244 18.988 75.3153 19.3481C75.1062 19.7024 75.0017 20.1031 75.0017 20.5502V24.8971C75.0017 25.3384 75.1062 25.7391 75.3153 26.0992C75.5244 26.4535 75.8089 26.738 76.169 26.9529C76.5291 27.162 76.9298 27.2665 77.3711 27.2665ZM88.8385 29.2613C87.9499 29.2613 87.1659 29.0726 86.4865 28.6951C85.807 28.3118 85.2756 27.7804 84.8924 27.101C84.5149 26.4215 84.3261 25.6375 84.3261 24.749V20.707C84.3261 19.8185 84.5149 19.0345 84.8924 18.355C85.2756 17.6756 85.807 17.1471 86.4865 16.7696C87.1659 16.3863 87.9499 16.1947 88.8385 16.1947C89.727 16.1947 90.5081 16.3863 91.1818 16.7696C91.8612 17.1471 92.3926 17.6756 92.7759 18.355C93.1592 19.0345 93.3508 19.8185 93.3508 20.707V24.749C93.3508 25.6375 93.1592 26.4215 92.7759 27.101C92.3926 27.7804 91.8612 28.3118 91.1818 28.6951C90.5081 29.0726 89.727 29.2613 88.8385 29.2613ZM88.8385 27.2665C89.2798 27.2665 89.6806 27.162 90.0406 26.9529C90.4007 26.738 90.6852 26.4535 90.8943 26.0992C91.1034 25.7391 91.2079 25.3384 91.2079 24.8971V20.5502C91.2079 20.1031 91.1034 19.7024 90.8943 19.3481C90.6852 18.988 90.4007 18.7035 90.0406 18.4944C89.6806 18.2795 89.2798 18.1721 88.8385 18.1721C88.3971 18.1721 87.9964 18.2795 87.6363 18.4944C87.2763 18.7035 86.9917 18.988 86.7827 19.3481C86.5736 19.7024 86.4691 20.1031 86.4691 20.5502V24.8971C86.4691 25.3384 86.5736 25.7391 86.7827 26.0992C86.9917 26.4535 87.2763 26.738 87.6363 26.9529C87.9964 27.162 88.3971 27.2665 88.8385 27.2665ZM98.7378 26.6654V23.5469H95.6193V21.9005H98.7378V18.7906H100.384V21.9005H103.485V23.5469H100.384V26.6654H98.7378Z" fill="#717177"/>
<path d="M69.5123 50.2182C68.4651 50.2182 67.561 49.9903 66.7998 49.5346C66.0435 49.0789 65.4593 48.4413 65.0472 47.622C64.64 46.8026 64.4363 45.85 64.4363 44.764C64.4363 43.678 64.64 42.7254 65.0472 41.906C65.4593 41.0867 66.0435 40.4492 66.7998 39.9934C67.561 39.5377 68.4651 39.3098 69.5123 39.3098C70.7147 39.3098 71.7231 39.608 72.5376 40.2043C73.3569 40.8006 73.9339 41.6079 74.2684 42.626L72.2758 43.1787C72.0819 42.5436 71.7546 42.0515 71.294 41.7024C70.8335 41.3485 70.2396 41.1715 69.5123 41.1715C68.8481 41.1715 68.293 41.3194 67.847 41.6151C67.4058 41.9109 67.0737 42.3278 66.8507 42.866C66.6277 43.4041 66.5162 44.0368 66.5162 44.764C66.5162 45.4912 66.6277 46.1239 66.8507 46.6621C67.0737 47.2002 67.4058 47.6171 67.847 47.9129C68.293 48.2086 68.8481 48.3565 69.5123 48.3565C70.2396 48.3565 70.8335 48.1795 71.294 47.8256C71.7546 47.4717 72.0819 46.9796 72.2758 46.3493L74.2684 46.902C73.9339 47.9201 73.3569 48.7274 72.5376 49.3237C71.7231 49.92 70.7147 50.2182 69.5123 50.2182ZM74.8583 50L78.0581 39.528H81.0106L84.2104 50H82.1742L79.3235 40.7643H79.7016L76.8946 50H74.8583ZM76.7782 47.8183V45.9712H82.3051V47.8183H76.7782ZM91.9308 50.2182C91.349 50.2182 90.7963 50.1309 90.2727 49.9564C89.7491 49.7818 89.3128 49.5055 88.9637 49.1273C88.6825 48.8122 88.4765 48.4728 88.3456 48.1092C88.2195 47.7456 88.1492 47.3529 88.1347 46.9311C88.1347 46.5142 88.1953 46.1166 88.3165 45.7385C88.4377 45.3555 88.6243 45.0161 88.8764 44.7204C88.9589 44.6234 89.0461 44.5361 89.1382 44.4586C89.2304 44.3761 89.3225 44.2986 89.4146 44.2259C89.1528 43.9253 88.9564 43.6295 88.8255 43.3386C88.6946 43.0429 88.6292 42.7035 88.6292 42.3205C88.6292 41.6854 88.8013 41.1182 89.1455 40.6188C89.4946 40.1195 89.9673 39.7656 90.5636 39.5571C90.8109 39.4698 91.0605 39.4116 91.3126 39.3826C91.5647 39.3535 91.8096 39.3389 92.0471 39.3389C92.5271 39.3389 92.9853 39.4141 93.4216 39.5644C93.8579 39.7098 94.2288 39.9498 94.5342 40.2843C94.7233 40.4782 94.8785 40.694 94.9997 40.9315C95.1257 41.1691 95.2178 41.4091 95.276 41.6515L93.3125 42.0442C93.2543 41.8406 93.1525 41.666 93.0071 41.5206C92.8713 41.38 92.7113 41.2903 92.5271 41.2515C92.3429 41.2079 92.1635 41.1861 91.989 41.1861C91.7126 41.1861 91.4702 41.2346 91.2617 41.3315C91.0436 41.4333 90.8812 41.5666 90.7745 41.7315C90.6727 41.8963 90.6218 42.1024 90.6218 42.3496C90.6218 42.5726 90.6654 42.7496 90.7527 42.8805C90.8399 43.0114 90.9418 43.1399 91.0581 43.2659C91.1405 43.3532 91.2423 43.455 91.3635 43.5714C91.4896 43.6877 91.6205 43.8089 91.7562 43.935L94.1561 46.1603C94.1561 46.0778 94.1561 45.9809 94.1561 45.8694C94.1561 45.7579 94.1561 45.6561 94.1561 45.5639V44.3713H95.8723V46.3639C95.8723 46.5869 95.8675 46.822 95.8578 47.0693C95.8481 47.3117 95.8238 47.5129 95.7851 47.6729L97.065 48.851L95.7996 50.2036L94.8397 49.2873C94.5633 49.5249 94.2676 49.714 93.9525 49.8546C93.6422 49.9952 93.327 50.0921 93.0071 50.1454C92.8034 50.1745 92.6168 50.1939 92.4471 50.2036C92.2774 50.2133 92.1053 50.2182 91.9308 50.2182ZM92.018 48.3419C92.1296 48.3419 92.2362 48.3371 92.338 48.3274C92.4398 48.3177 92.5416 48.3031 92.6435 48.2838C92.7986 48.2547 92.9392 48.2135 93.0652 48.1601C93.1961 48.102 93.3125 48.0365 93.4143 47.9638L90.8545 45.6076C90.7527 45.6512 90.6606 45.7045 90.5781 45.7676C90.5006 45.8306 90.4327 45.8985 90.3745 45.9712C90.297 46.0778 90.2364 46.2015 90.1927 46.3421C90.1491 46.4827 90.1273 46.6402 90.1273 46.8148C90.1273 47.0232 90.1588 47.205 90.2218 47.3602C90.2897 47.5105 90.3697 47.6486 90.4618 47.7747C90.6218 47.9783 90.8545 48.1238 91.1599 48.211C91.4654 48.2983 91.7514 48.3419 92.018 48.3419ZM101.283 50V39.528H103.261V48.1529H107.77V50H101.283ZM111.188 50.2182C110.626 50.2182 110.148 50.1115 109.756 49.8982C109.368 49.68 109.072 49.3916 108.868 49.0328C108.67 48.6692 108.57 48.2692 108.57 47.8329C108.57 47.4693 108.626 47.1372 108.737 46.8366C108.849 46.536 109.028 46.2718 109.276 46.0439C109.528 45.8112 109.865 45.6173 110.286 45.4621C110.577 45.3555 110.924 45.2609 111.326 45.1785C111.729 45.0961 112.184 45.0185 112.694 44.9458C113.203 44.8682 113.763 44.7834 114.373 44.6913L113.661 45.084C113.661 44.6186 113.549 44.2768 113.326 44.0586C113.103 43.8404 112.73 43.7313 112.206 43.7313C111.915 43.7313 111.612 43.8016 111.297 43.9422C110.982 44.0828 110.762 44.3325 110.635 44.6913L108.847 44.124C109.045 43.4744 109.419 42.9459 109.966 42.5387C110.514 42.1315 111.261 41.9278 112.206 41.9278C112.9 41.9278 113.515 42.0345 114.053 42.2478C114.592 42.4611 114.999 42.8296 115.275 43.3532C115.43 43.6441 115.522 43.935 115.552 44.2259C115.581 44.5167 115.595 44.8416 115.595 45.2003V50H113.864V48.3856L114.112 48.7201C113.729 49.2485 113.314 49.6315 112.868 49.8691C112.427 50.1018 111.867 50.2182 111.188 50.2182ZM111.61 48.6619C111.974 48.6619 112.279 48.5989 112.526 48.4728C112.778 48.3419 112.977 48.1941 113.123 48.0292C113.273 47.8644 113.375 47.7262 113.428 47.6147C113.53 47.4014 113.588 47.1541 113.603 46.8729C113.622 46.5869 113.632 46.3493 113.632 46.1603L114.213 46.3057C113.627 46.4027 113.152 46.4851 112.788 46.553C112.424 46.616 112.131 46.6742 111.908 46.7275C111.685 46.7808 111.489 46.839 111.319 46.902C111.125 46.9796 110.968 47.0644 110.846 47.1566C110.73 47.2438 110.643 47.3408 110.585 47.4475C110.531 47.5541 110.505 47.6729 110.505 47.8038C110.505 47.9832 110.548 48.1383 110.635 48.2692C110.728 48.3953 110.856 48.4922 111.021 48.5601C111.186 48.628 111.382 48.6619 111.61 48.6619ZM118.875 50L116.475 42.1315L118.409 42.146L119.835 46.8293L121.282 42.146H122.925L124.372 46.8293L125.798 42.146H127.732L125.332 50H123.82L122.103 44.8804L120.387 50H118.875ZM129.98 53.4907L131.493 49.331L131.522 50.5527L128.104 42.146H130.155L132.453 48.0947H131.987L134.271 42.146H136.249L131.813 53.4907H129.98ZM140.638 50.2182C139.833 50.2182 139.123 50.0461 138.507 49.7018C137.897 49.3528 137.417 48.8752 137.068 48.2692C136.723 47.6583 136.551 46.9602 136.551 46.1748C136.551 45.3167 136.721 44.5701 137.06 43.935C137.4 43.2999 137.867 42.8078 138.464 42.4587C139.06 42.1048 139.746 41.9278 140.522 41.9278C141.346 41.9278 142.047 42.1218 142.623 42.5096C143.2 42.8975 143.627 43.4429 143.903 44.1459C144.18 44.8488 144.277 45.6755 144.194 46.6257H142.238V45.8985C142.238 45.0985 142.11 44.524 141.853 44.175C141.601 43.821 141.186 43.6441 140.609 43.6441C139.935 43.6441 139.438 43.8501 139.118 44.2622C138.803 44.6695 138.646 45.2731 138.646 46.073C138.646 46.8051 138.803 47.3723 139.118 47.7747C139.438 48.1722 139.906 48.371 140.522 48.371C140.91 48.371 141.242 48.2862 141.518 48.1165C141.794 47.9468 142.005 47.702 142.151 47.382L144.129 47.9492C143.833 48.6668 143.365 49.2243 142.725 49.6218C142.09 50.0194 141.394 50.2182 140.638 50.2182ZM138.035 46.6257V45.1567H143.242V46.6257H138.035ZM145.836 50V42.146H147.582V44.0659L147.393 43.8186C147.494 43.5471 147.63 43.2999 147.8 43.0768C147.97 42.8538 148.178 42.6696 148.425 42.5242C148.614 42.4078 148.82 42.3181 149.043 42.2551C149.266 42.1872 149.497 42.146 149.734 42.1315C149.972 42.1121 150.209 42.1169 150.447 42.146V43.9931C150.229 43.9253 149.974 43.9035 149.683 43.9277C149.397 43.9471 149.138 44.0125 148.905 44.124C148.673 44.2307 148.476 44.3737 148.316 44.5531C148.156 44.7276 148.035 44.9361 147.953 45.1785C147.87 45.4161 147.829 45.6851 147.829 45.9857V50H145.836Z" fill="#212044"/>
<path fill-rule="evenodd" clip-rule="evenodd" d="M28.5664 24.4064C28.3008 24.4064 28.1016 24.2072 28.1016 23.9416C28.1016 23.3439 28.168 22.6798 28.5664 22.2814C29.0977 21.883 29.8281 21.9494 30.8906 22.0158C31.6211 22.0822 32.418 22.215 33.4805 22.215C35.1406 22.1486 35.6055 20.8869 36.0039 20.0236C36.2031 19.6252 36.2695 19.3595 36.4688 19.1603C36.668 19.0275 37 19.0275 37.1328 19.2267C37.332 19.4259 37.332 19.758 37.1328 19.8908C37.0664 19.9572 36.9336 20.2228 36.8672 20.3556C36.4688 21.3517 35.7383 23.0783 33.4805 23.1447C32.3516 23.1447 31.4883 23.0119 30.8242 22.9455C30.0273 22.8791 29.4297 22.8127 29.2305 23.0119C29.0977 23.0783 29.0312 23.2775 29.0312 23.9416C29.0312 24.2072 28.832 24.4064 28.5664 24.4064Z" fill="white"/>
<path fill-rule="evenodd" clip-rule="evenodd" d="M32.6172 34.8322C31.4883 34.8322 30.5586 34.633 29.9609 34.1681C28.1016 32.9064 27.7031 31.1798 27.5703 30.3165C27.1719 30.3165 26.8398 30.1837 26.5742 29.9845C25.8438 29.3869 25.5117 28.1915 25.5117 26.3322C25.5117 26.1994 25.5117 25.9337 25.7109 25.7345C25.9102 25.5353 26.1758 25.5353 26.4414 25.5353V25.004C26.375 23.2775 26.375 21.8165 26.5078 21.2189C27.1055 19.4259 29.0977 18.2306 31.8203 18.0314C34.3438 17.8322 37.5312 18.5626 38.5938 20.754C38.9922 21.5509 38.9922 23.1447 38.8594 25.004V25.5353H38.9258C39.1914 25.5353 39.457 25.5353 39.6562 25.7345C39.8555 25.9337 39.8555 26.1994 39.8555 26.5314C39.8555 27.7267 39.6562 29.3205 38.793 30.0509C38.5273 30.1837 38.1953 30.383 37.7969 30.383C37.7305 31.1798 37.332 32.7736 35.5391 34.1681C34.9414 34.5665 33.8789 34.8322 32.75 34.8986C32.6836 34.8322 32.6836 34.8322 32.6172 34.8322ZM28.0352 29.3869C28.168 29.3869 28.2344 29.3869 28.3672 29.4533C28.4336 29.5861 28.5 29.7189 28.5 29.8517C28.5 29.9181 28.4336 32.0431 30.4922 33.4376C31.4219 34.1017 34.0117 34.0353 35.0078 33.3712C37 31.8439 36.8672 29.9181 36.8672 29.8517C36.8672 29.7189 36.9336 29.5861 37.0664 29.4533C37.1328 29.3869 37.332 29.3205 37.4648 29.3869C37.8633 29.4533 38.0625 29.3869 38.1953 29.254C38.6602 28.922 38.9258 27.8595 38.9258 26.5314V26.465H38.3945C38.1289 26.3986 37.9297 26.1994 37.9297 26.0001C37.9297 25.7345 37.9297 25.3361 37.9961 24.9376C37.9961 23.7423 38.1289 21.8165 37.7969 21.1525C37.0664 19.6251 34.543 18.6955 31.8867 18.8947C30.0938 19.0275 27.9688 19.758 27.4375 21.4181C27.3047 22.0158 27.3047 23.8751 27.3711 24.9376V25.9337C27.3711 26.1994 27.1719 26.3986 26.9727 26.3986C26.7734 26.465 26.5742 26.465 26.4414 26.465C26.4414 28.3908 26.9062 29.0548 27.1719 29.254C27.3047 29.3205 27.5039 29.4533 27.9688 29.3869H28.0352Z" fill="white"/>
<path fill-rule="evenodd" clip-rule="evenodd" d="M43.3086 49.9729H21.8594C20.7969 49.9729 20 49.1096 20 47.9807V43.133C20 39.3479 22.8555 36.2932 26.375 36.2932H26.8398C27.8359 36.2932 28.4336 36.2932 28.7656 36.0275C29.0977 35.7619 29.3633 35.0979 29.6289 33.6369C29.6953 33.3713 29.9609 33.2385 30.1602 33.3049C30.4258 33.3713 30.625 33.5705 30.5586 33.8361C30.2266 35.3635 29.9609 36.2268 29.3633 36.758C28.7656 37.2229 27.9688 37.2229 26.7734 37.2229H26.375C23.3867 37.2229 20.9297 39.8791 20.9297 43.133V47.9807C20.9297 48.5783 21.3281 49.0432 21.8594 49.0432H43.3086C43.7734 49.0432 44.2383 48.5783 44.2383 47.9807V43.133C44.2383 39.8791 41.7812 37.2229 38.793 37.2229H37.9961C36.9336 37.2229 36.2031 37.2229 35.6719 36.758C35.0742 36.2932 34.875 35.4299 34.6094 33.9689C34.543 33.7033 34.7422 33.4377 35.0078 33.4377C35.2734 33.3713 35.4727 33.5705 35.5391 33.8361C35.7383 35.1643 35.9375 35.8283 36.2695 36.0939C36.5352 36.2932 37.0664 36.2932 37.9961 36.2932H38.793C42.3125 36.2932 45.168 39.3479 45.168 43.133V47.9807C45.168 49.0432 44.3047 49.9729 43.3086 49.9729Z" fill="white"/>
<path fill-rule="evenodd" clip-rule="evenodd" d="M30.625 43.3986C30.4922 43.3986 30.293 43.3322 30.2266 43.1993L26.1094 37.0236C25.9766 36.7579 26.043 36.4923 26.2422 36.3595C26.4414 36.2267 26.7734 36.2931 26.9063 36.4923L30.625 42.1368L32.1523 40.1447C31.2891 39.3478 29.0313 37.3556 28.5 36.8907C28.3008 36.6915 28.3008 36.3595 28.5 36.2267C28.6992 36.0275 28.9648 36.0275 29.1641 36.2267C29.7617 36.7579 33.0156 39.6798 33.082 39.6798C33.2148 39.879 33.2813 40.1447 33.1484 40.3439L31.0234 43.1993C30.8906 43.3322 30.7578 43.3986 30.625 43.3986Z" fill="white"/>
<path fill-rule="evenodd" clip-rule="evenodd" d="M34.8749 43.3986C34.7421 43.3986 34.6093 43.3322 34.4764 43.1993L32.3514 40.3439C32.2186 40.1447 32.285 39.879 32.4179 39.6798C32.4843 39.6798 35.4061 37.09 36.203 36.3595C36.4022 36.1603 36.6679 36.1603 36.8671 36.3595C37.0663 36.4923 37.0663 36.8243 36.8671 37.0236C36.203 37.6212 34.2108 39.4142 33.3475 40.1447L34.8749 42.1368L38.5936 36.4923C38.7264 36.2931 39.0585 36.2267 39.2577 36.3595C39.4569 36.4923 39.5233 36.7579 39.3905 37.0236L35.2733 43.1993C35.1405 43.3322 35.0077 43.3986 34.8749 43.3986Z" fill="white"/>
<path fill-rule="evenodd" clip-rule="evenodd" d="M32.75 49.0431C32.6172 49.0431 32.4844 48.9767 32.418 48.8439L31.2227 47.5157C31.0898 47.4493 31.0898 47.3165 31.0898 47.1837L31.4883 41.0743C31.4883 40.8087 31.7539 40.6759 31.9531 40.6759C32.2188 40.6759 32.418 40.8751 32.418 41.1407L32.0195 47.0509L32.75 47.8478L33.4805 47.0509L33.082 41.1407C33.082 40.8751 33.2812 40.6759 33.4805 40.6759C33.7461 40.6759 34.0117 40.8751 34.0117 41.0743L34.4102 47.1837C34.4102 47.3165 34.3438 47.4493 34.2773 47.5157L33.082 48.8439C33.0156 48.9767 32.8828 49.0431 32.75 49.0431Z" fill="white"/>
<path fill-rule="evenodd" clip-rule="evenodd" d="M41.6484 49.9728H23.4531C23.1875 49.9728 22.9883 49.7736 22.9883 49.5079V42.5353C22.9883 42.2697 23.1875 42.0704 23.4531 42.0704C23.7188 42.0704 23.918 42.2697 23.918 42.5353V49.0431H41.1836V42.5353C41.1836 42.2697 41.3828 42.0704 41.6484 42.0704C41.9141 42.0704 42.1133 42.2697 42.1133 42.5353V49.5079C42.1133 49.7736 41.9141 49.9728 41.6484 49.9728ZM47.5586 38.3517C43.9727 38.3517 41.0508 35.4298 41.0508 31.9103C41.0508 28.3243 43.9727 25.4025 47.5586 25.4025C49.2852 25.4025 50.8789 26.0665 52.0742 27.3282C53.3359 28.5236 54 30.1837 54 31.9103C54 35.4298 51.0781 38.3517 47.5586 38.3517ZM47.5586 26.3322C44.5039 26.3322 41.9805 28.7892 41.9805 31.9103C41.9805 34.965 44.5039 37.422 47.5586 37.422C50.6133 37.422 53.0703 34.965 53.0703 31.9103C53.0703 28.8556 50.5469 26.3322 47.5586 26.3322Z" fill="white"/>
<path fill-rule="evenodd" clip-rule="evenodd" d="M47.5586 35.7618C46.2969 35.7618 45.3672 34.8322 45.3672 33.5704C45.3672 33.3048 45.5664 33.1056 45.832 33.1056C46.0977 33.1056 46.2969 33.3048 46.2969 33.5704C46.2969 34.3009 46.8281 34.8322 47.5586 34.8322C48.2227 34.8322 48.7539 34.3009 48.7539 33.5704C48.7539 32.6407 48.3555 32.5079 47.4258 32.3087C46.5625 32.1095 45.3672 31.8439 45.3672 30.1837C45.3672 28.922 46.3633 27.9923 47.5586 27.9923C48.7539 27.9923 49.6836 28.9884 49.6836 30.1837C49.6836 30.4493 49.4844 30.6486 49.2188 30.6486C48.9531 30.6486 48.7539 30.4493 48.7539 30.1837C48.7539 29.4532 48.2227 28.922 47.5586 28.922C46.8281 28.922 46.2969 29.4532 46.2969 30.1837C46.2969 31.047 46.6953 31.1798 47.625 31.379C48.4883 31.6447 49.6836 31.9103 49.6836 33.5704C49.6836 34.7657 48.7539 35.7618 47.5586 35.7618Z" fill="white"/>
<path fill-rule="evenodd" clip-rule="evenodd" d="M47.5586 36.6251C47.293 36.6251 47.0938 36.4259 47.0938 36.1603V27.6603C47.0938 27.3947 47.293 27.1954 47.5586 27.1954C47.8242 27.1954 48.0234 27.3947 48.0234 27.6603V36.1603C48.0234 36.4259 47.8242 36.6251 47.5586 36.6251Z" fill="white"/>
</svg>
