<svg width="187" height="69" viewBox="0 0 187 69" fill="none" xmlns="http://www.w3.org/2000/svg">
<path fill-rule="evenodd" clip-rule="evenodd" d="M0 34.2833C0 15.3492 15.3492 0 34.2833 0H152.717C171.651 0 187 15.3492 187 34.2833C187 53.2175 171.651 68.5667 152.717 68.5667H34.2833C15.3492 68.5667 0 53.2175 0 34.2833Z" fill="white"/>
<circle cx="35.5" cy="34.5" r="24.5" fill="#0071DC"/>
<path d="M67.3973 29V18.747L65.0453 20.1844V17.8672L67.3973 16.456H69.5403V29H67.3973ZM77.3711 29.2613C76.4826 29.2613 75.6986 29.0726 75.0191 28.6951C74.3397 28.3118 73.8083 27.7804 73.425 27.101C73.0475 26.4215 72.8588 25.6375 72.8588 24.749V20.707C72.8588 19.8185 73.0475 19.0345 73.425 18.355C73.8083 17.6756 74.3397 17.1471 75.0191 16.7696C75.6986 16.3863 76.4826 16.1947 77.3711 16.1947C78.2597 16.1947 79.0408 16.3863 79.7144 16.7696C80.3939 17.1471 80.9253 17.6756 81.3085 18.355C81.6918 19.0345 81.8835 19.8185 81.8835 20.707V24.749C81.8835 25.6375 81.6918 26.4215 81.3085 27.101C80.9253 27.7804 80.3939 28.3118 79.7144 28.6951C79.0408 29.0726 78.2597 29.2613 77.3711 29.2613ZM77.3711 27.2665C77.8125 27.2665 78.2132 27.162 78.5733 26.9529C78.9333 26.738 79.2179 26.4535 79.427 26.0992C79.636 25.7391 79.7406 25.3384 79.7406 24.8971V20.5502C79.7406 20.1031 79.636 19.7024 79.427 19.3481C79.2179 18.988 78.9333 18.7035 78.5733 18.4944C78.2132 18.2795 77.8125 18.1721 77.3711 18.1721C76.9298 18.1721 76.5291 18.2795 76.169 18.4944C75.8089 18.7035 75.5244 18.988 75.3153 19.3481C75.1062 19.7024 75.0017 20.1031 75.0017 20.5502V24.8971C75.0017 25.3384 75.1062 25.7391 75.3153 26.0992C75.5244 26.4535 75.8089 26.738 76.169 26.9529C76.5291 27.162 76.9298 27.2665 77.3711 27.2665ZM87.2705 26.6654V23.5469H84.1519V21.9005H87.2705V18.7906H88.9169V21.9005H92.018V23.5469H88.9169V26.6654H87.2705Z" fill="#717177"/>
<path d="M69.5123 50.2182C68.4651 50.2182 67.561 49.9903 66.7998 49.5346C66.0435 49.0789 65.4593 48.4413 65.0472 47.622C64.64 46.8026 64.4363 45.85 64.4363 44.764C64.4363 43.678 64.64 42.7254 65.0472 41.906C65.4593 41.0867 66.0435 40.4492 66.7998 39.9934C67.561 39.5377 68.4651 39.3098 69.5123 39.3098C70.5595 39.3098 71.4613 39.5377 72.2176 39.9934C72.9788 40.4492 73.563 41.0867 73.9702 41.906C74.3823 42.7254 74.5884 43.678 74.5884 44.764C74.5884 45.85 74.3823 46.8026 73.9702 47.622C73.563 48.4413 72.9788 49.0789 72.2176 49.5346C71.4613 49.9903 70.5595 50.2182 69.5123 50.2182ZM69.5123 48.3565C70.1765 48.3662 70.7292 48.2232 71.1704 47.9274C71.6116 47.6317 71.9413 47.2123 72.1594 46.6693C72.3824 46.1263 72.494 45.4912 72.494 44.764C72.494 44.0368 72.3824 43.4065 72.1594 42.8732C71.9413 42.3399 71.6116 41.9254 71.1704 41.6297C70.7292 41.3339 70.1765 41.1812 69.5123 41.1715C68.8481 41.1618 68.2955 41.3048 67.8543 41.6006C67.4131 41.8963 67.081 42.3157 66.858 42.8587C66.6398 43.4017 66.5307 44.0368 66.5307 44.764C66.5307 45.4912 66.6398 46.1215 66.858 46.6548C67.081 47.1881 67.4131 47.6026 67.8543 47.8983C68.2955 48.1941 68.8481 48.3468 69.5123 48.3565ZM76.6946 50V42.1751C76.6946 41.9763 76.6994 41.7509 76.7091 41.4988C76.7188 41.2467 76.7576 40.9921 76.8255 40.7352C76.8982 40.4782 77.0291 40.2455 77.2182 40.0371C77.4606 39.7656 77.7224 39.5813 78.0036 39.4844C78.2896 39.3826 78.566 39.3292 78.8326 39.3244C79.0993 39.3147 79.3271 39.3098 79.5162 39.3098H80.4907V40.9097H79.5889C79.2786 40.9097 79.0483 40.9897 78.8981 41.1497C78.7478 41.3048 78.6726 41.4915 78.6726 41.7097V50H76.6946ZM75.4583 43.6732V42.146H80.4907V43.6732H75.4583ZM81.7269 50V42.1751C81.7269 41.9763 81.7318 41.7509 81.7415 41.4988C81.7512 41.2467 81.79 40.9921 81.8578 40.7352C81.9306 40.4782 82.0615 40.2455 82.2505 40.0371C82.493 39.7656 82.7548 39.5813 83.0359 39.4844C83.322 39.3826 83.5983 39.3292 83.865 39.3244C84.1316 39.3147 84.3595 39.3098 84.5486 39.3098H85.523V40.9097H84.6213C84.311 40.9097 84.0807 40.9897 83.9304 41.1497C83.7801 41.3048 83.705 41.4915 83.705 41.7097V50H81.7269ZM80.4907 43.6732V42.146H85.523V43.6732H80.4907ZM87.0512 41.0552V39.3098H89.0293V41.0552H87.0512ZM87.0512 50V42.146H89.0293V50H87.0512ZM94.671 50.2182C93.8566 50.2182 93.1584 50.0364 92.5766 49.6728C91.9949 49.3091 91.5488 48.8146 91.2386 48.1892C90.9283 47.5638 90.7731 46.8584 90.7731 46.073C90.7731 45.2779 90.9331 44.5677 91.2531 43.9422C91.5779 43.3168 92.0337 42.8247 92.6203 42.466C93.2069 42.1072 93.9002 41.9278 94.7001 41.9278C95.6261 41.9278 96.4018 42.163 97.0272 42.6332C97.6575 43.0987 98.0599 43.7362 98.2344 44.5458L96.2564 45.0694C96.14 44.6622 95.9364 44.3446 95.6455 44.1168C95.3595 43.8889 95.0347 43.775 94.671 43.775C94.2541 43.775 93.9123 43.8768 93.6457 44.0804C93.379 44.2792 93.1827 44.5531 93.0566 44.9022C92.9306 45.2464 92.8675 45.6367 92.8675 46.073C92.8675 46.7566 93.0178 47.3117 93.3184 47.7383C93.6238 48.1601 94.0747 48.371 94.671 48.371C95.1171 48.371 95.4564 48.2692 95.6892 48.0656C95.9219 47.862 96.0964 47.5711 96.2128 47.1929L98.2344 47.6147C98.0114 48.4486 97.5896 49.091 96.9691 49.5419C96.3485 49.9927 95.5825 50.2182 94.671 50.2182ZM103.127 50.2182C102.322 50.2182 101.612 50.0461 100.996 49.7018C100.385 49.3528 99.905 48.8752 99.5559 48.2692C99.2117 47.6583 99.0396 46.9602 99.0396 46.1748C99.0396 45.3167 99.2093 44.5701 99.5487 43.935C99.888 43.2999 100.356 42.8078 100.952 42.4587C101.549 42.1048 102.235 41.9278 103.01 41.9278C103.834 41.9278 104.535 42.1218 105.112 42.5096C105.689 42.8975 106.115 43.4429 106.392 44.1459C106.668 44.8488 106.765 45.6755 106.683 46.6257H104.726V45.8985C104.726 45.0985 104.598 44.524 104.341 44.175C104.089 43.821 103.674 43.6441 103.098 43.6441C102.424 43.6441 101.927 43.8501 101.607 44.2622C101.292 44.6695 101.134 45.2731 101.134 46.073C101.134 46.8051 101.292 47.3723 101.607 47.7747C101.927 48.1722 102.395 48.371 103.01 48.371C103.398 48.371 103.73 48.2862 104.007 48.1165C104.283 47.9468 104.494 47.702 104.639 47.382L106.617 47.9492C106.322 48.6668 105.854 49.2243 105.214 49.6218C104.579 50.0194 103.883 50.2182 103.127 50.2182ZM100.523 46.6257V45.1567H105.73V46.6257H100.523ZM111.394 50.2182C110.405 50.2182 109.605 49.9952 108.994 49.5491C108.388 49.0982 108.019 48.4631 107.888 47.6438L109.91 47.3384C109.993 47.7068 110.174 47.9953 110.456 48.2038C110.742 48.4122 111.103 48.5165 111.539 48.5165C111.898 48.5165 112.174 48.4486 112.368 48.3128C112.562 48.1722 112.659 47.9783 112.659 47.7311C112.659 47.5759 112.62 47.4523 112.543 47.3602C112.465 47.2632 112.291 47.1687 112.019 47.0766C111.752 46.9845 111.335 46.8632 110.768 46.713C110.128 46.5481 109.617 46.3639 109.234 46.1603C108.851 45.9566 108.574 45.7142 108.405 45.433C108.235 45.147 108.15 44.8028 108.15 44.4004C108.15 43.8962 108.279 43.4598 108.536 43.0914C108.793 42.7181 109.154 42.432 109.619 42.2333C110.089 42.0296 110.642 41.9278 111.277 41.9278C111.893 41.9278 112.438 42.0224 112.914 42.2115C113.389 42.4005 113.772 42.6696 114.063 43.0187C114.358 43.3677 114.54 43.7798 114.608 44.2549L112.586 44.6186C112.552 44.3277 112.426 44.0974 112.208 43.9277C111.99 43.758 111.694 43.6586 111.321 43.6295C110.957 43.6053 110.664 43.6538 110.441 43.775C110.223 43.8962 110.114 44.0707 110.114 44.2986C110.114 44.4343 110.16 44.5483 110.252 44.6404C110.349 44.7325 110.545 44.827 110.841 44.924C111.142 45.021 111.597 45.147 112.208 45.3021C112.804 45.4573 113.282 45.6391 113.641 45.8476C114.004 46.0512 114.269 46.2984 114.433 46.5893C114.598 46.8754 114.681 47.222 114.681 47.6293C114.681 48.434 114.39 49.0667 113.808 49.5273C113.226 49.9879 112.421 50.2182 111.394 50.2182Z" fill="#212044"/>
<g clip-path="url(#clip0_1599_217)">
<path d="M33.2585 47.407C33.2585 47.6828 33.0256 47.9088 32.7323 47.9088C32.4391 47.9088 32.1987 47.6828 32.1987 47.407V41.1223C32.1987 40.6984 32.3939 40.3165 32.7097 40.041C33.031 39.7619 33.4528 39.6079 33.8902 39.6099H40.1069C40.5653 39.6099 40.9864 39.7722 41.2868 40.041C41.6023 40.3168 41.7984 40.6984 41.7984 41.1223V47.407C41.7984 47.6828 41.5651 47.9088 41.2719 47.9088C40.9786 47.9088 40.7383 47.6828 40.7383 47.407V41.1223C40.7383 40.9882 40.678 40.8608 40.5728 40.7691C40.4441 40.6628 40.2782 40.6049 40.1069 40.6065H37.5282V47.4072C37.5282 47.683 37.2955 47.9091 37.0022 47.9091C36.8609 47.9085 36.7255 47.8555 36.6255 47.7615C36.5256 47.6675 36.4692 47.5402 36.4686 47.4072V40.6063H33.8902C33.7098 40.6063 33.5518 40.6702 33.4317 40.7689C33.3265 40.8606 33.2588 40.9879 33.2588 41.1221L33.2585 47.407ZM31.7628 32.9083H35.2356C35.3048 32.908 35.3734 32.9205 35.4374 32.9452C35.5014 32.97 35.5596 33.0064 35.6085 33.0524C35.6575 33.0985 35.6962 33.1532 35.7225 33.2134C35.7488 33.2736 35.7622 33.3381 35.7618 33.4032V36.4431C35.7622 36.5081 35.7489 36.5726 35.7226 36.6328C35.6963 36.693 35.6575 36.7477 35.6086 36.7937C35.5596 36.8397 35.5014 36.876 35.4374 36.9007C35.3734 36.9254 35.3048 36.9379 35.2356 36.9374H31.7628C31.6936 36.9379 31.625 36.9254 31.561 36.9007C31.4969 36.876 31.4387 36.8397 31.3898 36.7937C31.3408 36.7477 31.3021 36.693 31.2758 36.6328C31.2495 36.5726 31.2362 36.5081 31.2366 36.4431V33.4032C31.2361 33.338 31.2494 33.2735 31.2757 33.2133C31.302 33.153 31.3407 33.0983 31.3897 33.0523C31.4386 33.0063 31.4968 32.9698 31.5609 32.9451C31.6249 32.9204 31.6936 32.9079 31.7628 32.9083ZM31.7628 26.8642H35.2356C35.3048 26.8638 35.3734 26.8764 35.4374 26.9011C35.5014 26.9259 35.5596 26.9623 35.6085 27.0083C35.6575 27.0544 35.6962 27.109 35.7225 27.1692C35.7488 27.2294 35.7622 27.294 35.7618 27.359V30.3987C35.7622 30.4638 35.7489 30.5283 35.7227 30.5886C35.6964 30.6488 35.6576 30.7035 35.6087 30.7496C35.5597 30.7956 35.5015 30.832 35.4375 30.8567C35.3734 30.8815 35.3048 30.894 35.2356 30.8935H31.7628C31.6936 30.8939 31.625 30.8813 31.561 30.8566C31.4969 30.8319 31.4388 30.7954 31.3898 30.7494C31.3409 30.7034 31.3022 30.6487 31.2758 30.5885C31.2495 30.5283 31.2362 30.4638 31.2366 30.3987V27.3593C31.2361 27.2942 31.2494 27.2296 31.2757 27.1694C31.302 27.1091 31.3407 27.0544 31.3897 27.0083C31.4386 26.9623 31.4968 26.9258 31.5609 26.9011C31.6249 26.8764 31.6935 26.8638 31.7628 26.8642ZM34.7019 27.8614H32.2964V29.8969H34.7019V27.8614ZM40.505 29.8969C40.7983 29.8969 41.031 30.1232 41.031 30.399C41.031 30.6747 40.798 30.8938 40.505 30.8938H38.7686C38.4754 30.8938 38.2347 30.6745 38.2347 30.399V27.3593C38.2347 27.0835 38.4751 26.8645 38.7686 26.8645C38.8379 26.8641 38.9065 26.8766 38.9705 26.9014C39.0345 26.9261 39.0927 26.9626 39.1416 27.0086C39.1905 27.0546 39.2293 27.1093 39.2556 27.1695C39.2819 27.2297 39.2952 27.2942 39.2949 27.3593V29.8969H40.505ZM38.7686 32.9083H42.234C42.5272 32.9083 42.7676 33.1276 42.7676 33.4032V36.4431C42.7676 36.7188 42.5272 36.9374 42.234 36.9374H38.7686C38.4754 36.9374 38.2347 36.7186 38.2347 36.4431V33.4032C38.2347 33.1276 38.4754 32.9083 38.7686 32.9083ZM41.7081 33.9052H39.2951V35.941H41.7081V33.9052ZM34.7019 33.9052H32.2964V35.941H34.7019V33.9052ZM45.9323 33.3115C45.7822 33.5448 45.4592 33.6295 45.2109 33.4881C45.1315 33.4419 45.0646 33.3791 45.0154 33.3045L40.4599 26.0444C40.2267 25.6697 40.0314 25.1891 39.9114 24.765C39.7902 24.3216 39.7295 23.8655 39.7307 23.4077C39.7293 22.6973 39.8774 21.9936 40.1664 21.3372C40.4554 20.6809 40.8795 20.0847 41.4145 19.5832C41.9481 19.0803 42.5821 18.6816 43.28 18.4099C43.978 18.1382 44.7261 17.9989 45.4815 18C47.0676 18 48.5033 18.608 49.5482 19.5834C50.5855 20.5663 51.2323 21.9162 51.2323 23.4079C51.2323 23.8745 51.1646 24.3269 51.0445 24.7653C50.9239 25.2179 50.7358 25.6418 50.5032 26.0377L45.9323 33.3115ZM45.4815 32.0813L49.5857 25.5423C49.9709 24.8892 50.1727 24.1545 50.1719 23.4077C50.1719 22.1917 49.6463 21.0891 48.7965 20.2903C48.3618 19.8801 47.8451 19.5546 47.2762 19.3326C46.7073 19.1106 46.0974 18.9964 45.4815 18.9967C44.8644 18.9956 44.2531 19.1094 43.6829 19.3314C43.1127 19.5534 42.5948 19.8793 42.1591 20.2903C41.3168 21.0891 40.7909 22.1917 40.7909 23.4077C40.7909 23.7966 40.8432 24.1638 40.9338 24.5175C41.0312 24.8707 41.1816 25.2101 41.3619 25.5281L45.4815 32.0813Z" fill="white"/>
<path d="M45.4815 20.5236C46.3235 20.5236 47.0901 20.849 47.6461 21.3718C47.9328 21.6378 48.1602 21.9548 48.3152 22.3043C48.4701 22.6538 48.5494 23.0289 48.5484 23.4076C48.5484 24.2062 48.2023 24.9276 47.6461 25.4506C47.0899 25.9667 46.3235 26.2917 45.4815 26.2917C44.6678 26.2915 43.887 25.9893 43.309 25.4506C42.7527 24.9276 42.4146 24.2064 42.4146 23.4076C42.4146 22.6088 42.7527 21.8879 43.309 21.3718C43.5937 21.1027 43.9323 20.8893 44.3052 20.7437C44.678 20.5981 45.0778 20.5233 45.4815 20.5236ZM46.8946 22.0717C46.5186 21.7187 46.009 21.5204 45.4777 21.5204C44.9463 21.5204 44.4367 21.7187 44.0607 22.0717C43.6997 22.4182 43.4744 22.8846 43.4744 23.4079C43.4744 23.9309 43.6997 24.4045 44.0607 24.744C44.4367 25.097 44.9463 25.2953 45.4777 25.2953C46.009 25.2953 46.5186 25.097 46.8946 24.744C47.0834 24.5698 47.2332 24.3618 47.3351 24.1324C47.4371 23.9029 47.4892 23.6566 47.4883 23.4079C47.4883 22.8846 47.2628 22.4182 46.8946 22.0717ZM47.9316 42.2818C47.6384 42.2818 47.406 42.0557 47.406 41.78C47.406 41.5042 47.6387 41.2849 47.9316 41.2849H49.8561C50.5178 41.2849 51.1043 41.6456 51.3598 42.2181L53.8479 47.9158C53.9531 48.1561 53.9905 48.3966 53.9605 48.6369C53.9079 49.1247 53.5618 49.5768 53.1034 49.8032C52.8686 49.9165 52.6083 49.9747 52.3445 49.973H21.6597C21.3958 49.9748 21.1354 49.9165 20.9006 49.8032C20.4344 49.5768 20.0963 49.1247 20.0362 48.6369C20.0144 48.3916 20.0529 48.1448 20.1489 47.9158L22.6447 42.2181C22.9002 41.6456 23.4864 41.2849 24.1481 41.2849H26.0574C26.3507 41.2849 26.5836 41.5045 26.5836 41.78C26.5836 42.0555 26.3507 42.2818 26.0574 42.2818H24.1481C23.9151 42.2818 23.7119 42.3877 23.6219 42.5998L21.1338 48.2972C21.0972 48.3699 21.0816 48.4505 21.0886 48.5307C21.1112 48.6933 21.2315 48.8417 21.3819 48.9197C21.4645 48.9551 21.5545 48.9764 21.66 48.9764H52.345C52.4502 48.9764 52.5402 48.9551 52.6157 48.9197C52.7737 48.8417 52.8938 48.6936 52.9089 48.5307C52.9164 48.4528 52.9089 48.3754 52.8712 48.2972L50.3831 42.5998C50.2928 42.3875 50.0898 42.2818 49.8569 42.2818H47.9316Z" fill="white"/>
<path d="M44.948 35.4532C44.948 35.1774 45.1884 34.9511 45.4816 34.9511C45.7749 34.9511 46.0078 35.1774 46.0078 35.4532V47.4067C46.0078 47.6825 45.7746 47.9086 45.4816 47.9086H28.5228C28.2295 47.9086 27.9966 47.6825 27.9966 47.4067V25.5568C27.9966 25.1327 28.1921 24.7508 28.5079 24.4752C28.8274 24.1928 29.2496 24.0359 29.6881 24.0369H38.0545C38.3477 24.0369 38.5807 24.2629 38.5807 24.5389C38.5807 24.8147 38.3475 25.0408 38.0545 25.0408H29.6881C29.5 25.0408 29.3422 25.0975 29.2222 25.2034C29.1701 25.2484 29.1286 25.303 29.1001 25.3638C29.0716 25.4246 29.0568 25.4904 29.0567 25.5568V46.9117H44.9482L44.948 35.4532Z" fill="white"/>
</g>
<defs>
<clipPath id="clip0_1599_217">
<rect width="34" height="31.9728" fill="white" transform="translate(20 18)"/>
</clipPath>
</defs>
</svg>
