<svg width="35" height="36" viewBox="0 0 35 36" fill="none" xmlns="http://www.w3.org/2000/svg">
<path fill-rule="evenodd" clip-rule="evenodd" d="M3.74571 34.1554H1.44263C1.03383 34.1554 0.700439 33.822 0.700439 33.4132V23.9214C0.700439 23.5126 1.03383 23.1792 1.44263 23.1792H3.74571V34.1554ZM9.36756 17.6913C9.36756 20.4606 6.87989 21.7151 4.93069 23.1792H4.93143C4.93774 30.5083 4.93774 34.167 4.93143 34.1554H4.93076C7.31734 36.4412 9.62383 36.0224 13.6063 35.3319H17.0917C17.9651 35.3319 18.6796 34.6174 18.6796 33.7441C18.6796 32.8707 17.9652 32.1561 17.0917 32.1561H18.0388C18.9122 32.156 19.6267 31.4415 19.6267 30.5681C19.6267 29.6947 18.9122 28.9802 18.0388 28.9802H19.1531C20.0266 28.9802 20.7411 28.2657 20.7411 27.3923C20.741 26.5189 20.0265 25.8043 19.1531 25.8043H18.4841C19.3576 25.8043 20.0721 25.0898 20.0721 24.2163C20.0721 23.3429 19.3572 22.6284 18.4841 22.6284H12.5665C13.0452 22.0347 13.3008 21.3992 13.364 20.94V18.3552C13.364 16.157 11.5655 14.3591 9.36741 14.3591V17.6913H9.36756ZM29.1699 14.9001L30.3922 18.1192C30.4092 18.1659 30.4398 18.2064 30.48 18.2356C30.5202 18.2648 30.5682 18.2814 30.6178 18.2832L34.0571 18.4508C34.291 18.4622 34.3868 18.7569 34.2042 18.9036L31.5202 21.0608C31.4811 21.0915 31.4521 21.1331 31.4367 21.1803C31.4214 21.2276 31.4204 21.2783 31.4341 21.3261L32.3374 24.6489C32.3989 24.8749 32.1483 25.057 31.9523 24.9287L29.0713 23.0427C29.0301 23.015 28.9815 23.0002 28.9318 23.0002C28.8822 23.0002 28.8336 23.015 28.7924 23.0427L25.9114 24.9287C25.7155 25.0569 25.4649 24.8749 25.5263 24.6489L26.4296 21.3261C26.4432 21.2783 26.4423 21.2276 26.427 21.1803C26.4116 21.1331 26.3825 21.0915 26.3435 21.0608L23.6596 18.9037C23.4771 18.7569 23.5728 18.4623 23.8067 18.4509L27.246 18.2833C27.2956 18.2815 27.3436 18.2649 27.3838 18.2357C27.424 18.2065 27.4545 18.166 27.4716 18.1193L28.6938 14.9001C28.7765 14.6824 29.0873 14.6824 29.1699 14.9001ZM25.1352 5.41596L24.584 8.81495C24.5755 8.86389 24.5817 8.91427 24.6019 8.95965C24.6221 9.00504 24.6554 9.04337 24.6975 9.06974L27.5922 10.9346C27.7891 11.0613 27.7247 11.3644 27.4932 11.4002L24.0903 11.9264C24.0411 11.9334 23.9951 11.9549 23.9582 11.9881C23.9213 12.0214 23.8951 12.0649 23.883 12.1131L23.004 15.4423C22.9442 15.6688 22.6361 15.7011 22.5306 15.4921L20.9785 12.4183C20.9567 12.3737 20.922 12.3366 20.879 12.3118C20.836 12.287 20.7865 12.2755 20.737 12.2789L17.299 12.4717C17.0652 12.4848 16.9392 12.2018 17.1054 12.0368L19.5491 9.6108C19.5848 9.57623 19.6094 9.53182 19.6197 9.48322C19.63 9.43463 19.6256 9.38406 19.6071 9.33797L18.3612 6.12794C18.2765 5.90958 18.5068 5.70229 18.715 5.80939L21.7774 7.38386C21.8213 7.40713 21.8711 7.41678 21.9205 7.41158C21.97 7.40638 22.0167 7.38658 22.0548 7.3547L24.7229 5.17794C24.9032 5.03069 25.1724 5.18617 25.1352 5.41596ZM10.2054 0.416803L11.4276 3.63597C11.4447 3.68261 11.4753 3.72312 11.5155 3.75232C11.5557 3.78152 11.6036 3.79809 11.6533 3.79992L15.0926 3.96758C15.3264 3.97893 15.4222 4.27365 15.2397 4.42038L12.5557 6.57755C12.5166 6.6082 12.4875 6.6498 12.4722 6.69705C12.4568 6.74429 12.4559 6.79504 12.4695 6.84281L13.3729 10.1656C13.4344 10.3916 13.1837 10.5736 12.9878 10.4454L10.1068 8.55942C10.0656 8.53169 10.017 8.51688 9.96732 8.51688C9.91764 8.51688 9.86909 8.53169 9.82786 8.55942L6.94691 10.4454C6.75097 10.5736 6.50034 10.3916 6.56179 10.1656L7.46511 6.84281C7.47873 6.79504 7.4778 6.74429 7.46246 6.69705C7.44711 6.6498 7.41803 6.6082 7.37894 6.57755L4.69504 4.42031C4.51246 4.27358 4.60828 3.97893 4.84214 3.9675L8.28144 3.79984C8.33108 3.79804 8.37906 3.78147 8.41925 3.75227C8.45944 3.72307 8.49001 3.68255 8.50706 3.63589L9.7293 0.416803C9.81198 0.199119 10.1228 0.199119 10.2054 0.416803Z" fill="white"/>
</svg>
