<svg width="35" height="35" viewBox="0 0 35 35" fill="none" xmlns="http://www.w3.org/2000/svg">
<g clip-path="url(#clip0_1090_2871)">
<path d="M18.4983 0.978027C16.3009 0.978027 14.4475 2.83136 14.4475 5.0288C14.4475 7.22625 16.3009 9.07957 18.4983 9.07957C20.6958 9.07957 22.4827 7.22625 22.4827 5.0288C22.4827 2.83136 20.6958 0.978027 18.4983 0.978027ZM22.9204 9.07957C21.8257 10.2934 20.2578 11.0718 18.4983 11.0718C16.7388 11.0718 15.1045 10.2934 14.0098 9.07957C13.0541 10.1393 12.4554 11.5277 12.4554 13.0639V14.06C12.4554 14.6106 12.9009 15.0561 13.4515 15.0561H23.4788C24.0293 15.0561 24.4749 14.6106 24.4749 14.06V13.0639C24.4749 11.5277 23.8762 10.1393 22.9204 9.07957ZM10.1256 31.5517L5.04948 21.3746C4.55934 20.3919 3.36642 19.9911 2.38248 20.4786L1.05575 21.1358C0.561758 21.3808 0.360746 21.9812 0.607312 22.4743L6.58386 34.4274C6.82963 34.9203 7.42749 35.1165 7.9175 34.8748L9.22716 34.226C10.215 33.7367 10.6176 32.5381 10.1256 31.5517ZM33.6855 17.4268C32.8686 16.8292 31.7331 16.9487 31.0558 17.6858L25.6105 24.3795C25.232 24.778 24.5148 25.017 24.1363 25.017H19.4944C18.9365 25.017 18.4983 24.5788 18.4983 24.021C18.4983 23.4631 18.9365 23.0249 19.4944 23.0249H23.4788C24.5745 23.0249 25.471 22.1284 25.471 21.0327C25.471 19.937 24.5745 19.0405 23.4788 19.0405H18.2593C17.7628 19.0405 17.5152 18.7257 17.1237 18.383C15.5825 16.9961 13.2755 16.3279 10.94 16.8693C9.64326 17.1698 8.76876 17.6937 7.88184 18.3962L7.85229 18.3722L6.41154 19.6401L12.0736 30.9936H23.4788C25.3514 30.9936 27.1445 30.0971 28.2601 28.603L34.1038 20.2358C34.7612 19.3592 34.5819 18.0843 33.6855 17.4268Z" fill="white"/>
</g>
<defs>
<clipPath id="clip0_1090_2871">
<rect width="34" height="34" fill="white" transform="translate(0.5 0.978027)"/>
</clipPath>
</defs>
</svg>
