<svg width="32" height="31" viewBox="0 0 32 31" fill="none" xmlns="http://www.w3.org/2000/svg">
<path d="M7.74436 6.28567L20.1026 2.9124L19.4481 1.58955C19.0199 0.729692 17.9756 0.374611 17.1157 0.802797L6.0525 6.28567H7.74436ZM23.9389 3.00987C23.7857 3.00987 23.6325 3.03076 23.4793 3.07253L20.5761 3.86624L11.7094 6.28567H26.1599L25.6168 4.29443C25.4079 3.51813 24.7047 3.00987 23.9389 3.00987ZM27.9736 7.50409H2.24408C1.69405 7.50409 1.2032 7.75821 0.882931 8.15855C0.736721 8.34306 0.625323 8.55541 0.562661 8.78865C0.524368 8.93486 0.5 9.08803 0.5 9.24468V28.6384C0.5 29.5992 1.27979 30.379 2.2406 30.379H27.9701C28.9309 30.379 29.7107 29.5992 29.7107 28.6384V23.7821H19.382C17.7493 23.7821 16.423 22.4558 16.423 20.8231V16.952C16.423 16.1514 16.7432 15.4238 17.2619 14.8912C17.7214 14.4177 18.3376 14.0975 19.0269 14.0174C19.1418 14.0035 19.2601 13.9965 19.3785 13.9965H29.7107V9.24468C29.7141 8.28387 28.9344 7.50409 27.9736 7.50409Z" fill="white"/>
<path d="M34.5087 15.6605C34.3347 15.5003 34.1293 15.3785 33.8995 15.2984C33.7219 15.2393 33.534 15.2045 33.3356 15.2045H22.9581C21.9973 15.2045 21.2175 15.9842 21.2175 16.9451V20.8196C21.2175 21.7804 21.9973 22.5602 22.9581 22.5602H33.3356C33.534 22.5602 33.722 22.5254 33.8995 22.4662C34.1293 22.3896 34.3347 22.2643 34.5087 22.1042C34.8568 21.7874 35.0761 21.3278 35.0761 20.8196V16.9451C35.0761 16.4368 34.8568 15.9772 34.5087 15.6605ZM26.5925 19.2287C26.5925 19.7091 26.2026 20.099 25.7222 20.099H25.1443C24.6639 20.099 24.274 19.7091 24.274 19.2287V18.6508C24.274 18.3723 24.4028 18.1251 24.6082 17.9685C24.7579 17.8536 24.9424 17.7805 25.1443 17.7805H25.7222C26.2026 17.7805 26.5925 18.1704 26.5925 18.6508V19.2287Z" fill="white"/>
</svg>
