<svg width="32" height="40" viewBox="0 0 32 40" fill="none" xmlns="http://www.w3.org/2000/svg">
<path d="M11.9375 33.4375C11.937 32.4356 12.1304 31.4431 12.5069 30.5146H1.35376V39.6109H14.9706C14.0269 38.8821 13.2628 37.9467 12.737 36.8765C12.2112 35.8063 11.9377 34.6298 11.9375 33.4375Z" fill="#0071DC"/>
<path d="M15.0125 17.5H5.6875C5.52174 17.5 5.36277 17.5658 5.24556 17.6831C5.12835 17.8003 5.0625 17.9592 5.0625 18.125C5.0625 18.2908 5.12835 18.4497 5.24556 18.5669C5.36277 18.6842 5.52174 18.75 5.6875 18.75H14.75C14.7499 18.3196 14.8393 17.894 15.0125 17.5ZM27.5625 20H20.0625C19.8983 20 19.7358 20.0323 19.5841 20.0951C19.4324 20.1579 19.2946 20.2499 19.1785 20.366C19.0624 20.4821 18.9704 20.6199 18.9076 20.7716C18.8448 20.9233 18.8125 21.0858 18.8125 21.25V23.125C18.8125 23.2892 18.8448 23.4517 18.9076 23.6034C18.9704 23.7551 19.0624 23.8929 19.1785 24.009C19.2946 24.1251 19.4324 24.2171 19.5841 24.2799C19.7358 24.3427 19.8983 24.375 20.0625 24.375H27.5625C27.7267 24.375 27.8892 24.3427 28.0409 24.2799C28.1926 24.2171 28.3304 24.1251 28.4465 24.009C28.5626 23.8929 28.6546 23.7551 28.7174 23.6034C28.7802 23.4517 28.8125 23.2892 28.8125 23.125V21.25C28.8125 21.0858 28.7802 20.9233 28.7174 20.7716C28.6546 20.6199 28.5626 20.4821 28.4465 20.366C28.3304 20.2499 28.1926 20.1579 28.0409 20.0951C27.8892 20.0323 27.7267 20 27.5625 20ZM27.5625 23.125H20.0625V21.25H27.5625V23.125Z" fill="#29323B"/>
<path d="M6.86656 10.625H9.51969C9.68545 10.625 9.84442 10.5591 9.96163 10.4419C10.0788 10.3247 10.1447 10.1657 10.1447 9.99998C10.1447 9.83422 10.0788 9.67525 9.96163 9.55804C9.84442 9.44083 9.68545 9.37498 9.51969 9.37498H6.86656C6.3907 9.37307 5.93351 9.55999 5.5953 9.89475C5.25709 10.2295 5.06548 10.6847 5.0625 11.1606V12.9019C5.06548 13.3777 5.25709 13.833 5.5953 14.1677C5.93351 14.5025 6.3907 14.6894 6.86656 14.6875H9.225C9.46829 14.6878 9.70178 14.5916 9.87425 14.42C10.0467 14.2484 10.1441 14.0155 10.145 13.7722V12.1222C10.145 11.9564 10.0792 11.7974 9.96194 11.6802C9.84473 11.563 9.68576 11.4972 9.52 11.4972H7.86156C7.6958 11.4972 7.53683 11.563 7.41962 11.6802C7.30241 11.7974 7.23656 11.9564 7.23656 12.1222C7.23656 12.2879 7.30241 12.4469 7.41962 12.5641C7.53683 12.6813 7.6958 12.7472 7.86156 12.7472H8.895V13.4375H6.86687C6.72237 13.4398 6.58285 13.3847 6.47891 13.2843C6.37498 13.1839 6.31513 13.0464 6.3125 12.9019V11.1606C6.31513 11.0162 6.37494 10.8787 6.4788 10.7783C6.58267 10.6778 6.72211 10.6227 6.86656 10.625ZM15.8197 13.2162V12.8775C15.8145 12.6788 15.7702 12.483 15.6892 12.3014C15.6083 12.1199 15.4923 11.9561 15.3479 11.8194C15.2036 11.6827 15.0337 11.5759 14.8479 11.505C14.6622 11.4341 14.4643 11.4005 14.2656 11.4062H13.3697C13.3022 11.4062 13.265 11.3672 13.265 11.354V10.6772C13.265 10.664 13.3025 10.625 13.3697 10.625H14.9294C15.0951 10.625 15.2541 10.5591 15.3713 10.4419C15.4885 10.3247 15.5544 10.1657 15.5544 9.99998C15.5544 9.83422 15.4885 9.67525 15.3713 9.55804C15.2541 9.44083 15.0951 9.37498 14.9294 9.37498H13.3697C13.0175 9.36853 12.6771 9.50198 12.4232 9.74608C12.1693 9.99018 12.0225 10.325 12.015 10.6772V11.354C12.0225 11.7062 12.1693 12.041 12.4232 12.2851C12.6771 12.5292 13.0175 12.6627 13.3697 12.6562H14.2822C14.3493 12.6495 14.4164 12.6686 14.4699 12.7098C14.5233 12.7509 14.559 12.8109 14.5697 12.8775V13.2162C14.559 13.2828 14.5233 13.3428 14.4699 13.3839C14.4164 13.4251 14.3493 13.4442 14.2822 13.4375H12.9053C12.7396 13.4375 12.5806 13.5033 12.4634 13.6205C12.3462 13.7377 12.2803 13.8967 12.2803 14.0625C12.2803 14.2282 12.3462 14.3872 12.4634 14.5044C12.5806 14.6216 12.7396 14.6875 12.9053 14.6875H14.2822C14.681 14.6956 15.0668 14.5453 15.3549 14.2696C15.6431 13.9938 15.8103 13.615 15.8197 13.2162ZM19.0906 14.6875C19.2564 14.6875 19.4154 14.6216 19.5326 14.5044C19.6498 14.3872 19.7156 14.2282 19.7156 14.0625V10.625H20.6875C20.8533 10.625 21.0122 10.5591 21.1294 10.4419C21.2467 10.3247 21.3125 10.1657 21.3125 9.99998C21.3125 9.83422 21.2467 9.67525 21.1294 9.55804C21.0122 9.44083 20.8533 9.37498 20.6875 9.37498H17.4937C17.328 9.37498 17.169 9.44083 17.0518 9.55804C16.9346 9.67525 16.8687 9.83422 16.8687 9.99998C16.8687 10.1657 16.9346 10.3247 17.0518 10.4419C17.169 10.5591 17.328 10.625 17.4937 10.625H18.4656V14.0625C18.4656 14.2282 18.5315 14.3872 18.6487 14.5044C18.7659 14.6216 18.9249 14.6875 19.0906 14.6875Z" fill="#29323B"/>
<path d="M25.8156 7.05932C25.8156 7.05932 18.9438 0.184321 18.9406 0.184321C18.8735 0.122219 18.7948 0.0739679 18.709 0.0423301C18.6232 0.0106923 18.532 -0.00371075 18.4406 -5.42441e-05H2.16875C1.69335 0.00101881 1.23772 0.190347 0.901563 0.526508C0.565402 0.862669 0.376073 1.31829 0.375 1.7937V25.6312C0.74363 25.3501 1.17089 25.1557 1.625 25.0624V1.7937C1.62508 1.64951 1.6824 1.51125 1.78435 1.4093C1.88631 1.30734 2.02456 1.25003 2.16875 1.24995H17.875V6.37807C17.8806 6.84614 18.0716 7.29289 18.4061 7.62036C18.7406 7.94782 19.1913 8.12928 19.6594 8.12495H24.75V15.6249H26V7.78745C26.0088 7.53217 25.9449 7.27964 25.8156 7.05932ZM19.6594 6.87495C19.5227 6.87959 19.3898 6.82993 19.2896 6.73681C19.1895 6.6437 19.1303 6.51471 19.125 6.37807V2.13432L23.8656 6.87495H19.6594Z" fill="#29323B"/>
<path d="M23.8656 6.8749H19.6594C19.5227 6.87955 19.3898 6.82988 19.2896 6.73677C19.1895 6.64365 19.1303 6.51467 19.125 6.37803V2.13428L23.8656 6.8749Z" fill="#0071DC"/>
<path d="M3.5 35.625C3.33424 35.625 3.17527 35.6908 3.05806 35.8081C2.94085 35.9253 2.875 36.0842 2.875 36.25C2.875 36.4158 2.94085 36.5747 3.05806 36.6919C3.17527 36.8092 3.33424 36.875 3.5 36.875H5.375C5.54076 36.875 5.69973 36.8092 5.81694 36.6919C5.93415 36.5747 6 36.4158 6 36.25C6 36.0842 5.93415 35.9253 5.81694 35.8081C5.69973 35.6908 5.54076 35.625 5.375 35.625H3.5ZM28.5 26.25H27.875C27.7092 26.25 27.5503 26.3158 27.4331 26.4331C27.3158 26.5503 27.25 26.7092 27.25 26.875C27.25 27.0408 27.3158 27.1997 27.4331 27.3169C27.5503 27.4342 27.7092 27.5 27.875 27.5H28.5C28.6658 27.5 28.8247 27.4342 28.9419 27.3169C29.0592 27.1997 29.125 27.0408 29.125 26.875C29.125 26.7092 29.0592 26.5503 28.9419 26.4331C28.8247 26.3158 28.6658 26.25 28.5 26.25ZM28.5 28.75H27.875C27.7092 28.75 27.5503 28.8158 27.4331 28.9331C27.3158 29.0503 27.25 29.2092 27.25 29.375C27.25 29.5408 27.3158 29.6997 27.4331 29.8169C27.5503 29.9342 27.7092 30 27.875 30H28.5C28.6658 30 28.8247 29.9342 28.9419 29.8169C29.0592 29.6997 29.125 29.5408 29.125 29.375C29.125 29.2092 29.0592 29.0503 28.9419 28.9331C28.8247 28.8158 28.6658 28.75 28.5 28.75ZM28.5 36.25H27.875C27.7092 36.25 27.5503 36.3158 27.4331 36.4331C27.3158 36.5503 27.25 36.7092 27.25 36.875C27.25 37.0408 27.3158 37.1997 27.4331 37.3169C27.5503 37.4342 27.7092 37.5 27.875 37.5H28.5C28.6658 37.5 28.8247 37.4342 28.9419 37.3169C29.0592 37.1997 29.125 37.0408 29.125 36.875C29.125 36.7092 29.0592 36.5503 28.9419 36.4331C28.8247 36.3158 28.6658 36.25 28.5 36.25Z" fill="#29323B"/>
<path d="M14.0288 38.75H2.25C2.08432 38.7498 1.92549 38.6838 1.80833 38.5667C1.69118 38.4495 1.62525 38.2907 1.625 38.125V31.25H12.2516C12.3769 30.8201 12.5391 30.4019 12.7366 30H1.625V28.125C1.62525 27.9593 1.69118 27.8005 1.80833 27.6833C1.92549 27.5662 2.08432 27.5002 2.25 27.5H14.6809C15.2833 26.9839 15.9606 26.5625 16.6897 26.25H2.25C1.7529 26.2506 1.27632 26.4483 0.924814 26.7998C0.573309 27.1513 0.375579 27.6279 0.375 28.125V38.125C0.375579 38.6221 0.573309 39.0987 0.924814 39.4502C1.27632 39.8017 1.7529 39.9994 2.25 40H15.5191C14.9725 39.6466 14.4719 39.2267 14.0288 38.75Z" fill="#29323B"/>
<path d="M19.75 26.875C18.4521 26.875 17.1833 27.2599 16.1041 27.981C15.0249 28.7021 14.1837 29.727 13.687 30.9261C13.1903 32.1253 13.0604 33.4448 13.3136 34.7178C13.5668 35.9908 14.1918 37.1601 15.1096 38.0779C16.0274 38.9957 17.1967 39.6207 18.4697 39.8739C19.7427 40.1271 21.0622 39.9972 22.2614 39.5005C23.4605 39.0038 24.4854 38.1626 25.2065 37.0834C25.9276 36.0042 26.3125 34.7354 26.3125 33.4375C26.3106 31.6976 25.6186 30.0295 24.3883 28.7992C23.158 27.5689 21.4899 26.8769 19.75 26.875ZM19.75 38.75C18.6993 38.75 17.6722 38.4384 16.7985 37.8547C15.9249 37.2709 15.244 36.4412 14.8419 35.4705C14.4398 34.4998 14.3346 33.4316 14.5396 32.4011C14.7446 31.3706 15.2505 30.424 15.9935 29.681C16.7365 28.938 17.6831 28.4321 18.7136 28.2271C19.7441 28.0221 20.8123 28.1273 21.783 28.5294C22.7537 28.9315 23.5834 29.6124 24.1672 30.486C24.7509 31.3597 25.0625 32.3868 25.0625 33.4375C25.0605 34.8459 24.5002 36.196 23.5043 37.1918C22.5085 38.1877 21.1584 38.748 19.75 38.75Z" fill="#29323B"/>
<path d="M19.9603 32.9037C19.55 32.7812 19.2934 32.6944 19.1897 32.5153C19.1502 32.4514 19.1281 32.3782 19.1257 32.3031C19.1233 32.228 19.1406 32.1535 19.1759 32.0872C19.3113 31.8703 19.6816 31.8319 19.965 31.8872C20.0601 31.9088 20.1496 31.9503 20.2275 32.0091C20.2938 32.0574 20.3691 32.0923 20.4489 32.1116C20.5287 32.1309 20.6115 32.1343 20.6926 32.1216C20.7737 32.1089 20.8516 32.0804 20.9216 32.0376C20.9917 31.9948 21.0527 31.9387 21.1011 31.8723C21.1495 31.806 21.1843 31.7308 21.2036 31.651C21.2229 31.5712 21.2264 31.4884 21.2137 31.4072C21.201 31.3261 21.1724 31.2483 21.1296 31.1782C21.0869 31.1081 21.0307 31.0471 20.9644 30.9987C20.7802 30.8645 20.5741 30.7632 20.3553 30.6994V30.3125C20.3553 30.1467 20.2895 29.9878 20.1723 29.8706C20.055 29.7533 19.8961 29.6875 19.7303 29.6875C19.5646 29.6875 19.4056 29.7533 19.2884 29.8706C19.1712 29.9878 19.1053 30.1467 19.1053 30.3125V30.7022C18.8567 30.765 18.6263 30.8854 18.4327 31.0536C18.2391 31.2217 18.0877 31.433 17.9907 31.6704C17.8937 31.9078 17.8538 32.1647 17.8743 32.4203C17.8947 32.676 17.9749 32.9232 18.1084 33.1422C18.4681 33.7638 19.0978 33.9513 19.6034 34.1016C20.1294 34.2581 20.3028 34.3387 20.3628 34.535C20.4206 34.7241 20.2347 34.8638 20.1294 34.9113C19.9711 34.9715 19.7994 34.9874 19.6327 34.9575C19.466 34.9275 19.3106 34.8528 19.1831 34.7412C19.0569 34.6338 18.8931 34.581 18.7279 34.5943C18.5626 34.6076 18.4094 34.6861 18.302 34.8123C18.1946 34.9386 18.1418 35.1024 18.1551 35.2676C18.1684 35.4329 18.2469 35.586 18.3731 35.6934C18.5891 35.8749 18.8377 36.0134 19.1056 36.1016V36.5625C19.1056 36.7283 19.1715 36.8872 19.2887 37.0044C19.4059 37.1217 19.5649 37.1875 19.7306 37.1875C19.8964 37.1875 20.0554 37.1217 20.1726 37.0044C20.2898 36.8872 20.3556 36.7283 20.3556 36.5625V36.15C20.4524 36.1251 20.547 36.0927 20.6388 36.0531C20.9974 35.9079 21.2897 35.6352 21.4595 35.2875C21.6293 34.9397 21.6645 34.5415 21.5584 34.1694C21.2916 33.3003 20.5222 33.0709 19.9603 32.9037ZM14.75 20H5.6875C5.52174 20 5.36277 20.0658 5.24556 20.1831C5.12835 20.3003 5.0625 20.4592 5.0625 20.625C5.0625 20.7908 5.12835 20.9497 5.24556 21.0669C5.36277 21.1842 5.52174 21.25 5.6875 21.25H14.75V20ZM5.0625 23.125C5.0625 23.2908 5.12835 23.4497 5.24556 23.5669C5.36277 23.6842 5.52174 23.75 5.6875 23.75H14.75V22.5H5.6875C5.52174 22.5 5.36277 22.5658 5.24556 22.6831C5.12835 22.8003 5.0625 22.9592 5.0625 23.125ZM24.75 26.25C24.659 26.2483 24.5687 26.2669 24.4858 26.3043C24.4028 26.3418 24.3293 26.3973 24.2704 26.4667C24.2115 26.5361 24.1688 26.6178 24.1454 26.7058C24.122 26.7937 24.1184 26.8858 24.135 26.9753C24.3726 27.1376 24.601 27.3127 24.8194 27.5H25.375C25.5408 27.5 25.6997 27.4342 25.8169 27.3169C25.9342 27.1997 26 27.0408 26 26.875C26 26.7092 25.9342 26.5503 25.8169 26.4331C25.6997 26.3158 25.5408 26.25 25.375 26.25H24.75ZM28.5 31.25H27.875C27.7649 31.2502 27.6569 31.2797 27.5619 31.3353C27.467 31.3909 27.3884 31.4707 27.3344 31.5666C27.3989 31.8285 27.4497 32.0937 27.4866 32.3609C27.5963 32.4503 27.7334 32.4994 27.875 32.5H28.5C28.6658 32.5 28.8247 32.4342 28.9419 32.3169C29.0592 32.1997 29.125 32.0408 29.125 31.875C29.125 31.7092 29.0592 31.5503 28.9419 31.4331C28.8247 31.3158 28.6658 31.25 28.5 31.25ZM28.5 33.75H27.875C27.7609 33.7505 27.6492 33.7825 27.5522 33.8425C27.5346 34.1706 27.4963 34.4973 27.4375 34.8206C27.5541 34.9356 27.7113 35.0001 27.875 35H28.5C28.6658 35 28.8247 34.9342 28.9419 34.8169C29.0592 34.6997 29.125 34.5408 29.125 34.375C29.125 34.2092 29.0592 34.0503 28.9419 33.9331C28.8247 33.8158 28.6658 33.75 28.5 33.75Z" fill="#29323B"/>
<path d="M29.75 16.875H17.875C17.3779 16.8756 16.9013 17.0733 16.5498 17.4248C16.1983 17.7763 16.0006 18.2529 16 18.75V25H17.25V18.75C17.2502 18.5843 17.3162 18.4255 17.4333 18.3083C17.5505 18.1912 17.7093 18.1252 17.875 18.125H29.75C29.9157 18.1252 30.0745 18.1912 30.1917 18.3083C30.3088 18.4255 30.3748 18.5843 30.375 18.75V38.125C30.3748 38.2907 30.3088 38.4495 30.1917 38.5667C30.0745 38.6838 29.9157 38.7498 29.75 38.75H25.4712C25.028 39.2267 24.5273 39.6466 23.9806 40H29.75C30.2471 39.9994 30.7237 39.8017 31.0752 39.4502C31.4267 39.0987 31.6244 38.6221 31.625 38.125V18.75C31.6244 18.2529 31.4267 17.7763 31.0752 17.4248C30.7237 17.0733 30.2471 16.8756 29.75 16.875Z" fill="#29323B"/>
</svg>
