<svg width="40" height="40" viewBox="0 0 40 40" fill="none" xmlns="http://www.w3.org/2000/svg">
<g clip-path="url(#clip0_1655_578)">
<path d="M30.3125 14.684H39.0622V20.9337H30.3125V14.684Z" fill="#E6E9ED"/>
<path d="M19.6936 16.5642L18.4435 17.1831L16.5686 15.3081L17.1252 14.5476L19.6936 16.5642ZM19.7193 16.5642L20.9687 17.1831L22.8436 15.3081L22.2883 14.5476L19.7193 16.5642Z" fill="#E6E9ED"/>
<path d="M22.1624 5.95204C22.1624 5.95204 23.7139 5.65113 23.5186 8.87559L24.057 9.68309C24.6942 5.59618 22.1624 5.95204 22.1624 5.95204Z" fill="#232B32"/>
<g opacity="0.2">
<path d="M21.5398 4.07035C19.2748 4.0093 14.8241 4.53426 15.3062 9.68315L15.3123 9.67706L15.9032 8.79083C15.9862 4.87113 19.3334 4.12891 21.5398 4.07035Z" fill="white"/>
</g>
<path d="M24.0753 10.3142C24.0753 13.283 21.369 16.021 19.6997 16.021C18.0383 16.021 15.3247 13.283 15.3247 10.3142V9.68313L15.3125 9.67703L16.5564 7.80811C16.5564 7.80811 18.081 8.43314 19.6997 8.43314C21.3251 8.43314 22.807 7.80811 22.807 7.80811L24.057 9.68313H24.0753V10.3142Z" fill="#E6E9ED"/>
<path d="M24.0571 9.68313L22.807 7.80811C22.807 7.80811 22.3969 7.979 21.7792 8.14138L22.807 9.68313H22.8253V10.3142C22.8253 12.9345 20.7185 15.3715 19.0759 15.9087C19.2944 15.9801 19.5044 16.021 19.6997 16.021C21.369 16.021 24.0753 13.2831 24.0753 10.3143V9.68321L24.0571 9.68313Z" fill="#232B32"/>
<g opacity="0.3">
<path d="M16.5747 10.3142V9.68313L16.5625 9.67703L17.5879 8.1377C16.9677 7.97658 16.5564 7.80811 16.5564 7.80811L15.3125 9.67703L15.3247 9.68313V10.3142C15.3247 13.283 18.0383 16.021 19.6997 16.021C19.8962 16.021 20.1073 15.9801 20.3266 15.9086C18.6877 15.3716 16.5747 12.9345 16.5747 10.3142Z" fill="white"/>
</g>
<path d="M27.182 22.1828H12.1814V18.8519C12.1814 17.8082 12.7063 17.4152 13.7439 17.0269C14.2566 16.8334 15.1757 16.4898 15.9314 16.1272L16.6626 15.4022L18.4435 17.1832L19.6935 16.5643L20.9442 17.1832L22.7191 15.4083L23.432 16.1212C24.1936 16.4898 25.1067 16.8335 25.6194 17.0269C26.6631 17.4152 27.1819 17.8082 27.1819 18.8519V22.1828H27.182Z" fill="#0071DC"/>
<path d="M25.9441 18.8517C25.9441 17.808 25.4193 17.415 24.3817 17.0268C23.8703 16.8333 22.9511 16.4897 22.1942 16.1271L22.0906 16.0245L22.7131 15.402L23.4444 16.127C24.2012 16.4896 25.1204 16.8332 25.6318 17.0267C26.6693 17.4149 27.1943 17.8079 27.1943 18.8517V22.1826H25.9442V21.5576C25.9441 21.5579 25.9441 19.8894 25.9441 18.8517Z" fill="#232B32"/>
<path d="M19.1409 16.6462H20.2548V17.4958H19.1409V16.6462Z" fill="#E6E9ED"/>
<path d="M31.5626 26.5593H32.1877V34.6843H31.5626V26.5593ZM34.0628 25.3092H34.6877V35.9344H34.0628V25.3092ZM37.813 25.3092H38.4379V35.9344H37.813V25.3092ZM5.31274 25.3092H5.93778V35.9344H5.31274V25.3092Z" fill="#232B32"/>
<path d="M4.68728 25.3093H5.31224V35.9345H4.68728V25.3093ZM1.5625 24.6838H38.4376V25.3088H1.5625V24.6838Z" fill="#232B32"/>
<path d="M35.3126 17.8094C35.3126 17.8915 35.2965 17.9728 35.2651 18.0487C35.2337 18.1245 35.1876 18.1935 35.1296 18.2515C35.0715 18.3096 35.0026 18.3556 34.9267 18.387C34.8509 18.4184 34.7696 18.4345 34.6875 18.4344C34.6054 18.4345 34.5241 18.4183 34.4482 18.3869C34.3724 18.3555 34.3035 18.3095 34.2454 18.2515C34.1874 18.1934 34.1414 18.1245 34.11 18.0486C34.0786 17.9728 34.0624 17.8915 34.0625 17.8094C34.0625 17.7273 34.0786 17.646 34.11 17.5702C34.1414 17.4944 34.1874 17.4254 34.2455 17.3674C34.3035 17.3094 34.3724 17.2633 34.4482 17.2319C34.5241 17.2005 34.6054 17.1844 34.6875 17.1844C34.7696 17.1844 34.8509 17.2005 34.9267 17.2319C35.0026 17.2633 35.0715 17.3093 35.1296 17.3673C35.1876 17.4254 35.2337 17.4943 35.2651 17.5702C35.2965 17.646 35.3126 17.7273 35.3126 17.8094Z" fill="#E6E9ED"/>
<path d="M9.06251 18.4344H0.3125V20.9341H9.06251C9.06251 20.9341 8.43748 20.3094 8.43748 19.6845C8.43755 19.0593 9.06251 18.4344 9.06251 18.4344ZM1.56257 17.1843H7.81252V15.9343H1.56257C1.56257 15.9343 2.18752 15.9343 2.18752 16.5594C2.18752 17.1844 1.56257 17.1843 1.56257 17.1843Z" fill="#E6E9ED"/>
<path d="M0.3125 18.4341H0.937456V20.9338H0.3125V18.4341ZM7.18741 15.934H7.81244V17.184H7.18741V15.934Z" fill="#232B32"/>
<path d="M12.1875 21.8715C12.1464 21.8716 12.1058 21.8635 12.0678 21.8478C12.0299 21.8322 11.9954 21.8091 11.9664 21.7801C11.9373 21.7511 11.9143 21.7166 11.8986 21.6787C11.883 21.6407 11.8749 21.6001 11.875 21.559V18.8518C11.875 17.6335 12.5225 17.1531 13.6407 16.7351C14.0149 16.5953 15.0092 16.2237 15.8026 15.8446C15.8396 15.8267 15.8798 15.8164 15.9208 15.8141C15.9618 15.8118 16.0029 15.8177 16.0416 15.8314C16.0804 15.845 16.116 15.8662 16.1465 15.8937C16.1771 15.9212 16.2018 15.9545 16.2194 15.9916C16.2552 16.0664 16.2598 16.1524 16.2322 16.2306C16.2046 16.3087 16.1471 16.3728 16.0723 16.4085C15.3387 16.7589 14.458 17.0971 13.8592 17.321C12.7923 17.7196 12.4999 18.0486 12.4999 18.8518V21.559C12.5 21.6001 12.492 21.6407 12.4763 21.6787C12.4606 21.7166 12.4376 21.7511 12.4086 21.7801C12.3796 21.8092 12.3451 21.8322 12.3071 21.8479C12.2692 21.8635 12.2285 21.8716 12.1875 21.8715ZM27.1875 21.8715C27.1465 21.8716 27.1058 21.8635 27.0678 21.8479C27.0299 21.8322 26.9954 21.8092 26.9664 21.7801C26.9373 21.7511 26.9143 21.7166 26.8986 21.6787C26.8829 21.6407 26.8749 21.6001 26.875 21.559V18.8518C26.875 18.0486 26.5827 17.7196 25.5157 17.321C24.917 17.0971 24.0356 16.7583 23.3014 16.4068C23.2266 16.3709 23.1691 16.3069 23.1415 16.2287C23.1139 16.1505 23.1185 16.0646 23.1543 15.9898C23.2288 15.8335 23.4174 15.7683 23.5712 15.8428C24.2834 16.1839 25.1471 16.5154 25.7342 16.7351C26.8524 17.1532 27.5001 17.6335 27.5001 18.8518V21.559C27.5001 21.6001 27.4921 21.6407 27.4764 21.6787C27.4607 21.7166 27.4377 21.7511 27.4087 21.7801C27.3796 21.8092 27.3451 21.8322 27.3072 21.8478C27.2692 21.8635 27.2286 21.8716 27.1875 21.8715ZM19.7064 16.3322C17.9407 16.3322 15.0189 13.5216 15.0189 10.3185C15.0189 10.1458 15.1587 10.006 15.3314 10.006C15.5041 10.006 15.6439 10.1458 15.6439 10.3185C15.6439 13.0974 18.1781 15.7073 19.7064 15.7073C21.2346 15.7073 23.7689 13.0975 23.7689 10.3185C23.7689 10.1458 23.9087 10.006 24.0814 10.006C24.2541 10.006 24.3938 10.1458 24.3938 10.3185C24.3938 13.5216 21.4721 16.3322 19.7064 16.3322ZM15.3125 9.99685C15.2869 9.99685 15.2612 9.9938 15.2362 9.98707C15.1735 9.97149 15.1172 9.9368 15.0751 9.8878C15.033 9.83881 15.0072 9.77793 15.0012 9.71361C14.8358 7.94788 15.2184 6.54043 16.1389 5.53029C17.4762 4.0618 19.6447 3.75354 21.2279 3.75354C22.1728 3.75354 22.8411 3.86338 22.8692 3.86831C22.9361 3.87969 22.9976 3.9125 23.0442 3.9618C23.0909 4.01111 23.1203 4.07424 23.128 4.14169C23.1355 4.20918 23.1208 4.27725 23.0863 4.3357C23.0517 4.39414 22.9991 4.4398 22.9364 4.46582C22.6697 4.57511 22.4988 4.73077 22.4133 4.94193C22.3151 5.18545 22.3499 5.45704 22.3932 5.63466C22.7124 5.64748 23.3545 5.75005 23.8434 6.32068C24.4379 7.01584 24.6155 8.16333 24.3713 9.73253C24.3615 9.79468 24.3333 9.85244 24.2902 9.89828C24.2471 9.94412 24.1912 9.97591 24.1297 9.9895C24.0683 10.0031 24.0041 9.99774 23.9457 9.97421C23.8873 9.95067 23.8374 9.91003 23.8025 9.85761L22.691 8.19077C22.1936 8.37082 21.0017 8.74678 19.7064 8.74678C18.4069 8.74678 17.1881 8.3684 16.6846 8.1889L15.5725 9.85761C15.544 9.90046 15.5054 9.93559 15.46 9.95988C15.4146 9.98418 15.364 9.99687 15.3125 9.99685ZM22.8124 7.49679C22.9145 7.49679 23.0134 7.5469 23.0725 7.63594L23.8434 8.79259C23.8916 7.85625 23.7304 7.15077 23.3685 6.72712C23.0188 6.31942 22.5605 6.25837 22.3181 6.25837C22.2571 6.25837 22.218 6.26267 22.21 6.26321C22.1428 6.2722 22.0744 6.25915 22.0153 6.22603C21.9561 6.19291 21.9092 6.14149 21.8817 6.0795C21.8689 6.05018 21.5716 5.35807 21.8341 4.70802C21.8773 4.6001 21.9341 4.49816 22.0031 4.40469C21.7451 4.38717 21.4865 4.37841 21.2279 4.37842C19.7704 4.37842 17.7844 4.65126 16.6009 5.95066C15.9716 6.6416 15.6347 7.56324 15.5932 8.69971L16.3025 7.63587C16.3424 7.57577 16.402 7.53138 16.471 7.51024C16.54 7.48911 16.6142 7.49253 16.6809 7.51993C16.6956 7.52603 18.1678 8.12174 19.7064 8.12174C21.2439 8.12174 22.677 7.52728 22.691 7.5211C22.7295 7.50511 22.7708 7.49685 22.8124 7.49679Z" fill="#232B32"/>
<path d="M24.0815 10.631C24.0405 10.631 23.9998 10.6229 23.9619 10.6072C23.924 10.5915 23.8895 10.5685 23.8605 10.5395C23.8315 10.5105 23.8085 10.476 23.7927 10.4381C23.777 10.4002 23.769 10.3595 23.769 10.3185V9.68438C23.769 9.51161 23.9088 9.37183 24.0815 9.37183C24.2542 9.37183 24.3939 9.51161 24.3939 9.68438V10.3185C24.394 10.3595 24.3859 10.4002 24.3702 10.4381C24.3545 10.476 24.3315 10.5105 24.3025 10.5395C24.2735 10.5685 24.239 10.5915 24.2011 10.6072C24.1632 10.6229 24.1226 10.631 24.0815 10.631ZM15.3315 10.631C15.2905 10.631 15.2498 10.6229 15.2119 10.6072C15.174 10.5915 15.1395 10.5685 15.1105 10.5395C15.0815 10.5105 15.0585 10.476 15.0428 10.4381C15.0271 10.4002 15.019 10.3595 15.019 10.3185V9.68438C15.019 9.51161 15.1588 9.37183 15.3315 9.37183C15.5042 9.37183 15.644 9.51161 15.644 9.68438V10.3185C15.644 10.3595 15.636 10.4002 15.6203 10.4381C15.6046 10.476 15.5816 10.5105 15.5525 10.5395C15.5235 10.5685 15.4891 10.5915 15.4511 10.6072C15.4132 10.6229 15.3726 10.631 15.3315 10.631ZM18.4473 17.4968C18.3644 17.4968 18.285 17.4639 18.2264 17.4053L16.3514 15.5303C16.3224 15.5013 16.2994 15.4669 16.2837 15.4289C16.2679 15.391 16.2599 15.3504 16.2599 15.3093C16.2599 15.2683 16.2679 15.2277 16.2837 15.1897C16.2994 15.1518 16.3224 15.1174 16.3514 15.0884C16.3804 15.0594 16.4149 15.0363 16.4528 15.0206C16.4907 15.0049 16.5313 14.9968 16.5724 14.9968C16.6134 14.9968 16.654 15.0049 16.6919 15.0206C16.7298 15.0363 16.7643 15.0594 16.7933 15.0884L18.5096 16.8047L19.5674 16.2792C19.6417 16.2426 19.7275 16.237 19.8061 16.2634C19.8846 16.2898 19.9495 16.3462 19.9867 16.4202C20.0234 16.4945 20.0292 16.5804 20.0028 16.6589C19.9764 16.7375 19.9199 16.8024 19.8458 16.8395L18.5866 17.4645C18.5433 17.4858 18.4956 17.4969 18.4473 17.4968Z" fill="#232B32"/>
<path d="M20.9465 17.4967C20.8983 17.4968 20.8506 17.4857 20.8073 17.4644L19.5482 16.8393C19.474 16.8023 19.4176 16.7374 19.3911 16.6588C19.3647 16.5802 19.3705 16.4944 19.4072 16.4201C19.4443 16.3459 19.5092 16.2895 19.5878 16.263C19.6664 16.2366 19.7522 16.2424 19.8266 16.279L20.8843 16.8046L22.6006 15.0882C22.6296 15.0592 22.664 15.0362 22.7019 15.0205C22.7398 15.0048 22.7805 14.9967 22.8215 14.9967C22.8625 14.9967 22.9032 15.0048 22.9411 15.0205C22.979 15.0362 23.0134 15.0592 23.0424 15.0882C23.0714 15.1172 23.0945 15.1517 23.1102 15.1896C23.1259 15.2275 23.134 15.2682 23.134 15.3092C23.134 15.3502 23.1259 15.3909 23.1102 15.4288C23.0945 15.4667 23.0714 15.5012 23.0424 15.5302L21.1676 17.4051C21.1385 17.4342 21.1041 17.4572 21.0662 17.4729C21.0282 17.4887 20.9876 17.4967 20.9465 17.4967ZM19.7209 18.1218C19.6799 18.1218 19.6392 18.1138 19.6013 18.0981C19.5634 18.0824 19.529 18.0593 19.5 18.0302L18.875 17.4052C18.846 17.3762 18.8229 17.3417 18.8072 17.3038C18.7915 17.2659 18.7834 17.2253 18.7834 17.1843C18.7834 17.1432 18.7915 17.1026 18.8072 17.0647C18.8229 17.0268 18.846 16.9923 18.875 16.9633C18.904 16.9343 18.9384 16.9113 18.9764 16.8956C19.0143 16.8799 19.0549 16.8718 19.0959 16.8718C19.137 16.8718 19.1776 16.8799 19.2155 16.8956C19.2535 16.9113 19.2879 16.9343 19.3169 16.9633L19.942 17.5883C19.9857 17.632 20.0155 17.6877 20.0276 17.7483C20.0397 17.809 20.0335 17.8718 20.0099 17.9289C19.9862 17.9861 19.9461 18.0349 19.8947 18.0692C19.8432 18.1035 19.7828 18.1218 19.7209 18.1218Z" fill="#232B32"/>
<path d="M19.7211 18.1219C19.6592 18.1219 19.5988 18.1036 19.5474 18.0693C19.4959 18.0349 19.4559 17.9861 19.4322 17.929C19.4086 17.8719 19.4024 17.809 19.4145 17.7484C19.4266 17.6877 19.4564 17.6321 19.5001 17.5884L20.1251 16.9634C20.1541 16.9344 20.1885 16.9113 20.2264 16.8956C20.2643 16.8799 20.305 16.8718 20.346 16.8718C20.3871 16.8718 20.4277 16.8799 20.4656 16.8956C20.5035 16.9113 20.538 16.9344 20.567 16.9634C20.596 16.9924 20.619 17.0269 20.6347 17.0648C20.6505 17.1027 20.6586 17.1433 20.6586 17.1844C20.6586 17.2254 20.6505 17.266 20.6347 17.3039C20.619 17.3418 20.596 17.3763 20.567 17.4053L19.942 18.0303C19.913 18.0594 19.8786 18.0824 19.8407 18.0981C19.8028 18.1139 19.7621 18.1219 19.7211 18.1219Z" fill="#232B32"/>
<path d="M19.0968 21.8715C19.0882 21.8715 19.0803 21.8715 19.0724 21.8703C19.0315 21.8674 18.9916 21.8564 18.9549 21.8379C18.9183 21.8195 18.8857 21.794 18.859 21.7629C18.8323 21.7318 18.812 21.6958 18.7992 21.6568C18.7865 21.6178 18.7817 21.5767 18.7849 21.5358L19.0974 17.473C19.1102 17.3003 19.2775 17.1593 19.4325 17.1855C19.4735 17.1886 19.5134 17.1997 19.55 17.2182C19.5866 17.2367 19.6192 17.2622 19.6459 17.2933C19.6726 17.3245 19.6929 17.3606 19.7056 17.3996C19.7183 17.4386 19.7232 17.4797 19.72 17.5206L19.4074 21.5834C19.4014 21.6618 19.3661 21.7349 19.3085 21.7883C19.2509 21.8417 19.1753 21.8714 19.0968 21.8715Z" fill="#232B32"/>
<path d="M20.3454 21.8714C20.2668 21.8714 20.1912 21.8417 20.1336 21.7883C20.076 21.7349 20.0407 21.6617 20.0348 21.5834L19.7223 17.5205C19.7191 17.4796 19.724 17.4385 19.7367 17.3995C19.7494 17.3605 19.7697 17.3244 19.7964 17.2933C19.8232 17.2621 19.8558 17.2366 19.8924 17.2181C19.929 17.1996 19.9689 17.1885 20.0098 17.1854C20.1648 17.1568 20.3314 17.2996 20.3448 17.4729L20.6574 21.5358C20.6607 21.5766 20.6558 21.6177 20.6431 21.6567C20.6303 21.6957 20.61 21.7318 20.5833 21.7629C20.5566 21.794 20.5239 21.8195 20.4873 21.8379C20.4507 21.8563 20.4108 21.8673 20.3699 21.8702C20.3619 21.8714 20.3539 21.8714 20.3454 21.8714ZM39.6874 22.4966H0.312479C0.271417 22.4966 0.230744 22.4886 0.192795 22.4729C0.154846 22.4572 0.120366 22.4342 0.0913348 22.4052C0.0623032 22.3761 0.0392906 22.3416 0.0236173 22.3037C0.00794391 22.2657 -8.17653e-05 22.2251 6.28015e-07 22.184C6.27462e-05 22.1011 0.0330044 22.0217 0.0915919 21.9631C0.150179 21.9045 0.229623 21.8716 0.312479 21.8715H39.6874C39.7703 21.8716 39.8498 21.9045 39.9084 21.9631C39.967 22.0217 39.9999 22.1011 40 22.184C40.0001 22.2251 39.992 22.2657 39.9764 22.3037C39.9607 22.3417 39.9377 22.3761 39.9086 22.4052C39.8796 22.4342 39.8451 22.4572 39.8071 22.4729C39.7692 22.4886 39.7285 22.4966 39.6874 22.4966Z" fill="#232B32"/>
<path d="M0.312479 24.9966C0.271423 24.9967 0.230757 24.9886 0.192813 24.973C0.154869 24.9573 0.120393 24.9343 0.0913624 24.9052C0.0623318 24.8762 0.0393176 24.8417 0.0236396 24.8038C0.00796167 24.7658 -7.16096e-05 24.7252 4.80929e-07 24.6841V22.1841C6.25991e-05 22.1012 0.0330042 22.0218 0.0915918 21.9632C0.150179 21.9046 0.229623 21.8716 0.312479 21.8716C0.395334 21.8716 0.474778 21.9046 0.533365 21.9632C0.591953 22.0218 0.624894 22.1012 0.624956 22.1841V24.6841C0.625029 24.7252 0.616995 24.7658 0.601317 24.8038C0.585639 24.8417 0.562625 24.8762 0.533595 24.9052C0.504564 24.9343 0.470088 24.9573 0.432144 24.973C0.3942 24.9886 0.353534 24.9967 0.312479 24.9966Z" fill="#232B32"/>
<path d="M39.6874 24.9965H0.312479C0.271423 24.9966 0.230757 24.9886 0.192813 24.9729C0.154869 24.9572 0.120393 24.9342 0.0913624 24.9052C0.0623318 24.8761 0.0393176 24.8417 0.0236396 24.8037C0.00796167 24.7658 -7.16096e-05 24.7251 4.80929e-07 24.6841C6.25991e-05 24.6012 0.0330042 24.5218 0.0915918 24.4632C0.150179 24.4046 0.229623 24.3716 0.312479 24.3716H39.6874C39.7703 24.3716 39.8498 24.4046 39.9084 24.4632C39.967 24.5218 39.9999 24.6012 40 24.6841C40.0001 24.7251 39.992 24.7658 39.9764 24.8037C39.9607 24.8417 39.9377 24.8762 39.9086 24.9052C39.8796 24.9342 39.8451 24.9572 39.8071 24.9729C39.7692 24.9886 39.7285 24.9966 39.6874 24.9965Z" fill="#232B32"/>
<path d="M39.6875 24.9966C39.6464 24.9967 39.6058 24.9886 39.5678 24.9729C39.5299 24.9573 39.4954 24.9342 39.4664 24.9052C39.4374 24.8762 39.4144 24.8417 39.3987 24.8038C39.383 24.7658 39.375 24.7252 39.3751 24.6841V22.1841C39.3751 22.1012 39.4081 22.0218 39.4666 21.9632C39.5252 21.9046 39.6046 21.8717 39.6875 21.8716C39.7703 21.8716 39.8498 21.9046 39.9084 21.9632C39.967 22.0218 39.9999 22.1012 40 22.1841V24.6841C40.0001 24.7252 39.9921 24.7659 39.9764 24.8038C39.9607 24.8418 39.9377 24.8762 39.9086 24.9053C39.8796 24.9343 39.8451 24.9573 39.8071 24.973C39.7692 24.9887 39.7285 24.9967 39.6875 24.9966ZM34.6874 36.2465C34.6464 36.2466 34.6057 36.2385 34.5678 36.2228C34.5298 36.2072 34.4954 36.1841 34.4664 36.1551C34.4373 36.1261 34.4143 36.0916 34.3987 36.0537C34.383 36.0157 34.3749 35.9751 34.375 35.934V24.6841C34.3751 24.6013 34.408 24.5218 34.4666 24.4633C34.5252 24.4047 34.6046 24.3717 34.6874 24.3716C34.7703 24.3717 34.8498 24.4046 34.9084 24.4632C34.967 24.5218 34.9999 24.6012 35 24.6841V35.9341C35 35.9752 34.992 36.0158 34.9763 36.0538C34.9606 36.0917 34.9376 36.1262 34.9086 36.1552C34.8795 36.1842 34.845 36.2072 34.8071 36.2229C34.7691 36.2386 34.7285 36.2466 34.6874 36.2465ZM38.4375 36.2465C38.3965 36.2466 38.3558 36.2386 38.3179 36.2229C38.2799 36.2072 38.2454 36.1842 38.2164 36.1552C38.1873 36.1261 38.1643 36.0917 38.1486 36.0537C38.133 36.0158 38.1249 35.9751 38.125 35.934V24.6841C38.125 24.512 38.2649 24.3716 38.4375 24.3716C38.5204 24.3717 38.5998 24.4047 38.6584 24.4633C38.717 24.5218 38.7499 24.6013 38.7499 24.6841V35.9341C38.75 35.9752 38.742 36.0158 38.7263 36.0537C38.7106 36.0917 38.6876 36.1261 38.6586 36.1552C38.6296 36.1842 38.5951 36.2072 38.5572 36.2229C38.5192 36.2386 38.4786 36.2466 38.4375 36.2465ZM1.56256 36.2465C1.52149 36.2466 1.48082 36.2386 1.44287 36.2229C1.40491 36.2072 1.37043 36.1842 1.34139 36.1552C1.31235 36.1261 1.28933 36.0917 1.27365 36.0537C1.25796 36.0158 1.24993 35.9751 1.25 35.934V24.6841C1.25006 24.6012 1.28301 24.5218 1.34162 24.4632C1.40022 24.4046 1.47969 24.3717 1.56256 24.3716C1.64541 24.3717 1.72486 24.4046 1.78344 24.4632C1.84203 24.5218 1.87497 24.6013 1.87503 24.6841V35.9341C1.8751 35.9752 1.86706 36.0158 1.85137 36.0538C1.83569 36.0917 1.81267 36.1262 1.78365 36.1552C1.75462 36.1842 1.72014 36.2072 1.6822 36.2229C1.64426 36.2386 1.60361 36.2466 1.56256 36.2465ZM5.31245 36.2465C5.27139 36.2466 5.23073 36.2385 5.19278 36.2229C5.15484 36.2072 5.12036 36.1842 5.09133 36.1551C5.0623 36.1261 5.03929 36.0916 5.02361 36.0537C5.00793 36.0158 4.9999 35.9751 4.99997 35.934V24.6841C5.00003 24.6013 5.03298 24.5218 5.09156 24.4632C5.15015 24.4046 5.22959 24.3717 5.31245 24.3716C5.39532 24.3717 5.47478 24.4046 5.53339 24.4632C5.59199 24.5218 5.62494 24.6012 5.62501 24.6841V35.9341C5.62507 35.9752 5.61702 36.0158 5.60134 36.0538C5.58565 36.0917 5.56263 36.1262 5.53359 36.1552C5.50455 36.1842 5.47007 36.2072 5.43212 36.2229C5.39417 36.2386 5.35351 36.2466 5.31245 36.2465ZM32.1876 26.8715H7.18747C7.14641 26.8716 7.10574 26.8636 7.06778 26.8479C7.02983 26.8323 6.99535 26.8092 6.96631 26.7802C6.93727 26.7512 6.91425 26.7167 6.89856 26.6787C6.88288 26.6408 6.87485 26.6001 6.87492 26.5591C6.87498 26.4762 6.90793 26.3967 6.96654 26.3382C7.02514 26.2796 7.10461 26.2466 7.18747 26.2466H32.1875C32.2704 26.2467 32.3498 26.2796 32.4084 26.3382C32.4669 26.3968 32.4999 26.4762 32.4999 26.5591C32.5 26.6001 32.492 26.6408 32.4763 26.6787C32.4607 26.7167 32.4377 26.7511 32.4087 26.7802C32.3796 26.8092 32.3452 26.8322 32.3072 26.8479C32.2693 26.8636 32.2286 26.8716 32.1876 26.8715ZM32.1876 34.9966H7.18747C7.14641 34.9967 7.10574 34.9887 7.06778 34.973C7.02983 34.9573 6.99535 34.9343 6.96631 34.9053C6.93727 34.8762 6.91425 34.8418 6.89856 34.8038C6.88288 34.7659 6.87485 34.7252 6.87492 34.6841C6.87498 34.6012 6.90793 34.5218 6.96654 34.4632C7.02514 34.4046 7.10461 34.3717 7.18747 34.3716H32.1875C32.2704 34.3717 32.3498 34.4046 32.4084 34.4632C32.467 34.5218 32.4999 34.6013 32.4999 34.6841C32.5 34.7252 32.492 34.7658 32.4763 34.8038C32.4607 34.8417 32.4377 34.8762 32.4087 34.9052C32.3796 34.9343 32.3452 34.9573 32.3072 34.973C32.2693 34.9886 32.2286 34.9967 32.1876 34.9966Z" fill="#232B32"/>
<path d="M7.18748 34.9965C7.14642 34.9966 7.10575 34.9886 7.06779 34.9729C7.02984 34.9572 6.99536 34.9342 6.96632 34.9052C6.93728 34.8762 6.91426 34.8417 6.89857 34.8037C6.88289 34.7658 6.87486 34.7251 6.87493 34.6841V26.559C6.87499 26.4761 6.90794 26.3967 6.96655 26.3381C7.02515 26.2795 7.10461 26.2466 7.18748 26.2465C7.27035 26.2466 7.34982 26.2795 7.40842 26.3381C7.46703 26.3967 7.49998 26.4761 7.50004 26.559V34.6841C7.50011 34.7251 7.49208 34.7658 7.47639 34.8037C7.46071 34.8417 7.43769 34.8762 7.40865 34.9052C7.37961 34.9342 7.34513 34.9572 7.30717 34.9729C7.26922 34.9886 7.22855 34.9966 7.18748 34.9965ZM32.1876 34.9965C32.1465 34.9966 32.1059 34.9886 32.0679 34.9729C32.03 34.9572 31.9955 34.9342 31.9664 34.9052C31.9374 34.8762 31.9144 34.8417 31.8987 34.8037C31.883 34.7658 31.875 34.7251 31.875 34.6841V26.559C31.8751 26.4761 31.9081 26.3967 31.9667 26.3381C32.0253 26.2795 32.1047 26.2466 32.1876 26.2465C32.2704 26.2466 32.3499 26.2796 32.4084 26.3381C32.467 26.3967 32.4999 26.4762 32.5 26.559V34.6841C32.5001 34.7251 32.492 34.7658 32.4764 34.8037C32.4607 34.8416 32.4377 34.8761 32.4087 34.9051C32.3796 34.9342 32.3452 34.9572 32.3072 34.9729C32.2693 34.9886 32.2287 34.9966 32.1876 34.9965ZM2.81248 36.2465C2.77142 36.2465 2.73076 36.2385 2.69281 36.2228C2.65487 36.2071 2.62039 36.1841 2.59136 36.1551C2.56233 36.1261 2.53932 36.0916 2.52364 36.0536C2.50796 36.0157 2.49993 35.975 2.5 35.934V31.559C2.50006 31.4761 2.533 31.3967 2.59159 31.3381C2.65018 31.2795 2.72962 31.2466 2.81248 31.2465C2.89535 31.2465 2.97481 31.2795 3.03342 31.3381C3.09202 31.3966 3.12497 31.4761 3.12503 31.559V35.934C3.12511 35.975 3.11707 36.0157 3.10139 36.0537C3.08571 36.0916 3.06268 36.1261 3.03365 36.1551C3.00461 36.1841 2.97012 36.2072 2.93217 36.2228C2.89421 36.2385 2.85354 36.2465 2.81248 36.2465ZM4.6875 29.3715C4.31092 29.3715 3.74999 29.1224 3.74999 28.434V25.3089C3.75005 25.2261 3.78301 25.1466 3.84161 25.088C3.90021 25.0294 3.97968 24.9965 4.06255 24.9965C4.14542 24.9965 4.22488 25.0294 4.28348 25.088C4.34209 25.1466 4.37504 25.2261 4.3751 25.3089V28.434C4.3751 28.6855 4.54717 28.7428 4.69126 28.7465C4.86215 28.7514 5.00006 28.8917 4.99764 29.0627C4.99576 29.2349 4.8584 29.3715 4.6875 29.3715ZM37.1875 36.2465C37.1464 36.2465 37.1058 36.2385 37.0678 36.2228C37.0299 36.2071 36.9954 36.1841 36.9664 36.1551C36.9374 36.126 36.9144 36.0916 36.8987 36.0536C36.883 36.0157 36.875 35.975 36.8751 35.934V32.809C36.8751 32.1217 37.4359 31.8714 37.8126 31.8714C37.8954 31.8715 37.9749 31.9045 38.0334 31.9631C38.092 32.0217 38.1249 32.1011 38.125 32.1839C38.1251 32.225 38.1171 32.2656 38.1014 32.3036C38.0857 32.3415 38.0627 32.376 38.0337 32.4051C38.0047 32.4341 37.9702 32.4571 37.9323 32.4728C37.8943 32.4885 37.8537 32.4965 37.8126 32.4964C37.6721 32.5001 37.5 32.5575 37.5 32.809V35.934C37.5001 35.975 37.4921 36.0157 37.4764 36.0537C37.4607 36.0916 37.4377 36.1261 37.4087 36.1551C37.3796 36.1841 37.3451 36.2072 37.3072 36.2228C37.2692 36.2385 37.2285 36.2465 37.1875 36.2465Z" fill="#232B32"/>
<path d="M11.5626 34.3715C11.5215 34.3716 11.4808 34.3635 11.4429 34.3479C11.4049 34.3322 11.3704 34.3092 11.3414 34.2801C11.3124 34.2511 11.2893 34.2166 11.2737 34.1786C11.258 34.1407 11.2499 34.1 11.25 34.059C11.2464 33.9186 11.189 33.7465 10.9375 33.7465H7.81251C7.77146 33.7465 7.73079 33.7385 7.69285 33.7228C7.6549 33.7072 7.62043 33.6841 7.5914 33.6551C7.56237 33.6261 7.53935 33.5916 7.52367 33.5537C7.508 33.5157 7.49996 33.475 7.50003 33.434C7.5001 33.3511 7.53304 33.2717 7.59163 33.2131C7.65021 33.1545 7.72966 33.1216 7.81251 33.1215H10.9375C11.6254 33.1215 11.875 33.6831 11.875 34.059C11.8751 34.1 11.8671 34.1407 11.8514 34.1787C11.8358 34.2166 11.8128 34.2511 11.7837 34.2801C11.7547 34.3092 11.7202 34.3322 11.6823 34.3479C11.6443 34.3636 11.6036 34.3716 11.5626 34.3715ZM31.5625 28.1216H22.1875C21.4996 28.1216 21.25 27.5613 21.25 27.1841C21.25 27.012 21.3899 26.8716 21.5626 26.8716C21.7353 26.8716 21.8751 27.012 21.8751 27.1841C21.8788 27.3245 21.936 27.4966 22.1875 27.4966H31.5625C31.6454 27.4966 31.7248 27.5296 31.7834 27.5882C31.842 27.6468 31.875 27.7262 31.875 27.8091C31.8751 27.8501 31.8671 27.8908 31.8514 27.9288C31.8357 27.9667 31.8127 28.0012 31.7837 28.0303C31.7546 28.0593 31.7202 28.0823 31.6822 28.098C31.6442 28.1137 31.6036 28.1217 31.5625 28.1216ZM35.9376 30.6215C35.8965 30.6216 35.8558 30.6136 35.8179 30.5979C35.7799 30.5822 35.7454 30.5592 35.7164 30.5302C35.6874 30.5012 35.6643 30.4667 35.6487 30.4287C35.633 30.3908 35.6249 30.3501 35.625 30.3091V25.9341C35.6251 25.8512 35.658 25.7717 35.7166 25.7131C35.7752 25.6545 35.8547 25.6216 35.9376 25.6216C36.0204 25.6216 36.0999 25.6545 36.1585 25.7131C36.2171 25.7717 36.2501 25.8512 36.2501 25.9341V30.3091C36.2502 30.3501 36.2422 30.3908 36.2265 30.4287C36.2108 30.4667 36.1878 30.5012 36.1587 30.5302C36.1297 30.5592 36.0952 30.5822 36.0573 30.5979C36.0193 30.6136 35.9786 30.6216 35.9376 30.6215ZM15.3126 30.6215H7.18756C7.14649 30.6216 7.10582 30.6136 7.06787 30.5979C7.02991 30.5822 6.99543 30.5592 6.96639 30.5302C6.93735 30.5012 6.91433 30.4667 6.89865 30.4287C6.88296 30.3908 6.87493 30.3501 6.875 30.3091C6.87506 30.2262 6.90801 30.1467 6.96662 30.0881C7.02522 30.0296 7.10469 29.9966 7.18756 29.9966H15.3125C15.3954 29.9966 15.4748 30.0296 15.5334 30.0882C15.592 30.1468 15.6249 30.2262 15.625 30.3091C15.6251 30.3501 15.6171 30.3908 15.6014 30.4287C15.5858 30.4667 15.5627 30.5012 15.5337 30.5302C15.5047 30.5592 15.4702 30.5822 15.4323 30.5979C15.3943 30.6136 15.3537 30.6216 15.3126 30.6215ZM32.1877 31.8715H26.5627C26.5216 31.8716 26.4809 31.8636 26.443 31.8479C26.405 31.8322 26.3706 31.8092 26.3415 31.7802C26.3125 31.7512 26.2895 31.7167 26.2738 31.6787C26.2581 31.6408 26.2501 31.6001 26.2501 31.559C26.2502 31.4762 26.2831 31.3967 26.3417 31.3381C26.4003 31.2795 26.4798 31.2466 26.5627 31.2466H32.1877C32.2705 31.2466 32.35 31.2796 32.4085 31.3382C32.4671 31.3968 32.5 31.4762 32.5001 31.559C32.5001 31.6001 32.4921 31.6408 32.4764 31.6787C32.4608 31.7166 32.4378 31.7511 32.4087 31.7801C32.3797 31.8092 32.3453 31.8322 32.3073 31.8479C32.2694 31.8635 32.2287 31.8716 32.1877 31.8715ZM27.1876 16.8687C27.1466 16.8688 27.1059 16.8607 27.068 16.845C27.0301 16.8293 26.9956 16.8063 26.9666 16.7772C26.9376 16.7482 26.9145 16.7138 26.8988 16.6758C26.8831 16.6379 26.8751 16.5972 26.8751 16.5562V14.0593C26.8751 13.8865 27.0149 13.7467 27.1876 13.7467C27.3603 13.7467 27.5002 13.8865 27.5002 14.0593V16.5562C27.5002 16.729 27.3603 16.8687 27.1876 16.8687Z" fill="#232B32"/>
<path d="M27.1875 14.3719C27.1465 14.3719 27.1058 14.3639 27.0679 14.3482C27.03 14.3325 26.9955 14.3095 26.9665 14.2804C26.9375 14.2514 26.9144 14.217 26.8987 14.179C26.883 14.1411 26.875 14.1005 26.875 14.0594C26.875 12.3035 26.2366 10.614 25.0769 9.30174C25.0221 9.23954 24.9942 9.15813 24.9993 9.07539C25.0045 8.99265 25.0423 8.91534 25.1044 8.86043C25.1352 8.83323 25.171 8.81237 25.2098 8.79904C25.2487 8.7857 25.2898 8.78015 25.3307 8.78271C25.3717 8.78527 25.4118 8.79588 25.4487 8.81393C25.4856 8.83199 25.5185 8.85714 25.5457 8.88795C26.8062 10.3143 27.5002 12.1509 27.5002 14.0594C27.5001 14.1005 27.492 14.1411 27.4763 14.179C27.4606 14.217 27.4376 14.2514 27.4086 14.2804C27.3795 14.3094 27.3451 14.3324 27.3071 14.3481C27.2692 14.3638 27.2286 14.3719 27.1875 14.3719ZM12.1875 16.8688C12.1464 16.8689 12.1058 16.8608 12.0679 16.8451C12.0299 16.8294 11.9955 16.8064 11.9664 16.7773C11.9374 16.7483 11.9144 16.7138 11.8987 16.6759C11.883 16.638 11.875 16.5973 11.875 16.5563V14.0594C11.875 13.8866 12.0148 13.7468 12.1875 13.7468C12.3602 13.7468 12.5 13.8866 12.5 14.0594V16.5563C12.5 16.5973 12.4919 16.638 12.4762 16.6759C12.4605 16.7138 12.4375 16.7483 12.4085 16.7773C12.3795 16.8064 12.345 16.8294 12.3071 16.8451C12.2692 16.8608 12.2285 16.8689 12.1875 16.8688Z" fill="#232B32"/>
<path d="M12.1875 14.3718C12.1465 14.3718 12.1058 14.3638 12.0679 14.3481C12.03 14.3324 11.9955 14.3094 11.9665 14.2803C11.9375 14.2513 11.9145 14.2169 11.8988 14.1789C11.8831 14.141 11.875 14.1004 11.875 14.0593C11.875 12.1508 12.5689 10.3142 13.8293 8.88786C13.8565 8.85704 13.8894 8.83188 13.9263 8.81382C13.9632 8.79576 14.0033 8.78514 14.0443 8.78259C14.0853 8.78003 14.1264 8.78558 14.1652 8.79892C14.204 8.81227 14.2399 8.83313 14.2706 8.86034C14.3328 8.91525 14.3705 8.99257 14.3757 9.07532C14.3808 9.15806 14.3529 9.23947 14.2981 9.30165C13.1385 10.614 12.5 12.3034 12.5 14.0593C12.5 14.1004 12.4919 14.141 12.4762 14.1789C12.4605 14.2169 12.4375 14.2513 12.4085 14.2803C12.3795 14.3094 12.345 14.3324 12.3071 14.3481C12.2692 14.3638 12.2285 14.3718 12.1875 14.3718ZM9.06249 21.2466H0.312479C0.271423 21.2466 0.230757 21.2386 0.192813 21.2229C0.154869 21.2073 0.120393 21.1842 0.0913624 21.1552C0.0623318 21.1262 0.0393176 21.0917 0.0236396 21.0538C0.00796167 21.0158 -7.16096e-05 20.9751 4.80929e-07 20.9341V18.4343C-3.03484e-05 18.3933 0.00803052 18.3526 0.0237221 18.3147C0.0394137 18.2768 0.0624283 18.2423 0.0914497 18.2133C0.120471 18.1843 0.15493 18.1612 0.192856 18.1455C0.230782 18.1298 0.271431 18.1218 0.312479 18.1218H9.06249C9.18883 18.1218 9.30234 18.1981 9.35058 18.3147C9.3743 18.3716 9.38064 18.4342 9.3688 18.4947C9.35697 18.5552 9.32747 18.6109 9.28405 18.6546C9.13512 18.8048 8.75001 19.2809 8.75001 19.6843C8.75001 20.0877 9.13512 20.5638 9.28405 20.7143C9.32747 20.758 9.35697 20.8135 9.36881 20.8739C9.38065 20.9343 9.37431 20.9968 9.35058 21.0536C9.32716 21.1108 9.28726 21.1596 9.23594 21.194C9.18463 21.2284 9.12425 21.2467 9.06249 21.2466ZM0.624957 20.6218H8.42706C8.26836 20.3612 8.1249 20.0305 8.1249 19.6844C8.1249 19.3383 8.26836 19.0075 8.42706 18.7469H0.624957V20.6218Z" fill="#232B32"/>
<path d="M9.68739 18.7469H9.06244C9.0214 18.7469 8.98075 18.7388 8.94283 18.7231C8.90491 18.7074 8.87046 18.6844 8.84144 18.6554C8.81242 18.6264 8.7894 18.5919 8.7737 18.554C8.75801 18.5161 8.74994 18.4754 8.74996 18.4344C8.74993 18.3933 8.75799 18.3527 8.77368 18.3148C8.78937 18.2768 8.81239 18.2424 8.84141 18.2133C8.87043 18.1843 8.90489 18.1613 8.94282 18.1456C8.98074 18.1299 9.02139 18.1218 9.06244 18.1218H9.68739C9.72845 18.1218 9.76911 18.1299 9.80704 18.1456C9.84498 18.1613 9.87944 18.1843 9.90847 18.2133C9.9375 18.2423 9.96052 18.2768 9.97622 18.3147C9.99192 18.3527 9.99998 18.3933 9.99995 18.4344C9.99997 18.4754 9.9919 18.5161 9.9762 18.554C9.9605 18.5919 9.93748 18.6264 9.90845 18.6554C9.87942 18.6844 9.84495 18.7075 9.80702 18.7232C9.76909 18.7388 9.72844 18.7469 9.68739 18.7469ZM9.68739 21.2466H9.06244C9.02138 21.2467 8.98072 21.2387 8.94277 21.223C8.90483 21.2073 8.87035 21.1843 8.84132 21.1553C8.81229 21.1262 8.78928 21.0918 8.7736 21.0538C8.75792 21.0159 8.74989 20.9752 8.74996 20.9341C8.75002 20.8513 8.78297 20.7719 8.84157 20.7133C8.90016 20.6548 8.9796 20.6219 9.06244 20.6219H9.68739C9.77024 20.6219 9.84971 20.6548 9.90832 20.7133C9.96693 20.7719 9.99989 20.8513 9.99995 20.9341C10 20.9752 9.99199 21.0159 9.9763 21.0538C9.96062 21.0918 9.9376 21.1263 9.90856 21.1553C9.87952 21.1843 9.84504 21.2073 9.80708 21.223C9.76913 21.2387 9.72846 21.2467 9.68739 21.2466ZM7.81307 17.4968H1.56304C1.39027 17.4968 1.25049 17.357 1.25049 17.1843C1.25049 17.0116 1.39027 16.8718 1.56304 16.8718C1.70337 16.8682 1.87552 16.8108 1.87552 16.5593C1.87552 16.3078 1.704 16.2504 1.56 16.2467C1.47828 16.2454 1.40032 16.2122 1.34283 16.1541C1.28533 16.096 1.25287 16.0177 1.2524 15.936C1.25193 15.8543 1.28349 15.7756 1.34031 15.7169C1.39714 15.6582 1.4747 15.624 1.5564 15.6218H7.81323C7.85427 15.6218 7.89491 15.6298 7.93283 15.6455C7.97076 15.6612 8.00521 15.6842 8.03423 15.7133C8.06325 15.7423 8.08627 15.7767 8.10196 15.8147C8.11766 15.8526 8.12573 15.8932 8.12571 15.9343V17.1842C8.12571 17.2253 8.11762 17.266 8.10191 17.3039C8.0862 17.3418 8.06317 17.3763 8.03413 17.4053C8.0051 17.4343 7.97064 17.4573 7.93271 17.473C7.89478 17.4887 7.85413 17.4968 7.81307 17.4968ZM2.456 16.8718H7.50052V16.2468H2.456C2.48469 16.339 2.50056 16.4427 2.50056 16.5594C2.50056 16.676 2.48469 16.7797 2.456 16.8718ZM39.0624 21.2466H30.3124C30.2714 21.2467 30.2307 21.2387 30.1927 21.223C30.1548 21.2073 30.1203 21.1843 30.0913 21.1553C30.0622 21.1263 30.0392 21.0918 30.0235 21.0538C30.0078 21.0159 29.9998 20.9752 29.9999 20.9341V14.6844C29.9999 14.6434 30.0079 14.6027 30.0236 14.5648C30.0393 14.5269 30.0624 14.4924 30.0914 14.4634C30.1204 14.4344 30.1549 14.4114 30.1928 14.3957C30.2307 14.38 30.2714 14.3719 30.3124 14.3719H39.0624C39.1035 14.3719 39.1441 14.38 39.1821 14.3957C39.22 14.4114 39.2544 14.4344 39.2835 14.4634C39.3125 14.4924 39.3355 14.5269 39.3512 14.5648C39.3669 14.6027 39.375 14.6434 39.375 14.6844V20.9341C39.3751 20.9752 39.367 21.0159 39.3513 21.0538C39.3357 21.0918 39.3126 21.1263 39.2836 21.1553C39.2546 21.1843 39.2201 21.2073 39.1821 21.223C39.1442 21.2387 39.1035 21.2467 39.0624 21.2466ZM30.625 20.6219H38.7499V14.9969H30.625V20.6219Z" fill="#232B32"/>
<path d="M39.6875 21.2466H29.6876C29.6465 21.2467 29.6058 21.2387 29.5679 21.223C29.5299 21.2073 29.4954 21.1843 29.4664 21.1553C29.4374 21.1262 29.4143 21.0918 29.3986 21.0538C29.383 21.0159 29.3749 20.9752 29.375 20.9341C29.3751 20.8513 29.4081 20.7719 29.4667 20.7133C29.5253 20.6548 29.6047 20.6219 29.6876 20.6219H39.6875C39.7703 20.6219 39.8498 20.6548 39.9084 20.7133C39.967 20.7719 40 20.8513 40 20.9341C40.0001 20.9752 39.9921 21.0159 39.9764 21.0538C39.9607 21.0918 39.9377 21.1262 39.9086 21.1553C39.8796 21.1843 39.8451 21.2073 39.8072 21.223C39.7692 21.2387 39.7285 21.2467 39.6875 21.2466ZM34.6874 18.7469C34.5643 18.7473 34.4422 18.7232 34.3285 18.676C34.2147 18.6289 34.1114 18.5596 34.0246 18.4722C33.8476 18.2952 33.75 18.0596 33.75 17.8093C33.75 17.5591 33.8476 17.3235 34.0246 17.1465C34.3786 16.7925 34.9963 16.7925 35.3504 17.1465C35.7153 17.5127 35.7153 18.1072 35.3504 18.4722C35.2635 18.5595 35.1602 18.6288 35.0464 18.6759C34.9326 18.723 34.8106 18.7472 34.6874 18.7469ZM34.6874 17.4968C34.6464 17.4967 34.6057 17.5047 34.5678 17.5204C34.5299 17.5361 34.4954 17.5592 34.4665 17.5883C34.4374 17.6173 34.4143 17.6517 34.3986 17.6896C34.3829 17.7276 34.3749 17.7682 34.375 17.8093C34.375 17.8929 34.4074 17.971 34.4665 18.0303C34.5844 18.1475 34.7895 18.1486 34.9084 18.0303C34.9668 17.9716 34.9996 17.8921 34.9996 17.8093C34.9996 17.7265 34.9668 17.6471 34.9084 17.5883C34.8794 17.5592 34.845 17.5361 34.8071 17.5204C34.7692 17.5047 34.7285 17.4967 34.6874 17.4968Z" fill="#232B32"/>
<path d="M35.1295 17.68C35.0676 17.68 35.0072 17.6617 34.9558 17.6274C34.9043 17.5931 34.8642 17.5443 34.8406 17.4872C34.8169 17.4301 34.8107 17.3672 34.8228 17.3066C34.8348 17.2459 34.8646 17.1902 34.9084 17.1466L35.1295 16.9256C35.1585 16.8966 35.1929 16.8736 35.2308 16.8579C35.2687 16.8422 35.3094 16.8341 35.3504 16.8341C35.3914 16.8341 35.4321 16.8422 35.47 16.8579C35.5079 16.8736 35.5423 16.8966 35.5713 16.9256C35.6003 16.9546 35.6234 16.9891 35.6391 17.027C35.6548 17.0649 35.6628 17.1055 35.6628 17.1466C35.6628 17.1876 35.6548 17.2282 35.6391 17.2661C35.6234 17.304 35.6003 17.3385 35.5713 17.3675L35.3504 17.5884C35.3214 17.6175 35.287 17.6405 35.2491 17.6562C35.2111 17.6719 35.1705 17.68 35.1295 17.68ZM30.9375 23.7466H9.68748C9.64642 23.7467 9.60576 23.7386 9.56781 23.7229C9.52987 23.7073 9.49539 23.6843 9.46636 23.6552C9.43733 23.6262 9.41432 23.5917 9.39864 23.5538C9.38296 23.5158 9.37493 23.4752 9.375 23.4341C9.37506 23.3513 9.408 23.2718 9.46659 23.2132C9.52518 23.1546 9.60462 23.1217 9.68748 23.1216H30.9375C31.0203 23.1217 31.0998 23.1546 31.1584 23.2132C31.217 23.2718 31.2499 23.3512 31.25 23.4341C31.2501 23.4752 31.2421 23.5158 31.2264 23.5538C31.2107 23.5917 31.1877 23.6262 31.1586 23.6552C31.1296 23.6843 31.0951 23.7073 31.0572 23.723C31.0192 23.7386 30.9785 23.7467 30.9375 23.7466Z" fill="#232B32"/>
</g>
<defs>
<clipPath id="clip0_1655_578">
<rect width="40" height="40" fill="white"/>
</clipPath>
</defs>
</svg>
