<svg width="40" height="40" viewBox="0 0 40 40" fill="none" xmlns="http://www.w3.org/2000/svg">
<path d="M12.6223 2.85094V9.24406C12.6223 10.4953 13.6364 11.5091 14.8874 11.5091H25.1125C26.3634 11.5091 27.3776 10.4953 27.3776 9.24406V2.85094C27.3776 1.6 26.3635 0.585938 25.1125 0.585938H14.8875C13.6365 0.585938 12.6223 1.6 12.6223 2.85094Z" fill="#0071DC"/>
<path d="M37.4153 24.3903C37.2599 24.3903 37.1108 24.452 37.001 24.5619C36.8911 24.6718 36.8293 24.8208 36.8293 24.9762V34.3176H24.7517V23.2285C24.7517 22.4744 24.1383 21.861 23.3845 21.861H16.6157C15.8619 21.861 15.2486 22.4747 15.2486 23.2285V34.3177H3.1709V24.9763C3.1709 24.8209 3.10917 24.6718 2.99928 24.562C2.8894 24.4521 2.74036 24.3903 2.58496 24.3903C2.42956 24.3903 2.28053 24.4521 2.17064 24.562C2.06076 24.6718 1.99902 24.8209 1.99902 24.9763V34.5911C1.99902 35.0864 2.40215 35.4896 2.89746 35.4896H37.1028C37.5981 35.4896 38.0012 35.0864 38.0012 34.5911V24.9763C38.0012 24.8209 37.9395 24.6718 37.8296 24.562C37.7197 24.4521 37.5707 24.3903 37.4153 24.3903V24.3903ZM16.4204 34.3176V23.2285C16.4205 23.1767 16.441 23.127 16.4776 23.0903C16.5142 23.0536 16.5639 23.033 16.6157 23.0328H23.3845C23.4923 23.0328 23.5798 23.1207 23.5798 23.2285V34.3177L16.4204 34.3176Z" fill="#29323B"/>
<path d="M34.6317 32.0026C35.3196 32.0026 35.8793 31.4429 35.8793 30.755V24.3609C35.8793 23.6731 35.3196 23.1136 34.6317 23.1136H27.3805C26.6926 23.1136 26.133 23.673 26.133 24.3609V30.755C26.133 31.4429 26.6926 32.0026 27.3805 32.0026H34.6317ZM27.3048 30.755V24.3609C27.3048 24.3195 27.3387 24.2855 27.3805 24.2855H34.6317C34.6735 24.2855 34.7074 24.3194 34.7074 24.3609V30.755C34.7074 30.7751 34.6994 30.7943 34.6852 30.8085C34.671 30.8227 34.6518 30.8307 34.6317 30.8307H27.3805C27.3605 30.8307 27.3412 30.8227 27.327 30.8085C27.3128 30.7943 27.3048 30.7751 27.3048 30.755ZM12.6197 32.0026C13.3076 32.0026 13.8673 31.4429 13.8673 30.755V24.3609C13.8673 23.6731 13.3076 23.1136 12.6197 23.1136H5.36843C4.68054 23.1136 4.12085 23.673 4.12085 24.3609V30.755C4.12085 31.4429 4.68054 32.0026 5.36843 32.0026H12.6197ZM5.29272 30.755V24.3609C5.29272 24.3195 5.32663 24.2855 5.36843 24.2855H12.6197C12.6615 24.2855 12.6954 24.3194 12.6954 24.3609V30.755C12.6954 30.7751 12.6874 30.7943 12.6732 30.8085C12.659 30.8227 12.6398 30.8307 12.6197 30.8307H5.36843C5.34835 30.8307 5.32909 30.8227 5.3149 30.8085C5.3007 30.7943 5.29272 30.7751 5.29272 30.755Z" fill="#29323B"/>
<path d="M38.2781 8.63828C38.2781 8.01242 38.7875 7.50336 39.4141 7.50336C39.5695 7.50336 39.7185 7.44163 39.8284 7.33174C39.9383 7.22186 40 7.07282 40 6.91742V5.48367C40 5.32827 39.9383 5.17924 39.8284 5.06935C39.7185 4.95947 39.5695 4.89773 39.4141 4.89773H29.7415C29.5861 4.89773 29.437 4.95947 29.3272 5.06935C29.2173 5.17924 29.1555 5.32827 29.1555 5.48367C29.1555 5.8075 29.4177 6.06961 29.7415 6.06961H38.8281V6.40688C38.0258 6.61742 37.3926 7.25039 37.1817 8.05234H27.9639V2.85094C27.9639 1.27906 26.6848 0 25.1129 0H14.8875C13.3152 0 12.0365 1.27898 12.0365 2.85094V4.89781H0.585938C0.430537 4.89781 0.281502 4.95955 0.171617 5.06943C0.0617325 5.17931 0 5.32835 0 5.48375L0 6.91742C0 7.07282 0.0617325 7.22186 0.171617 7.33174C0.281502 7.44163 0.430537 7.50336 0.585938 7.50336C1.2125 7.50336 1.72188 8.01242 1.72188 8.63828C1.72182 8.73859 1.74751 8.83723 1.7965 8.92476C1.84548 9.0123 1.91612 9.08579 2.00164 9.1382V13.1402H0.947266C0.451641 13.1402 0.0485156 13.5434 0.0485156 14.0387V17.2293C0.0485156 17.7246 0.451641 18.1277 0.947266 18.1277H2.00164V22.6367C2.00164 22.7921 2.06337 22.9412 2.17326 23.051C2.28314 23.1609 2.43218 23.2227 2.58758 23.2227C2.74298 23.2227 2.89201 23.1609 3.0019 23.051C3.11178 22.9412 3.17352 22.7921 3.17352 22.6367V18.1277H36.875V22.6377C36.875 22.7931 36.9367 22.9421 37.0466 23.052C37.1565 23.1619 37.3055 23.2236 37.4609 23.2236C37.6163 23.2236 37.7654 23.1619 37.8753 23.052C37.9851 22.9421 38.0469 22.7931 38.0469 22.6377V18.1277H39.1012C39.5969 18.1277 40 17.7246 40 17.2293V14.0387C40 13.5434 39.5969 13.1402 39.1012 13.1402H38.0469V9.10492C38.1188 9.05024 38.1771 8.97967 38.2172 8.89871C38.2573 8.81776 38.2782 8.72863 38.2781 8.63828ZM13.2081 2.85094C13.2081 1.92508 13.9616 1.17188 14.8872 1.17188H25.1125C26.0384 1.17188 26.7916 1.925 26.7916 2.85094V9.24406C26.7916 10.17 26.0384 10.9231 25.1125 10.9231H14.8875C13.9616 10.9231 13.2084 10.17 13.2084 9.24406V2.85094H13.2081ZM38.8281 16.9559H1.22039V14.3121H38.8281V16.9559ZM3.17352 13.1402V9.22422H10.279C10.6027 9.22422 10.8649 8.96211 10.8649 8.63828C10.8649 8.48288 10.8032 8.33385 10.6933 8.22396C10.5834 8.11408 10.4344 8.05234 10.279 8.05234H2.8182C2.60742 7.25039 1.97422 6.61742 1.17188 6.40688V6.06953H12.0362V9.2443C12.0362 10.8162 13.3151 12.0952 14.8871 12.0952H25.1125C26.6848 12.0952 27.9635 10.8163 27.9635 9.2443V9.22445H36.8746V13.1402L3.17352 13.1402ZM17.7344 28.0893H17.2656C17.1102 28.0893 16.9612 28.151 16.8513 28.2609C16.7414 28.3708 16.6797 28.5198 16.6797 28.6752C16.6797 28.8306 16.7414 28.9797 16.8513 29.0896C16.9612 29.1994 17.1102 29.2612 17.2656 29.2612H17.7344C17.8898 29.2612 18.0388 29.1994 18.1487 29.0896C18.2586 28.9797 18.3203 28.8306 18.3203 28.6752C18.3203 28.5198 18.2586 28.3708 18.1487 28.2609C18.0388 28.151 17.8898 28.0893 17.7344 28.0893Z" fill="#29323B"/>
<path d="M15.8028 3.51045H16.521L17.2577 7.03217C17.4005 7.71452 18.0102 8.21014 18.7075 8.21014H22.1868C22.7993 8.21014 23.3563 7.82499 23.5726 7.25217L24.7216 4.21053C24.7754 4.06797 24.7939 3.91447 24.7754 3.76321C24.7569 3.61194 24.702 3.46741 24.6154 3.34204C24.5287 3.21666 24.413 3.11418 24.278 3.04337C24.1431 2.97257 23.993 2.93557 23.8406 2.93553H18.9196C18.7642 2.93553 18.6152 2.99726 18.5053 3.10715C18.3954 3.21703 18.3337 3.36607 18.3337 3.52147C18.3337 3.67687 18.3954 3.82591 18.5053 3.93579C18.6152 4.04567 18.7642 4.10741 18.9196 4.10741H23.5079L22.4765 6.83795C22.4541 6.89664 22.4145 6.94718 22.3629 6.98292C22.3113 7.01867 22.25 7.03793 22.1872 7.03819H18.7076C18.6366 7.03787 18.5679 7.01329 18.5129 6.96854C18.4578 6.92379 18.4197 6.86156 18.4049 6.79217L17.6651 3.2567C17.5538 2.72452 17.0785 2.3385 16.5348 2.3385H15.8032C15.7263 2.33847 15.6501 2.3536 15.579 2.38304C15.5079 2.41248 15.4432 2.45563 15.3888 2.51005C15.3344 2.56446 15.2913 2.62907 15.2618 2.70017C15.2324 2.77128 15.2173 2.84748 15.2173 2.92444C15.2173 3.24788 15.4794 3.51045 15.8028 3.51045ZM18.8085 8.70178H18.6523C18.5753 8.70175 18.4991 8.71689 18.428 8.74632C18.3569 8.77576 18.2923 8.81892 18.2379 8.87333C18.1835 8.92775 18.1403 8.99235 18.1109 9.06345C18.0815 9.13456 18.0663 9.21076 18.0663 9.28772C18.0663 9.44312 18.1281 9.59216 18.238 9.70204C18.3478 9.81192 18.4969 9.87366 18.6523 9.87366H18.8085C18.9639 9.87366 19.113 9.81192 19.2229 9.70204C19.3327 9.59216 19.3945 9.44312 19.3945 9.28772C19.3945 8.96389 19.1324 8.70178 18.8085 8.70178ZM21.3476 8.70178H21.1913C21.1144 8.70175 21.0382 8.71689 20.9671 8.74632C20.896 8.77576 20.8314 8.81892 20.777 8.87333C20.7225 8.92775 20.6794 8.99235 20.6499 9.06345C20.6205 9.13456 20.6054 9.21076 20.6054 9.28772C20.6054 9.44312 20.6671 9.59216 20.777 9.70204C20.8869 9.81192 21.0359 9.87366 21.1913 9.87366H21.3476C21.503 9.87366 21.652 9.81192 21.7619 9.70204C21.8718 9.59216 21.9335 9.44312 21.9335 9.28772C21.9335 8.96389 21.6714 8.70178 21.3476 8.70178Z" fill="white"/>
</svg>
