<svg width="40" height="40" viewBox="0 0 40 40" fill="none" xmlns="http://www.w3.org/2000/svg">
<g clip-path="url(#clip0_1655_482)">
<path d="M34.4134 31.3334C35.1222 30.7139 35.5115 29.7393 35.2527 28.6742C35.0216 27.7227 34.2448 26.9535 33.2895 26.7367C31.5459 26.3428 30.0001 27.6573 30.0001 29.3334C30.0001 30.1348 30.3607 30.8448 30.9201 31.3334C29.6755 31.3334 28.6667 32.3421 28.6667 33.5867V39.3334H36.6667V33.5867C36.6667 32.3421 35.658 31.3334 34.4134 31.3334Z" fill="#0071DC"/>
<path d="M9.07992 31.3334C9.78867 30.7139 10.178 29.7393 9.91917 28.6742C9.68809 27.7227 8.91134 26.9535 7.956 26.7367C6.21242 26.3428 4.66659 27.6573 4.66659 29.3334C4.66659 30.1348 5.02725 30.8448 5.58659 31.3334C4.34192 31.3334 3.33325 32.3421 3.33325 33.5867V39.3334H11.3333V33.5867C11.3333 32.3421 10.3245 31.3334 9.07992 31.3334Z" fill="#0071DC"/>
<path d="M10.0001 29.3333C10.0001 30.3206 9.46391 31.182 8.66675 31.6432C8.27483 31.87 7.81941 33.3333 7.33341 33.3333C6.84741 33.3333 6.392 31.87 6.00008 31.6432C5.20291 31.182 4.66675 30.3206 4.66675 29.3333C4.66675 27.8606 5.86075 26.6666 7.33341 26.6666C8.80608 26.6666 10.0001 27.8606 10.0001 29.3333ZM35.3334 29.3333C35.3334 30.3206 34.7972 31.182 34.0001 31.6432C33.6082 31.87 33.1528 33.3333 32.6667 33.3333C32.1807 33.3333 31.7253 31.87 31.3334 31.6432C30.5362 31.182 30.0001 30.3206 30.0001 29.3333C30.0001 27.8606 31.1941 26.6666 32.6667 26.6666C34.1394 26.6666 35.3334 27.8606 35.3334 29.3333Z" fill="white"/>
<path d="M25.3334 8.66671C25.3334 11.6124 22.9457 14 20.0001 14C17.0544 14 14.6667 11.6124 14.6667 8.66671C14.6667 5.72104 17.0544 3.33337 20.0001 3.33337C22.9457 3.33337 25.3334 5.72104 25.3334 8.66671Z" fill="#0071DC"/>
<path d="M37.3333 0H38.6667V1.33333H37.3333V0ZM37.3333 2.66667H38.6667V4H37.3333V2.66667ZM38.6667 1.33333H40V2.66667H38.6667V1.33333ZM36 1.33333H37.3333V2.66667H36V1.33333ZM1.33333 0H2.66667V1.33333H1.33333V0ZM1.33333 2.66667H2.66667V4H1.33333V2.66667ZM2.66667 1.33333H4V2.66667H2.66667V1.33333ZM0 1.33333H1.33333V2.66667H0V1.33333ZM19.3333 0H20.6667V1.33333H19.3333V0ZM27.3333 8H28.6667V9.33333H27.3333V8ZM11.3333 8H12.6667V9.33333H11.3333V8ZM24.7136 14.3236L25.6563 13.3808L26.599 14.3236L25.6563 15.2666L24.7136 14.3236ZM13.4004 3.00975L14.3434 2.06708L15.2862 3.00975L14.3434 3.95283L13.4004 3.00975ZM13.4 14.3232L14.3428 13.3805L15.2858 14.3232L14.3428 15.2659L13.4 14.3232ZM24.7138 3.01042L25.6566 2.06742L26.5996 3.01042L25.6566 3.95317L24.7138 3.01042Z" fill="#29323B"/>
<path d="M39.3333 22H33.2939C32.9606 19.0045 30.416 16.6666 27.3333 16.6666H20.6667V14.6272C23.6621 14.2945 26 11.75 26 8.66663C26 5.35804 23.3079 2.66663 20 2.66663C16.6921 2.66663 14 5.35804 14 8.66663C14 11.75 16.3379 14.2945 19.3333 14.6272V16.6666H12.6667C9.584 16.6666 7.03875 19.0045 6.70608 22H0.666667C0.298833 22 0 22.2978 0 22.6666V39.3333C0 39.7021 0.298833 40 0.666667 40H17.3333C17.7012 40 18 39.7021 18 39.3333V35.9528C20.2588 35.6285 22 33.6806 22 31.3333C22 28.986 20.2588 27.0387 18 26.7138V22.6666C18 22.2978 17.7012 22 17.3333 22H8.05333C8.37858 19.7425 10.3207 18 12.6667 18H27.3333C29.6793 18 31.6214 19.7425 31.9467 22H22.6667C22.2988 22 22 22.2978 22 22.6666V27.3333C22 27.7021 22.2988 28 22.6667 28C24.5046 28 26 29.4954 26 31.3333C26 33.1712 24.5046 34.6666 22.6667 34.6666C22.2988 34.6666 22 34.9645 22 35.3333V39.3333C22 39.7021 22.2988 40 22.6667 40H39.3333C39.7012 40 40 39.7021 40 39.3333V22.6666C40 22.2978 39.7012 22 39.3333 22ZM10.6667 38.6666H4V33.5866C4 32.8932 4.44917 32.3085 5.07067 32.0934L6.66667 34.222V36.6666H8V34.222L9.596 32.0934C10.2175 32.3085 10.6667 32.8933 10.6667 33.5866V38.6666ZM8.42742 31.43L7.33333 32.8886L6.23925 31.43C6.27217 31.2093 6.19858 30.9827 6.02542 30.8314C5.57942 30.4414 5.33333 29.9091 5.33333 29.3333C5.33333 28.722 5.60808 28.152 6.08592 27.7691C6.57125 27.3811 7.18325 27.2454 7.80858 27.3873C8.51275 27.5459 9.09992 28.1266 9.2715 28.832C9.45342 29.58 9.21742 30.3275 8.64125 30.8314C8.46875 30.9827 8.39458 31.2086 8.42742 31.43ZM16.6667 23.3333V27.3333C16.6667 27.7021 16.9655 28 17.3333 28C19.1713 28 20.6667 29.4954 20.6667 31.3333C20.6667 33.1712 19.1713 34.6666 17.3333 34.6666C16.9655 34.6666 16.6667 34.9645 16.6667 35.3333V38.6666H12V33.5866C12 32.3975 11.2855 31.372 10.2627 30.9166C10.6573 30.2011 10.7722 29.3587 10.5674 28.5166C10.2754 27.3128 9.30792 26.3593 8.10325 26.0859C7.08992 25.858 6.05075 26.0898 5.25392 26.7272C4.45733 27.3645 4 28.3147 4 29.3333C4 29.89 4.1425 30.4325 4.40725 30.9153C3.3835 31.3695 2.66667 32.3961 2.66667 33.5866V38.6666H1.33333V23.3333H16.6667ZM15.3333 8.66663C15.3333 6.09404 17.4268 3.99996 20 3.99996C22.5732 3.99996 24.6667 6.09404 24.6667 8.66663C24.6667 11.2392 22.5732 13.3333 20 13.3333C17.4268 13.3333 15.3333 11.2392 15.3333 8.66663ZM36 38.6666H29.3333V33.5866C29.3333 32.8932 29.7825 32.3085 30.404 32.0934L32 34.222V36.6666H33.3333V34.222L34.9293 32.0934C35.5508 32.3085 36 32.8933 36 33.5866V38.6666ZM33.7608 31.43L32.6667 32.8886L31.5726 31.43C31.6055 31.2093 31.5319 30.9827 31.3587 30.8314C30.9128 30.4414 30.6667 29.9091 30.6667 29.3333C30.6667 28.722 30.9414 28.152 31.4193 27.7691C31.9046 27.3811 32.5159 27.2454 33.1419 27.3873C33.8461 27.5459 34.4333 28.1266 34.6048 28.832C34.7868 29.58 34.5508 30.3275 33.9746 30.8314C33.8021 30.9827 33.7279 31.2086 33.7608 31.43ZM38.6667 38.6666H37.3333V33.5866C37.3333 32.3975 36.6188 31.372 35.596 30.9166C35.9906 30.2011 36.1055 29.3587 35.9007 28.5166C35.6087 27.3128 34.6413 26.3593 33.4366 26.0859C32.4233 25.858 31.3841 26.0898 30.5873 26.7272C29.7907 27.3645 29.3333 28.3147 29.3333 29.3333C29.3333 29.89 29.4758 30.4325 29.7406 30.9153C28.7168 31.3695 28 32.3961 28 33.5865V38.6666H23.3333V35.9528C25.5921 35.6285 27.3333 33.6806 27.3333 31.3333C27.3333 28.986 25.5921 27.0387 23.3333 26.7138V23.3333H38.6667V38.6666Z" fill="#29323B"/>
<path d="M20.6667 7.33329C20.6667 6.96546 20.3672 6.66663 20 6.66663C19.6328 6.66663 19.3333 6.96546 19.3333 7.33329C19.3333 7.70404 19.446 7.79454 20.1973 8.02929C20.8721 8.23854 22 8.59146 22 9.99996C22 10.8678 21.4408 11.6012 20.6667 11.8772V12.6666H19.3333V11.8772C18.5592 11.6012 18 10.8678 18 9.99996H19.3333C19.3333 10.3678 19.6328 10.6666 20 10.6666C20.3672 10.6666 20.6667 10.3678 20.6667 9.99996C20.6667 9.62721 20.5533 9.53671 19.8008 9.30204C19.1273 9.09204 18 8.73988 18 7.33329C18 6.46546 18.5592 5.73204 19.3333 5.45604V4.66663H20.6667V5.45604C21.4408 5.73204 22 6.46546 22 7.33329H20.6667Z" fill="white"/>
</g>
<defs>
<clipPath id="clip0_1655_482">
<rect width="40" height="40" fill="white"/>
</clipPath>
</defs>
</svg>
