<svg width="50" height="50" viewBox="0 0 50 50" fill="none" xmlns="http://www.w3.org/2000/svg">
<g clip-path="url(#clip0_1090_2981)">
<path d="M0 18.7512L24.075 34.0731C24.35 34.2762 24.675 34.3762 25 34.3762C25.325 34.3762 25.65 34.2762 25.925 34.0731L50 18.7512L25.9375 0.313674C25.6668 0.111307 25.338 0.00195312 25 0.00195312C24.662 0.00195312 24.3332 0.111307 24.0625 0.313674L0 18.7512Z" fill="#64B5F6"/>
<path d="M40.625 0.0012207H9.375C7.65313 0.0012207 6.25 1.40435 6.25 3.12622V37.5012C6.25 38.3637 6.95 39.0637 7.8125 39.0637H42.1875C43.05 39.0637 43.75 38.3637 43.75 37.5012V3.12622C43.75 1.40435 42.35 0.0012207 40.625 0.0012207Z" fill="#ECEFF1"/>
<path d="M14.0625 9.37622H35.9375C36.8 9.37622 37.5 8.67622 37.5 7.81372C37.5 6.95122 36.8 6.25122 35.9375 6.25122H14.0625C13.2 6.25122 12.5 6.95122 12.5 7.81372C12.5 8.67622 13.2 9.37622 14.0625 9.37622ZM35.9375 12.5012H14.0625C13.2 12.5012 12.5 13.2012 12.5 14.0637C12.5 14.9262 13.2 15.6262 14.0625 15.6262H35.9375C36.8 15.6262 37.5 14.9262 37.5 14.0637C37.5 13.2012 36.8 12.5012 35.9375 12.5012ZM26.5625 18.7512H14.0625C13.2 18.7512 12.5 19.4512 12.5 20.3137C12.5 21.1762 13.2 21.8762 14.0625 21.8762H26.5625C27.425 21.8762 28.125 21.1762 28.125 20.3137C28.125 19.4512 27.425 18.7512 26.5625 18.7512Z" fill="#90A4AE"/>
<path d="M25.925 34.0731C25.65 34.2762 25.325 34.3762 25 34.3762C24.675 34.3762 24.35 34.2762 24.075 34.0731L0 18.7512V46.8762C0 48.6012 1.4 50.0012 3.125 50.0012H46.875C48.6 50.0012 50 48.6012 50 46.8762V18.7512L25.925 34.0731Z" fill="#1E88E5"/>
<path d="M46.875 50.0012H3.125C1.37188 50.0012 0 48.6293 0 46.8762C0.000139739 46.631 0.0579078 46.3893 0.168644 46.1705C0.27938 45.9518 0.439984 45.7621 0.6375 45.6168L24.075 29.9918C24.35 29.7887 24.675 29.6887 25 29.6887C25.325 29.6887 25.65 29.7887 25.925 29.9918L49.3625 45.6168C49.56 45.7621 49.7206 45.9518 49.8314 46.1705C49.9421 46.3893 49.9999 46.631 50 46.8762C50 48.6293 48.6281 50.0012 46.875 50.0012Z" fill="#2196F3"/>
</g>
<defs>
<clipPath id="clip0_1090_2981">
<rect width="50" height="50" fill="white" transform="translate(0 0.0012207)"/>
</clipPath>
</defs>
</svg>
