<svg width="105" height="17" viewBox="0 0 105 17" fill="none" xmlns="http://www.w3.org/2000/svg">
<g clip-path="url(#clip0_1698_264)">
<path d="M8.50032 12.6746L3.79802 15.3067L4.84824 10.0212L0.891846 6.36246L6.24321 5.72797L8.50032 0.834595L10.7574 5.72797L16.1087 6.36246L12.1524 10.0212L13.2026 15.3067L8.50032 12.6746Z" fill="#F8B805"/>
</g>
<g clip-path="url(#clip1_1698_264)">
<path d="M30.5003 12.6746L25.798 15.3067L26.8482 10.0212L22.8918 6.36246L28.2432 5.72797L30.5003 0.834595L32.7574 5.72797L38.1087 6.36246L34.1524 10.0212L35.2026 15.3067L30.5003 12.6746Z" fill="#F8B805"/>
</g>
<g clip-path="url(#clip2_1698_264)">
<path d="M52.5003 12.6746L47.798 15.3067L48.8482 10.0212L44.8918 6.36246L50.2432 5.72797L52.5003 0.834595L54.7574 5.72797L60.1087 6.36246L56.1524 10.0212L57.2026 15.3067L52.5003 12.6746Z" fill="#F8B805"/>
</g>
<g clip-path="url(#clip3_1698_264)">
<path d="M74.5003 12.6746L69.798 15.3067L70.8482 10.0212L66.8918 6.36246L72.2432 5.72797L74.5003 0.834595L76.7574 5.72797L82.1087 6.36246L78.1524 10.0212L79.2026 15.3067L74.5003 12.6746Z" fill="#F8B805"/>
</g>
<g clip-path="url(#clip4_1698_264)">
<path d="M96.5003 12.6746L91.798 15.3067L92.8482 10.0212L88.8918 6.36246L94.2432 5.72797L96.5003 0.834595L98.7574 5.72797L104.109 6.36246L100.152 10.0212L101.203 15.3067L96.5003 12.6746Z" fill="#F8B805"/>
</g>
<defs>
<clipPath id="clip0_1698_264">
<rect width="16" height="16" fill="white" transform="translate(0.5 0.501221)"/>
</clipPath>
<clipPath id="clip1_1698_264">
<rect width="16" height="16" fill="white" transform="translate(22.5 0.501221)"/>
</clipPath>
<clipPath id="clip2_1698_264">
<rect width="16" height="16" fill="white" transform="translate(44.5 0.501221)"/>
</clipPath>
<clipPath id="clip3_1698_264">
<rect width="16" height="16" fill="white" transform="translate(66.5 0.501221)"/>
</clipPath>
<clipPath id="clip4_1698_264">
<rect width="16" height="16" fill="white" transform="translate(88.5 0.501221)"/>
</clipPath>
</defs>
</svg>
