<svg width="33" height="32" viewBox="0 0 33 32" fill="none" xmlns="http://www.w3.org/2000/svg">
<path d="M31.2919 13.2193L18.2394 13.2186C17.663 13.2186 17.1958 13.6858 17.1958 14.2621V18.4318C17.1958 19.0081 17.663 19.4753 18.2393 19.4753H25.5897C24.7848 21.5641 23.2825 23.3134 21.3659 24.4249L24.5001 29.8505C29.5277 26.9428 32.5001 21.841 32.5001 16.1299C32.5001 15.3167 32.4402 14.7354 32.3203 14.0808C32.2292 13.5835 31.7974 13.2193 31.2919 13.2193Z" fill="#167EE6"/>
<path d="M16.4999 25.7404C12.9028 25.7404 9.76257 23.775 8.07601 20.8667L2.65063 23.9938C5.41157 28.779 10.5837 32.0013 16.4999 32.0013C19.4023 32.0013 22.1408 31.2198 24.4999 29.858V29.8506L21.3658 24.4249C19.9321 25.2564 18.2731 25.7404 16.4999 25.7404Z" fill="#12B347"/>
<path d="M24.5 29.858V29.8506L21.3658 24.4249C19.9322 25.2564 18.2733 25.7404 16.5 25.7404V32.0012C19.4023 32.0012 22.141 31.2198 24.5 29.858Z" fill="#0F993E"/>
<path d="M6.76088 16.0012C6.76088 14.2282 7.24475 12.5694 8.07606 11.1358L2.65069 8.00867C1.28137 10.3604 0.5 13.0915 0.5 16.0012C0.5 18.911 1.28137 21.6421 2.65069 23.9938L8.07606 20.8667C7.24475 19.4331 6.76088 17.7743 6.76088 16.0012Z" fill="#FFD500"/>
<path d="M16.4999 6.2621C18.8456 6.2621 21.0003 7.0956 22.6832 8.48203C23.0984 8.82403 23.7018 8.79935 24.0821 8.41903L27.0365 5.46466C27.468 5.03316 27.4373 4.32685 26.9763 3.92697C24.1566 1.48078 20.4879 0.0012207 16.4999 0.0012207C10.5837 0.0012207 5.41157 3.22353 2.65063 8.00866L8.07601 11.1358C9.76257 8.22747 12.9028 6.2621 16.4999 6.2621Z" fill="#FF4B26"/>
<path d="M22.6833 8.48203C23.0984 8.82403 23.7019 8.79935 24.0822 8.41903L27.0366 5.46466C27.468 5.03316 27.4373 4.32685 26.9764 3.92697C24.1567 1.48072 20.4879 0.0012207 16.5 0.0012207V6.2621C18.8456 6.2621 21.0003 7.0956 22.6833 8.48203Z" fill="#D93F21"/>
</svg>
