<svg width="25" height="25" viewBox="0 0 25 25" fill="none" xmlns="http://www.w3.org/2000/svg">
<path d="M15.4658 21.5884V14.5938H17.8078L18.1584 11.8746H15.4658V10.1386C15.4658 9.35129 15.6843 8.81476 16.8133 8.81476L18.2533 8.81409V6.38209C18.0041 6.34901 17.1495 6.27495 16.1551 6.27495C14.0789 6.27495 12.6577 7.54212 12.6577 9.86932V11.8746H10.3097V14.5938H12.6577V21.5884H4.01589C3.4613 21.5884 3.01172 21.1389 3.01172 20.5843V4.51759C3.01172 3.96301 3.4613 3.51343 4.01589 3.51343H20.0826C20.6372 3.51343 21.0867 3.96301 21.0867 4.51759V20.5843C21.0867 21.1389 20.6372 21.5884 20.0826 21.5884H15.4658Z" fill="white"/>
</svg>
