<svg width="25" height="25" viewBox="0 0 25 25" fill="none" xmlns="http://www.w3.org/2000/svg">
<path d="M13.6705 2.5105C14.8006 2.51237 15.3732 2.51834 15.8681 2.53307L16.063 2.53945C16.2881 2.54745 16.5103 2.55749 16.7781 2.57005C17.8466 2.61941 18.5755 2.78845 19.2157 3.03698C19.8775 3.2922 20.4366 3.63697 20.9947 4.19512C21.552 4.75326 21.8968 5.31393 22.1529 5.97417C22.4005 6.61348 22.5696 7.34318 22.6198 8.41178C22.6318 8.67956 22.6414 8.90168 22.6493 9.12686L22.6557 9.32175C22.6703 9.81655 22.677 10.3893 22.6792 11.5194L22.68 12.2682C22.6801 12.3597 22.6801 12.4541 22.6801 12.5515L22.68 12.8348L22.6794 13.5836C22.6775 14.7137 22.6715 15.2863 22.6568 15.7812L22.6503 15.9761C22.6424 16.2012 22.6324 16.4233 22.6198 16.6912C22.5704 17.7597 22.4005 18.4886 22.1529 19.1288C21.8976 19.7906 21.552 20.3496 20.9947 20.9078C20.4366 21.4651 19.875 21.8099 19.2157 22.066C18.5755 22.3136 17.8466 22.4827 16.7781 22.5329C16.5103 22.5448 16.2881 22.5545 16.063 22.5624L15.8681 22.5687C15.3732 22.5834 14.8006 22.5901 13.6705 22.5922L12.9217 22.593C12.8302 22.5931 12.7358 22.5931 12.6384 22.5931L12.3551 22.593L11.6063 22.5924C10.4762 22.5905 9.90347 22.5846 9.40866 22.5699L9.21378 22.5634C8.98859 22.5555 8.76647 22.5454 8.4987 22.5329C7.43009 22.4835 6.70207 22.3136 6.06108 22.066C5.4 21.8107 4.84018 21.4651 4.28203 20.9078C3.72389 20.3496 3.37996 19.7881 3.1239 19.1288C2.87537 18.4886 2.70717 17.7597 2.65696 16.6912C2.64503 16.4233 2.6353 16.2012 2.62742 15.9761L2.6211 15.7812C2.60641 15.2863 2.59971 14.7137 2.59754 13.5836L2.59741 11.5194C2.59928 10.3893 2.60525 9.81655 2.61999 9.32175L2.62636 9.12686C2.63437 8.90168 2.64441 8.67956 2.65696 8.41178C2.70632 7.34235 2.87537 6.61433 3.1239 5.97417C3.37912 5.31309 3.72389 4.75326 4.28203 4.19512C4.84018 3.63697 5.40084 3.29305 6.06108 3.03698C6.70124 2.78845 7.42926 2.62025 8.4987 2.57005C8.76647 2.55812 8.98859 2.54839 9.21378 2.5405L9.40866 2.53419C9.90347 2.5195 10.4762 2.5128 11.6063 2.51063L13.6705 2.5105ZM12.6384 7.53063C9.86396 7.53063 7.61754 9.77949 7.61754 12.5515C7.61754 15.3259 9.8664 17.5723 12.6384 17.5723C15.4128 17.5723 17.6592 15.3234 17.6592 12.5515C17.6592 9.77705 15.4103 7.53063 12.6384 7.53063ZM12.6384 9.53896C14.3022 9.53896 15.6509 10.8872 15.6509 12.5515C15.6509 14.2153 14.3026 15.564 12.6384 15.564C10.9746 15.564 9.62588 14.2157 9.62588 12.5515C9.62588 10.8877 10.9741 9.53896 12.6384 9.53896ZM17.9103 6.02438C17.2181 6.02438 16.6551 6.58661 16.6551 7.27873C16.6551 7.97085 17.2173 8.53395 17.9103 8.53395C18.6023 8.53395 19.1655 7.97172 19.1655 7.27873C19.1655 6.58661 18.6014 6.0235 17.9103 6.02438Z" fill="white"/>
</svg>
