<svg width="25" height="25" viewBox="0 0 25 25" fill="none" xmlns="http://www.w3.org/2000/svg">
<path d="M18.6032 18.9166H15.9266V14.7224C15.9266 13.7222 15.9063 12.4352 14.5318 12.4352C13.1363 12.4352 12.9231 13.5235 12.9231 14.6486V18.9166H10.2465V10.2918H12.8177V11.4674H12.8524C13.2116 10.7896 14.0853 10.0741 15.3904 10.0741C18.1024 10.0741 18.604 11.8591 18.604 14.1824L18.6032 18.9166ZM7.22353 9.11165C6.36195 9.11165 5.66983 8.41426 5.66983 7.55645C5.66983 6.69939 6.36271 6.00275 7.22353 6.00275C8.08209 6.00275 8.77798 6.69939 8.77798 7.55645C8.77798 8.41426 8.08134 9.11165 7.22353 9.11165ZM8.5656 18.9166H5.88146V10.2918H8.5656V18.9166ZM19.9423 3.51367H4.53789C3.80058 3.51367 3.2041 4.09659 3.2041 4.81582V20.2866C3.2041 21.0065 3.80058 21.5887 4.53789 21.5887H19.9401C20.6766 21.5887 21.2791 21.0065 21.2791 20.2866V4.81582C21.2791 4.09659 20.6766 3.51367 19.9401 3.51367H19.9423Z" fill="white"/>
</svg>
