<svg width="21" height="17" viewBox="0 0 21 17" fill="none" xmlns="http://www.w3.org/2000/svg">
<path d="M11.0883 0.517822C11.6247 0.520775 12.9665 0.533748 14.3923 0.590855L14.8977 0.612897C16.3332 0.680859 17.7675 0.796961 18.4788 0.995304C19.4276 1.26186 20.1734 2.03964 20.4255 3.02555C20.8268 4.59113 20.8771 7.6468 20.8833 8.38627L20.8842 8.53951V8.55025C20.8842 8.55025 20.8842 8.55397 20.8842 8.5611L20.8833 8.71433C20.8771 9.4538 20.8268 12.5095 20.4255 14.0751C20.1699 15.0646 19.4241 15.8424 18.4788 16.1053C17.7675 16.3036 16.3332 16.4197 14.8977 16.4877L14.3923 16.5097C12.9665 16.5668 11.6247 16.5798 11.0883 16.5828L10.853 16.5836H10.8425C10.8425 16.5836 10.839 16.5836 10.8321 16.5836L10.5969 16.5828C9.46179 16.5766 4.71572 16.5252 3.20624 16.1053C2.2574 15.8387 1.51162 15.061 1.25953 14.0751C0.858192 12.5095 0.808024 9.4538 0.801758 8.71433V8.38627C0.808024 7.6468 0.858192 4.59113 1.25953 3.02555C1.51512 2.03598 2.26089 1.25821 3.20624 0.995304C4.71572 0.575291 9.46179 0.524068 10.5969 0.517822H11.0883ZM8.8342 5.03571V12.0648L14.8592 8.55025L8.8342 5.03571Z" fill="white"/>
</svg>
