<svg width="40" height="40" viewBox="0 0 40 40" fill="none" xmlns="http://www.w3.org/2000/svg">
<path d="M26.8601 11.6463L26.8484 11.6404C26.8542 11.6463 26.8601 11.658 26.8718 11.6638C26.866 11.658 26.8601 11.6521 26.8601 11.6463ZM27.6867 10.128L27.6984 10.1456L27.7101 10.1514C27.7042 10.1456 27.6984 10.1339 27.6867 10.128ZM27.6867 10.128L27.6984 10.1456L27.7101 10.1514C27.7042 10.1456 27.6984 10.1339 27.6867 10.128ZM26.8601 11.6463L26.8484 11.6404C26.8542 11.6463 26.8601 11.658 26.8718 11.6638C26.866 11.658 26.8601 11.6521 26.8601 11.6463Z" fill="#29323B"/>
<path d="M38.2559 15.398L30.8639 5.86044C30.0549 4.817 28.5483 4.62357 27.5049 5.43833L25.9866 6.61075C25.4766 7.00357 25.1542 7.5663 25.078 8.20528C24.9959 8.83841 25.1659 9.47146 25.5587 9.9756L26.1214 10.7025L24.5914 12.3262L17.2228 13.7038L15.9332 12.0565C16.8887 11.1772 16.9532 9.78208 16.2028 8.82653L15.0187 7.31419C14.198 6.27075 12.6915 6.08903 11.6539 6.90974L2.15737 14.3545C1.11979 15.1752 0.938072 16.6818 1.75292 17.7193L2.93706 19.2318C3.67565 20.1755 4.98292 20.4218 6.00878 19.8356L8.67596 23.2356L6.91737 24.66C6.03221 25.3752 5.89737 26.6649 6.6126 27.5442C6.85292 27.8432 7.16948 28.0483 7.50362 28.1715C6.82948 28.9042 6.77088 30.0415 7.41573 30.8386C8.04299 31.6183 9.13331 31.8235 9.99502 31.3545C10.0419 31.7297 10.1885 32.0931 10.4347 32.3979C11.144 33.2831 12.4396 33.4121 13.3189 32.7027L13.5357 32.5268C13.5592 32.9372 13.7057 33.33 13.9695 33.6523C14.6671 34.514 15.9274 34.6489 16.7832 33.9513L17.1232 33.6817L17.5042 34.1741C18.3015 35.1883 19.7728 35.3641 20.7811 34.5668C21.2149 34.2268 21.508 33.7579 21.6253 33.2244C22.3697 33.5058 23.2314 33.4061 23.8997 32.8786C24.2983 32.5679 24.5797 32.1458 24.7087 31.671C25.4942 32.0697 26.4673 32.0051 27.206 31.4248C27.4661 31.2209 27.6797 30.9637 27.8324 30.6705C27.985 30.3773 28.0733 30.0549 28.0911 29.7248C28.777 29.8479 29.4394 29.672 29.9553 29.2676C30.9694 28.4762 31.1453 27.0048 30.3539 25.9965L29.158 24.4431C29.0407 24.4431 28.9294 24.4197 28.818 24.3844L33.8417 20.2165C34.6859 20.6035 35.6239 20.4686 36.3097 19.9411L37.828 18.7628C38.3321 18.37 38.6604 17.8072 38.7366 17.1683C38.8186 16.5352 38.6486 15.908 38.2559 15.398ZM27.71 10.1515C27.7217 10.169 27.7276 10.1808 27.7276 10.1866C27.7159 10.169 27.71 10.1573 27.6983 10.1456L27.6866 10.128C27.6983 10.1339 27.7042 10.1456 27.71 10.1515ZM7.52112 26.8055C7.21628 26.4304 7.27495 25.8735 7.6501 25.5686L10.2998 23.429C10.3894 23.356 10.4925 23.3014 10.6032 23.2684C10.7139 23.2354 10.8301 23.2246 10.945 23.2366C11.0599 23.2485 11.1714 23.2831 11.2729 23.3382C11.3744 23.3934 11.4641 23.4681 11.5367 23.5579C11.8415 23.9331 11.7829 24.49 11.4077 24.7948L8.75799 26.9404C8.38284 27.2451 7.82596 27.1865 7.52112 26.8055ZM9.56698 30.2348C9.19182 30.5396 8.63487 30.481 8.3301 30.1058C8.02526 29.7248 8.08385 29.1738 8.45909 28.869L12.2871 25.7679C12.6622 25.469 13.2132 25.5158 13.5239 25.8969C13.8288 26.2779 13.7701 26.829 13.3949 27.1338L9.56698 30.2348ZM12.5801 31.7941C12.1991 32.099 11.648 32.0345 11.3432 31.6593C11.0384 31.2841 11.097 30.7272 11.4722 30.4224L14.1219 28.2827C14.2115 28.2097 14.3146 28.1552 14.4253 28.1221C14.536 28.0891 14.6522 28.0783 14.7671 28.0903C14.8821 28.1023 14.9935 28.1368 15.095 28.192C15.1965 28.2471 15.2862 28.3218 15.3588 28.4117C15.6636 28.7868 15.6049 29.3438 15.2298 29.6486L12.5801 31.7941ZM17.2346 32.0814L16.0446 33.0428C15.6987 33.3242 15.1711 33.2773 14.8839 32.9197C14.5907 32.5621 14.6493 32.0404 15.0011 31.7531L16.1911 30.7917C16.5487 30.5044 17.0704 30.5631 17.3577 30.9148C17.6449 31.2665 17.5921 31.7941 17.2346 32.0814ZM29.4276 26.7118C29.8203 27.2159 29.7324 27.9486 29.2283 28.3472C28.7183 28.7458 27.9914 28.6462 27.5987 28.1479L24.3628 24.0211C24.1635 23.769 23.7942 23.7221 23.5422 23.9215C23.2842 24.1266 23.2432 24.49 23.4425 24.748L26.6784 28.8749C27.0711 29.379 26.9832 30.1059 26.4791 30.5045C25.9749 30.8973 25.2481 30.8093 24.8495 30.3052L21.6136 26.1842C21.4143 25.9262 21.045 25.8852 20.7929 26.0846C20.5349 26.2839 20.4939 26.6532 20.6932 26.9053L23.3722 30.3287C23.7708 30.8329 23.6829 31.5597 23.1788 31.9584C22.6746 32.3511 21.9478 32.2691 21.5492 31.7591L18.495 27.8726C18.2957 27.6146 17.9264 27.5736 17.6743 27.7729C17.4164 27.9722 17.3753 28.3415 17.5746 28.5936L20.2536 32.0171C20.6522 32.5212 20.5643 33.2481 20.0602 33.6468C19.556 34.0395 18.8232 33.9575 18.4305 33.4475L18.026 32.9375C18.8292 32.234 18.9464 31.0147 18.2664 30.1765C17.862 29.6723 17.264 29.432 16.6602 29.4437C16.8243 28.7637 16.6543 28.1483 16.2674 27.6734C15.8981 27.2161 15.3706 26.9641 14.8313 26.923C14.9896 26.2489 14.8196 25.6393 14.4385 25.1644C14.0751 24.7189 13.5475 24.42 12.8734 24.4141C12.9671 23.7868 12.7854 23.2417 12.4454 22.8196C11.742 21.952 10.4699 21.8113 9.59057 22.4972L6.94682 19.1323L15.0247 12.7954L16.2381 14.3489C14.544 16.6175 13.8347 19.6306 14.6964 21.1313C15.5816 22.673 17.7916 22.21 18.9171 20.7327L20.793 18.2647L22.5809 18.5637L23.214 18.6693C23.214 18.6693 23.2199 18.681 23.2374 18.6986L23.2433 18.7045C23.2433 18.7104 23.2492 18.7221 23.2609 18.7279C23.2726 18.7455 23.2785 18.7514 23.2785 18.7514C23.4836 19.0269 24.3278 20.1114 27.2119 23.8455V23.8514L29.4276 26.7118ZM28.3314 23.2648C25.2128 19.3079 24.2983 18.1472 24.0697 17.86C24.0697 17.86 24.058 17.8483 24.0463 17.8307L24.0404 17.8248C24.0346 17.819 24.0346 17.8131 24.0287 17.8072L24.017 17.7897L23.9994 17.7721C23.9114 17.6548 23.7767 17.5786 23.636 17.5493L20.6405 17.0452C20.4236 17.01 20.2067 17.0979 20.0718 17.2679L17.9791 20.0231C17.3929 20.7969 16.1442 21.2952 15.7105 20.5448C15.1419 19.5483 15.7164 16.8986 17.305 14.8821L24.996 13.44C25.1182 13.4171 25.2306 13.3578 25.3185 13.27L26.8485 11.6403L26.8602 11.6461C26.8602 11.652 26.866 11.6579 26.8719 11.6637C26.8719 11.6696 26.8778 11.6696 26.8778 11.6754C26.8778 11.6754 26.8836 11.6872 26.8953 11.6989L26.9071 11.7106C26.9246 11.7399 26.9481 11.7693 26.9481 11.7693C27.2764 12.203 28.5601 13.8737 32.8687 19.5013L28.3314 23.2648Z" fill="#29323B"/>
<rect x="25.5864" y="8.36835" width="5" height="14.4116" rx="1" transform="rotate(-38.9359 25.5864 8.36835)" fill="#0071DC"/>
<rect width="5" height="14.4116" rx="1" transform="matrix(-0.621664 -0.783284 -0.783284 0.621664 16.3967 9.91644)" fill="#0071DC"/>
</svg>
