<svg width="33" height="32" viewBox="0 0 33 32" fill="none" xmlns="http://www.w3.org/2000/svg">
<g clip-path="url(#clip0_1655_461)">
<path d="M16.4994 2.66663L16.9314 2.67329C20.4283 2.78665 23.7406 4.27002 26.1538 6.80344C28.567 9.33686 29.8876 12.7173 29.8309 16.2157C29.7742 19.714 28.3447 23.0499 25.8508 25.5038C23.3568 27.9577 19.9982 29.333 16.4994 29.333C13.0005 29.333 9.64194 27.9577 7.14795 25.5038C4.65396 23.0499 3.22446 19.714 3.16777 16.2157C3.11108 12.7173 4.43175 9.33686 6.84492 6.80344C9.2581 4.27002 12.5704 2.78665 16.0674 2.67329L16.4994 2.66663ZM17.3167 9.61329C17.0487 9.40608 16.7119 9.30864 16.3747 9.34076C16.0374 9.37289 15.7251 9.53217 15.501 9.78625C15.277 10.0403 15.158 10.3702 15.1684 10.7088C15.1787 11.0474 15.3176 11.3693 15.5567 11.6093L18.6114 14.6666H11.166L11.01 14.676C10.6726 14.7161 10.3632 14.8836 10.145 15.1442C9.92692 15.4048 9.81654 15.7388 9.83646 16.0781C9.85637 16.4174 10.0051 16.7362 10.2522 16.9695C10.4993 17.2028 10.8262 17.3329 11.166 17.3333H18.6114L15.5567 20.3906L15.446 20.516C15.2388 20.7839 15.1414 21.1208 15.1735 21.458C15.2056 21.7952 15.3649 22.1076 15.619 22.3316C15.8731 22.5557 16.2029 22.6746 16.5415 22.6643C16.8801 22.6539 17.2021 22.5151 17.442 22.276L22.7754 16.9426L22.8727 16.8333L22.958 16.7146L23.0407 16.564L23.0994 16.4173L23.1394 16.268L23.162 16.1L23.166 16L23.1567 15.8426L23.118 15.6453L23.0714 15.5053L22.9994 15.3546L22.9047 15.2066C22.8653 15.1537 22.8221 15.1038 22.7754 15.0573L17.442 9.72396L17.3167 9.61329Z" fill="white"/>
</g>
<defs>
<clipPath id="clip0_1655_461">
<rect width="32" height="32" fill="white" transform="translate(0.5)"/>
</clipPath>
</defs>
</svg>
