<svg width="40" height="40" viewBox="0 0 40 40" fill="none" xmlns="http://www.w3.org/2000/svg">
<path d="M7.5 23.75H1.25V35.625C1.25 36.4538 1.57924 37.2487 2.16529 37.8347C2.75134 38.4208 3.5462 38.75 4.375 38.75H7.5" fill="#0071DC"/>
<path d="M23.75 16.25H36.25V21.25H23.75V16.25Z" fill="#DDDDDD"/>
<path d="M33.75 28.75H36.25V36.25H33.75V28.75ZM33.75 23.75H36.25V26.25H33.75V23.75ZM28.75 23.75H31.25V26.25H28.75V23.75ZM23.75 23.75H26.25V26.25H23.75V23.75ZM28.75 28.75H31.25V31.25H28.75V28.75ZM23.75 28.75H26.25V31.25H23.75V28.75ZM28.75 33.75H31.25V36.25H28.75V33.75ZM23.75 33.75H26.25V36.25H23.75V33.75Z" fill="white"/>
<path d="M21.25 18.75H9.375V22.5H21.25M11.2506 7.5H12.5006V4.375H13.7506V3.125H10.0006V4.375H11.2506V7.5ZM15.625 6.875H16.875V7.5H18.125V5C18.125 4.83425 18.0591 4.67531 17.9419 4.55813L16.6919 3.30813C16.5747 3.19096 16.4157 3.12513 16.25 3.12513C16.0843 3.12513 15.9253 3.19096 15.8081 3.30813L14.5581 4.55813C14.4409 4.67531 14.375 4.83425 14.375 5V7.5H15.625V6.875ZM16.25 4.63375L16.875 5.25875V5.625H15.625V5.25875L16.25 4.63375ZM20 6.5625L20.625 6.09375L21.25 6.5625V7.5H22.5V6.25C22.5 6.15297 22.4774 6.05728 22.434 5.97049C22.3906 5.88371 22.3276 5.80822 22.25 5.75L21.6663 5.3125L22.25 4.875C22.3276 4.81678 22.3906 4.74129 22.434 4.65451C22.4774 4.56772 22.5 4.47203 22.5 4.375V3.125H21.25V4.0625L20.625 4.53125L20 4.0625V3.125H18.75V4.375C18.75 4.47203 18.7726 4.56772 18.816 4.65451C18.8594 4.74129 18.9224 4.81678 19 4.875L19.5837 5.3125L19 5.75C18.9224 5.80822 18.8594 5.88371 18.816 5.97049C18.7726 6.05728 18.75 6.15297 18.75 6.25V7.5H20V6.5625ZM10.0006 8.75H22.5V10H10.0006V8.75ZM9.37563 13.125H16.2506V14.375H9.37563V13.125ZM9.37563 15.625H21.25V16.875H9.37563V15.625ZM9.37563 24.375H16.2506V25.625H9.37563V24.375ZM9.37563 26.875H18.1256V28.125H9.37563V26.875ZM9.37563 29.375H21.25V30.625H9.37563V29.375ZM9.375 31.875H21.25V33.125H9.375V31.875ZM9.37563 34.375H21.25V35.625H9.37563V34.375Z" fill="#0071DC"/>
<path d="M20 18.75H21.25V22.5H20V18.75ZM20 15.625H21.25V16.875H20V15.625ZM20 29.375H21.25V30.625H20V29.375ZM20 31.875H21.25V33.125H20V31.875ZM20 34.375H21.25V35.625H20V34.375Z" fill="#DDDDDD"/>
<path d="M24.375 16.25H36.25V20.625H24.375V16.25Z" fill="#0071DC"/>
<path d="M36.875 13.125H34.375V1.25C34.375 1.08424 34.3092 0.925268 34.1919 0.808058C34.0747 0.690848 33.9158 0.625 33.75 0.625H7.5C7.33424 0.625 7.17527 0.690848 7.05806 0.808058C6.94085 0.925268 6.875 1.08424 6.875 1.25V23.125H1.25C1.08424 23.125 0.925268 23.1908 0.808058 23.3081C0.690848 23.4253 0.625 23.5842 0.625 23.75V35.625C0.625993 36.6193 1.0214 37.5725 1.72445 38.2756C2.42749 38.9786 3.38074 39.374 4.375 39.375H36.875C37.538 39.375 38.1739 39.1116 38.6428 38.6428C39.1116 38.1739 39.375 37.538 39.375 36.875V15.625C39.375 14.962 39.1116 14.3261 38.6428 13.8572C38.1739 13.3884 37.538 13.125 36.875 13.125ZM4.375 38.125C3.71196 38.125 3.07607 37.8616 2.60723 37.3928C2.13839 36.9239 1.875 36.288 1.875 35.625V24.375H6.875V35.625C6.875 36.288 6.61161 36.9239 6.14277 37.3928C5.67393 37.8616 5.03804 38.125 4.375 38.125ZM8.125 35.625V1.875H33.125V13.125H23.125C22.462 13.125 21.8261 13.3884 21.3572 13.8572C20.8884 14.3261 20.625 14.962 20.625 15.625H9.375V16.875H20.625V18.125H10C9.83424 18.125 9.67527 18.1908 9.55806 18.3081C9.44085 18.4253 9.375 18.5842 9.375 18.75V22.5C9.375 22.6658 9.44085 22.8247 9.55806 22.9419C9.67527 23.0592 9.83424 23.125 10 23.125H20.625V29.375H9.375V30.625H20.625V31.875H9.375V33.125H20.625V34.375H9.375V35.625H20.625V36.875C20.6276 37.3152 20.7475 37.7467 20.9725 38.125H7.16813C7.7848 37.4384 8.12564 36.5479 8.125 35.625ZM20.625 21.875H10.625V19.375H20.625V21.875ZM38.125 36.875C38.125 37.2065 37.9933 37.5245 37.7589 37.7589C37.5245 37.9933 37.2065 38.125 36.875 38.125H23.125C22.7935 38.125 22.4755 37.9933 22.2411 37.7589C22.0067 37.5245 21.875 37.2065 21.875 36.875V15.625C21.875 15.2935 22.0067 14.9755 22.2411 14.7411C22.4755 14.5067 22.7935 14.375 23.125 14.375H36.875C37.2065 14.375 37.5245 14.5067 37.7589 14.7411C37.9933 14.9755 38.125 15.2935 38.125 15.625V36.875Z" fill="#29323B"/>
<path d="M36.2501 15.625H23.7501C23.5843 15.625 23.4254 15.6908 23.3082 15.8081C23.191 15.9253 23.1251 16.0842 23.1251 16.25V21.25C23.1251 21.4158 23.191 21.5747 23.3082 21.6919C23.4254 21.8092 23.5843 21.875 23.7501 21.875H36.2501C36.4159 21.875 36.5748 21.8092 36.6921 21.6919C36.8093 21.5747 36.8751 21.4158 36.8751 21.25V16.25C36.8751 16.0842 36.8093 15.9253 36.6921 15.8081C36.5748 15.6908 36.4159 15.625 36.2501 15.625ZM35.6251 20.625H24.3751V16.875H35.6251V20.625ZM36.2501 28.125H33.7501C33.5843 28.125 33.4254 28.1908 33.3082 28.3081C33.191 28.4253 33.1251 28.5842 33.1251 28.75V36.25C33.1251 36.4158 33.191 36.5747 33.3082 36.6919C33.4254 36.8092 33.5843 36.875 33.7501 36.875H36.2501C36.4159 36.875 36.5748 36.8092 36.6921 36.6919C36.8093 36.5747 36.8751 36.4158 36.8751 36.25V28.75C36.8751 28.5842 36.8093 28.4253 36.6921 28.3081C36.5748 28.1908 36.4159 28.125 36.2501 28.125ZM35.6251 35.625H34.3751V29.375H35.6251V35.625ZM36.2501 23.125H33.7501C33.5843 23.125 33.4254 23.1908 33.3082 23.3081C33.191 23.4253 33.1251 23.5842 33.1251 23.75V26.25C33.1251 26.4158 33.191 26.5747 33.3082 26.6919C33.4254 26.8092 33.5843 26.875 33.7501 26.875H36.2501C36.4159 26.875 36.5748 26.8092 36.6921 26.6919C36.8093 26.5747 36.8751 26.4158 36.8751 26.25V23.75C36.8751 23.5842 36.8093 23.4253 36.6921 23.3081C36.5748 23.1908 36.4159 23.125 36.2501 23.125ZM35.6251 25.625H34.3751V24.375H35.6251V25.625ZM31.2501 23.125H28.7501C28.5843 23.125 28.4254 23.1908 28.3082 23.3081C28.191 23.4253 28.1251 23.5842 28.1251 23.75V26.25C28.1251 26.4158 28.191 26.5747 28.3082 26.6919C28.4254 26.8092 28.5843 26.875 28.7501 26.875H31.2501C31.4159 26.875 31.5748 26.8092 31.6921 26.6919C31.8093 26.5747 31.8751 26.4158 31.8751 26.25V23.75C31.8751 23.5842 31.8093 23.4253 31.6921 23.3081C31.5748 23.1908 31.4159 23.125 31.2501 23.125ZM30.6251 25.625H29.3751V24.375H30.6251V25.625ZM26.2501 23.125H23.7501C23.5843 23.125 23.4254 23.1908 23.3082 23.3081C23.191 23.4253 23.1251 23.5842 23.1251 23.75V26.25C23.1251 26.4158 23.191 26.5747 23.3082 26.6919C23.4254 26.8092 23.5843 26.875 23.7501 26.875H26.2501C26.4159 26.875 26.5748 26.8092 26.6921 26.6919C26.8093 26.5747 26.8751 26.4158 26.8751 26.25V23.75C26.8751 23.5842 26.8093 23.4253 26.6921 23.3081C26.5748 23.1908 26.4159 23.125 26.2501 23.125ZM25.6251 25.625H24.3751V24.375H25.6251V25.625ZM31.2501 28.125H28.7501C28.5843 28.125 28.4254 28.1908 28.3082 28.3081C28.191 28.4253 28.1251 28.5842 28.1251 28.75V31.25C28.1251 31.4158 28.191 31.5747 28.3082 31.6919C28.4254 31.8092 28.5843 31.875 28.7501 31.875H31.2501C31.4159 31.875 31.5748 31.8092 31.6921 31.6919C31.8093 31.5747 31.8751 31.4158 31.8751 31.25V28.75C31.8751 28.5842 31.8093 28.4253 31.6921 28.3081C31.5748 28.1908 31.4159 28.125 31.2501 28.125ZM30.6251 30.625H29.3751V29.375H30.6251V30.625ZM26.2501 28.125H23.7501C23.5843 28.125 23.4254 28.1908 23.3082 28.3081C23.191 28.4253 23.1251 28.5842 23.1251 28.75V31.25C23.1251 31.4158 23.191 31.5747 23.3082 31.6919C23.4254 31.8092 23.5843 31.875 23.7501 31.875H26.2501C26.4159 31.875 26.5748 31.8092 26.6921 31.6919C26.8093 31.5747 26.8751 31.4158 26.8751 31.25V28.75C26.8751 28.5842 26.8093 28.4253 26.6921 28.3081C26.5748 28.1908 26.4159 28.125 26.2501 28.125ZM25.6251 30.625H24.3751V29.375H25.6251V30.625ZM31.2501 33.125H28.7501C28.5843 33.125 28.4254 33.1908 28.3082 33.3081C28.191 33.4253 28.1251 33.5842 28.1251 33.75V36.25C28.1251 36.4158 28.191 36.5747 28.3082 36.6919C28.4254 36.8092 28.5843 36.875 28.7501 36.875H31.2501C31.4159 36.875 31.5748 36.8092 31.6921 36.6919C31.8093 36.5747 31.8751 36.4158 31.8751 36.25V33.75C31.8751 33.5842 31.8093 33.4253 31.6921 33.3081C31.5748 33.1908 31.4159 33.125 31.2501 33.125ZM30.6251 35.625H29.3751V34.375H30.6251V35.625ZM26.2501 33.125H23.7501C23.5843 33.125 23.4254 33.1908 23.3082 33.3081C23.191 33.4253 23.1251 33.5842 23.1251 33.75V36.25C23.1251 36.4158 23.191 36.5747 23.3082 36.6919C23.4254 36.8092 23.5843 36.875 23.7501 36.875H26.2501C26.4159 36.875 26.5748 36.8092 26.6921 36.6919C26.8093 36.5747 26.8751 36.4158 26.8751 36.25V33.75C26.8751 33.5842 26.8093 33.4253 26.6921 33.3081C26.5748 33.1908 26.4159 33.125 26.2501 33.125ZM25.6251 35.625H24.3751V34.375H25.6251V35.625ZM11.2507 7.5H12.5007V4.375H13.7507V3.125H10.0007V4.375H11.2507V7.5ZM15.6251 6.875H16.8751V7.5H18.1251V5C18.1251 4.83425 18.0592 4.67531 17.942 4.55813L16.692 3.30813C16.5748 3.19096 16.4158 3.12513 16.2501 3.12513C16.0844 3.12513 15.9254 3.19096 15.8082 3.30813L14.5582 4.55813C14.441 4.67531 14.3751 4.83425 14.3751 5V7.5H15.6251V6.875ZM16.2501 4.63375L16.8751 5.25875V5.625H15.6251V5.25875L16.2501 4.63375ZM20.0001 6.5625L20.6251 6.09375L21.2501 6.5625V7.5H22.5001V6.25C22.5001 6.15297 22.4775 6.05728 22.4341 5.97049C22.3907 5.88371 22.3277 5.80822 22.2501 5.75L21.6664 5.3125L22.2501 4.875C22.3277 4.81678 22.3907 4.74129 22.4341 4.65451C22.4775 4.56772 22.5001 4.47203 22.5001 4.375V3.125H21.2501V4.0625L20.6251 4.53125L20.0001 4.0625V3.125H18.7501V4.375C18.7501 4.47203 18.7727 4.56772 18.8161 4.65451C18.8595 4.74129 18.9225 4.81678 19.0001 4.875L19.5839 5.3125L19.0001 5.75C18.9225 5.80822 18.8595 5.88371 18.8161 5.97049C18.7727 6.05728 18.7501 6.15297 18.7501 6.25V7.5H20.0001V6.5625ZM10.0007 8.75H22.5007V10H10.0007V8.75ZM28.7501 8.125C28.5843 8.125 28.4254 8.05915 28.3082 7.94194C28.191 7.82473 28.1251 7.66576 28.1251 7.5H26.8751C26.8767 7.88641 26.9977 8.26289 27.2214 8.57794C27.4452 8.89298 27.7608 9.1312 28.1251 9.26V10H29.3751V9.26C29.7918 9.11324 30.1431 8.82374 30.3668 8.44279C30.5904 8.06184 30.6721 7.61402 30.5972 7.17864C30.5224 6.74326 30.2958 6.34842 29.9578 6.06406C29.6197 5.7797 29.1919 5.62416 28.7501 5.625C28.6265 5.625 28.5057 5.58834 28.4029 5.51967C28.3001 5.45099 28.22 5.35338 28.1727 5.23918C28.1254 5.12497 28.113 4.99931 28.1371 4.87807C28.1612 4.75683 28.2208 4.64547 28.3082 4.55806C28.3956 4.47065 28.5069 4.41112 28.6282 4.38701C28.7494 4.36289 28.8751 4.37527 28.9893 4.42258C29.1035 4.46988 29.2011 4.54999 29.2698 4.65277C29.3385 4.75555 29.3751 4.87639 29.3751 5H30.6251C30.6235 4.61359 30.5026 4.23711 30.2788 3.92206C30.055 3.60702 29.7394 3.3688 29.3751 3.24V2.5H28.1251V3.24C27.7084 3.38676 27.3571 3.67626 27.1335 4.05721C26.9098 4.43816 26.8281 4.88598 26.903 5.32136C26.9778 5.75674 27.2044 6.15158 27.5425 6.43594C27.8805 6.7203 28.3083 6.87584 28.7501 6.875C28.9159 6.875 29.0748 6.94085 29.1921 7.05806C29.3093 7.17527 29.3751 7.33424 29.3751 7.5C29.3751 7.66576 29.3093 7.82473 29.1921 7.94194C29.0748 8.05915 28.9159 8.125 28.7501 8.125ZM9.37573 13.125H16.2507V14.375H9.37573V13.125ZM9.37573 24.375H16.2507V25.625H9.37573V24.375ZM9.37573 26.875H18.1257V28.125H9.37573V26.875Z" fill="#29323B"/>
</svg>
