<svg width="40" height="40" viewBox="0 0 40 40" fill="none" xmlns="http://www.w3.org/2000/svg">
<g clip-path="url(#clip0_1655_524)">
<path d="M20 34C27.732 34 34 27.732 34 20C34 12.268 27.732 6 20 6C12.268 6 6 12.268 6 20C6 27.732 12.268 34 20 34Z" fill="#0071DC"/>
<path d="M34.1422 5.85781C30.3646 2.08039 25.3422 0 20 0C14.6578 0 9.63539 2.08039 5.85781 5.85781C2.08039 9.63539 0 14.6578 0 20C0 25.3422 2.08039 30.3646 5.85781 34.1422C9.63539 37.9196 14.6578 40 20 40C25.3422 40 30.3646 37.9196 34.1422 34.1422C37.9196 30.3646 40 25.3422 40 20C40 14.6578 37.9196 9.63539 34.1422 5.85781ZM33.0351 33.0351C29.5534 36.517 24.924 38.4345 20 38.4345C15.076 38.4345 10.4466 36.517 6.96492 33.0351C3.48305 29.5534 1.56555 24.924 1.56555 20C1.56555 15.076 3.48305 10.4466 6.96492 6.96492C10.4466 3.48305 15.076 1.56555 20 1.56555C24.924 1.56555 29.5534 3.48305 33.0351 6.96492C36.517 10.4467 38.4345 15.076 38.4345 20C38.4345 24.924 36.517 29.5534 33.0351 33.0351Z" fill="#29323B"/>
<path d="M20.0001 3.48303C16.3169 3.48303 12.8297 4.67389 9.91565 6.92678C9.57362 7.19124 9.51073 7.6828 9.77519 8.02483C10.0396 8.36694 10.5313 8.42967 10.8732 8.1653C13.5106 6.12639 16.6667 5.04858 20.0001 5.04858C28.2443 5.04858 34.9515 11.7557 34.9515 20C34.9515 28.2443 28.2443 34.9514 20.0001 34.9514C11.7559 34.9514 5.0487 28.2442 5.0487 20C5.0487 17.6526 5.57964 15.4044 6.62683 13.3177C6.82073 12.9313 6.66464 12.4608 6.27831 12.267C5.8919 12.073 5.42151 12.2292 5.22761 12.6155C4.07011 14.9221 3.48315 17.4066 3.48315 20C3.48315 29.1074 10.8926 36.5169 20.0001 36.5169C29.1076 36.5169 36.5171 29.1074 36.5171 20C36.5171 10.8926 29.1075 3.48303 20.0001 3.48303Z" fill="#29323B"/>
<path d="M19.1726 25.5539L20.7053 17.062L23.2104 25.5529C23.2746 25.7644 23.4052 25.9497 23.5828 26.0812C23.7605 26.2128 23.9757 26.2837 24.1968 26.2835L24.2022 26.2834C24.424 26.2826 24.6396 26.2101 24.8169 26.0767C24.9942 25.9434 25.1236 25.7564 25.186 25.5435L27.6052 17.0573L29.2305 25.5618C29.3117 25.9863 29.7214 26.2651 30.1463 26.1838C30.5709 26.1026 30.8494 25.6926 30.7683 25.268L28.7201 14.5513L28.7183 14.542C28.6727 14.3189 28.5546 14.1171 28.3823 13.9681C28.2101 13.8191 27.9933 13.7312 27.7659 13.7183C27.2993 13.6923 26.8714 13.9844 26.7269 14.4297C26.724 14.4386 26.7213 14.4477 26.7186 14.4566L24.1881 23.3338L21.5664 14.4478C21.5637 14.4385 21.5608 14.4293 21.5576 14.4202C21.4086 13.9763 20.9772 13.6867 20.5111 13.7195C20.2823 13.735 20.0651 13.8262 19.8939 13.9788C19.7226 14.1315 19.6072 14.3368 19.5657 14.5624L17.6321 25.2758C17.5553 25.7013 17.8379 26.1084 18.2633 26.1852C18.6886 26.262 19.0959 25.9793 19.1726 25.5539ZM10.0008 15.2821H12.2435V25.5008C12.2435 25.9331 12.594 26.2836 13.0263 26.2836C13.4586 26.2836 13.8091 25.9331 13.8091 25.5008V15.2821H16.0765C16.5087 15.2821 16.8593 14.9316 16.8593 14.4993C16.8593 14.067 16.5088 13.7165 16.0765 13.7165H10.0008C9.56856 13.7165 9.21802 14.067 9.21802 14.4993C9.21794 14.9316 9.56849 15.2821 10.0008 15.2821Z" fill="white"/>
<path d="M7.87402 10.8145C8.3055 10.8145 8.65527 10.4647 8.65527 10.0332C8.65527 9.60173 8.3055 9.25195 7.87402 9.25195C7.44255 9.25195 7.09277 9.60173 7.09277 10.0332C7.09277 10.4647 7.44255 10.8145 7.87402 10.8145Z" fill="#29323B"/>
</g>
<defs>
<clipPath id="clip0_1655_524">
<rect width="40" height="40" fill="white"/>
</clipPath>
</defs>
</svg>
