<svg width="40" height="40" viewBox="0 0 40 40" fill="none" xmlns="http://www.w3.org/2000/svg">
<path d="M32.7737 0.577393H7.22615C6.56053 0.577393 6.021 1.117 6.021 1.78286V3.35849H33.9788V1.78286C33.9788 1.117 33.4392 0.577393 32.7737 0.577393Z" fill="#0071DC"/>
<path d="M15.4159 22.0078H8.30137C8.1073 22.0078 7.92117 22.0849 7.78394 22.2221C7.6467 22.3593 7.56959 22.5454 7.56957 22.7395V37.1176H16.1477V22.7395C16.1477 22.5454 16.0706 22.3593 15.9334 22.2221C15.7961 22.0848 15.61 22.0077 15.4159 22.0077V22.0078ZM39.415 12.1487H0.584961L3.6523 7.61405C3.88453 7.27073 4.19739 6.98958 4.56348 6.79522C4.92958 6.60086 5.33774 6.49922 5.75223 6.49921H34.248C34.6624 6.49926 35.0705 6.60092 35.4366 6.79527C35.8026 6.98963 36.1154 7.27076 36.3476 7.61405L39.415 12.1487Z" fill="#0071DC"/>
<path d="M30.7802 12.1488H9.22998L10.9322 7.61417C11.194 6.91714 11.6304 6.49933 12.0977 6.49933H27.9126C28.3794 6.49933 28.8162 6.91714 29.0776 7.61417L30.7802 12.1488Z" fill="#0071DC"/>
<path d="M22.1578 12.1487H17.8523L18.1923 7.61411C18.2448 6.91708 18.3321 6.49927 18.4251 6.49927H21.5846C21.678 6.49927 21.7653 6.91708 21.8175 7.61411L22.1578 12.1487Z" fill="#0071DC"/>
<path d="M4.90161 12.1436V14.6829C4.90161 15.8746 5.86778 16.8408 7.0595 16.8408C8.25122 16.8408 9.21708 15.8746 9.21708 14.6829V12.1435L4.90161 12.1436Z" fill="#0071DC"/>
<path d="M13.5327 12.1436V14.6829C13.5327 15.8746 14.4989 16.8408 15.6905 16.8408C16.8822 16.8408 17.8482 15.8746 17.8482 14.6829V12.1435L13.5327 12.1436Z" fill="#0071DC"/>
<path d="M22.1636 12.1436V14.6829C22.1636 15.8746 23.1295 16.8408 24.3212 16.8408C25.5129 16.8408 26.479 15.8746 26.479 14.6829V12.1435L22.1636 12.1436Z" fill="#0071DC"/>
<path d="M30.7942 12.1436V14.6829C30.7942 15.8746 31.7604 16.8408 32.9521 16.8408C34.1438 16.8408 35.1097 15.8746 35.1097 14.6829V12.1435L30.7942 12.1436Z" fill="#0071DC"/>
<path d="M34.0523 32.5429H24.5137C23.8484 32.5429 23.3088 32.0037 23.3088 31.3382V30.7546C23.3088 30.6878 23.3632 30.6335 23.43 30.6335H35.1363C35.2031 30.6335 35.2574 30.6878 35.2574 30.7546V31.3382C35.2571 32.0035 34.7179 32.543 34.0523 32.543V32.5429Z" fill="#0071DC"/>
<path d="M39.4024 38.8226H38.535V26.8173C38.5363 26.7395 38.5221 26.6623 38.4932 26.5901C38.4643 26.5178 38.4213 26.4521 38.3668 26.3966C38.3122 26.3412 38.2472 26.2972 38.1755 26.2671C38.1037 26.237 38.0267 26.2216 37.9489 26.2216C37.8712 26.2216 37.7942 26.237 37.7224 26.2671C37.6507 26.2972 37.5856 26.3412 37.5311 26.3966C37.4765 26.4521 37.4336 26.5178 37.4047 26.5901C37.3758 26.6623 37.3616 26.7395 37.3628 26.8173V34.3731H34.1197C33.5576 34.3731 33.1005 34.8117 33.1005 35.3506V38.8226H31.812C31.8483 38.6889 31.8697 38.5492 31.8697 38.4042C31.871 38.3264 31.8568 38.2491 31.8279 38.1769C31.799 38.1047 31.756 38.0389 31.7015 37.9835C31.6469 37.928 31.5819 37.884 31.5102 37.854C31.4384 37.8239 31.3614 37.8084 31.2836 37.8084C31.2059 37.8084 31.1289 37.8239 31.0571 37.854C30.9854 37.884 30.9203 37.928 30.8658 37.9835C30.8112 38.0389 30.7683 38.1047 30.7394 38.1769C30.7105 38.2491 30.6963 38.3264 30.6975 38.4042C30.6975 38.6349 30.5098 38.8226 30.2791 38.8226C30.0484 38.8226 29.8608 38.6349 29.8608 38.4042V33.1283H34.0425C35.0298 33.1283 35.833 32.3251 35.833 31.3378V30.7543C35.833 30.3646 35.5159 30.0475 35.126 30.0475H31.899C31.7031 28.8522 30.9206 27.9025 29.9211 27.6339C29.8965 27.4991 29.8253 27.3772 29.7201 27.2894C29.6148 27.2016 29.482 27.1535 29.345 27.1536C29.0575 27.1536 28.8189 27.3608 28.7692 27.6339C27.7697 27.9025 26.9869 28.8522 26.7913 30.0475H23.4233C23.0333 30.0475 22.7163 30.3646 22.7163 30.7543V31.3378C22.7163 32.3251 23.5194 33.1283 24.5067 33.1283H28.6886V38.4042C28.6886 38.6349 28.5008 38.8226 28.2701 38.8226C28.0394 38.8226 27.8518 38.6349 27.8518 38.4042C27.853 38.3264 27.8388 38.2491 27.8099 38.1769C27.7811 38.1047 27.7381 38.0389 27.6835 37.9835C27.629 37.928 27.5639 37.884 27.4922 37.854C27.4205 37.8239 27.3435 37.8084 27.2657 37.8084C27.1879 37.8084 27.1109 37.8239 27.0392 37.854C26.9674 37.884 26.9024 37.928 26.8478 37.9835C26.7933 38.0389 26.7503 38.1047 26.7214 38.1769C26.6925 38.2491 26.6783 38.3264 26.6796 38.4042C26.6796 38.5492 26.7007 38.6889 26.7372 38.8226H25.5898V35.3506C25.5898 34.8117 25.1326 34.3731 24.5705 34.3731H21.3274V26.8173C21.3287 26.7395 21.3145 26.6623 21.2856 26.5901C21.2567 26.5178 21.2137 26.4521 21.1592 26.3966C21.1046 26.3412 21.0396 26.2972 20.9678 26.2671C20.8961 26.237 20.8191 26.2216 20.7413 26.2216C20.6635 26.2216 20.5865 26.237 20.5148 26.2671C20.4431 26.2972 20.378 26.3412 20.3235 26.3966C20.2689 26.4521 20.2259 26.5178 20.1971 26.5901C20.1682 26.6623 20.154 26.7395 20.1552 26.8173V38.8226H17.871V37.4765C17.871 36.9543 17.4462 36.5298 16.9244 36.5298H16.7291V28.3228C16.7291 28.1673 16.6673 28.0183 16.5574 27.9083C16.4475 27.7984 16.2984 27.7367 16.143 27.7367C15.9875 27.7367 15.8384 27.7984 15.7285 27.9083C15.6186 28.0183 15.5569 28.1673 15.5569 28.3228V36.5298H8.15298V22.7417C8.15298 22.6614 8.21829 22.5961 8.29861 22.5961H15.4113C15.4916 22.5961 15.5569 22.6614 15.5569 22.7417V25.5878C15.5569 25.7432 15.6186 25.8923 15.7285 26.0022C15.8384 26.1121 15.9875 26.1739 16.143 26.1739C16.2984 26.1739 16.4475 26.1121 16.5574 26.0022C16.6673 25.8923 16.7291 25.7432 16.7291 25.5878V22.7417C16.7291 22.0154 16.1379 21.424 15.4113 21.424H8.29861C7.57197 21.424 6.9808 22.0154 6.9808 22.7417V36.5298H6.78548C6.26361 36.5298 5.83885 36.9543 5.83885 37.4764V38.8225H4.99111V35.4858C4.9886 35.332 4.92575 35.1854 4.81611 35.0775C4.70647 34.9697 4.55883 34.9092 4.40502 34.9092C4.25122 34.9092 4.10357 34.9697 3.99393 35.0775C3.88429 35.1854 3.82144 35.332 3.81893 35.4858V38.8225H0.585887C0.430436 38.8225 0.281351 38.8843 0.17143 38.9942C0.0615088 39.1041 -0.000244141 39.2532 -0.000244141 39.4086C-0.000244141 39.5641 0.0615088 39.7132 0.17143 39.8231C0.281351 39.933 0.430436 39.9948 0.585887 39.9948H39.4024C39.4801 39.996 39.5574 39.9818 39.6296 39.9529C39.7018 39.9241 39.7676 39.8811 39.823 39.8265C39.8785 39.772 39.9225 39.7069 39.9526 39.6352C39.9826 39.5635 39.9981 39.4865 39.9981 39.4087C39.9981 39.3309 39.9826 39.2539 39.9526 39.1822C39.9225 39.1104 39.8785 39.0454 39.823 38.9908C39.7676 38.9363 39.7018 38.8933 39.6296 38.8644C39.5574 38.8355 39.4801 38.8213 39.4024 38.8226ZM29.3454 28.7292C29.98 28.7292 30.5196 29.2834 30.7055 30.0475H27.9848C28.171 29.2835 28.7102 28.7292 29.3453 28.7292H29.3454ZM23.8882 31.3378V31.2194H34.6611V31.3378C34.6611 31.679 34.3838 31.9564 34.0429 31.9564H24.5067C24.1655 31.9564 23.8882 31.6791 23.8882 31.3378ZM34.2726 35.545H37.3628V38.8226H34.2726V35.545ZM21.3274 35.545H24.4179V38.8226H21.3274V35.545ZM7.01103 38.8226V37.7017H16.6991V38.8226H7.01103Z" fill="#29323B"/>
<path d="M39.8253 11.7319L36.8223 7.29249C36.5667 6.91436 36.2312 6.59702 35.8394 6.36293C35.4476 6.12883 35.0092 5.9837 34.5551 5.9378V1.79109C34.5552 0.803592 33.7517 0 32.7642 0H7.2243C6.23641 0 5.43321 0.803514 5.43321 1.79109V5.9378C4.97908 5.98366 4.54059 6.12878 4.14875 6.36287C3.75691 6.59697 3.42132 6.91433 3.16572 7.29249L0.125645 11.7874C0.0679706 11.8606 0.0286461 11.9465 0.0109581 12.0379C0.00877062 12.0483 0.00783312 12.0587 0.00634875 12.069C0.00478625 12.0785 0.00361438 12.088 0.00267688 12.098C0.000947503 12.1174 0.000139305 12.1369 0.000255009 12.1564V14.6875C0.000255009 16.2 1.23072 17.4307 2.74322 17.4307C3.12494 17.4307 3.48837 17.3519 3.81892 17.2107V32.7377C3.82143 32.8915 3.88428 33.0381 3.99392 33.146C4.10356 33.2538 4.25121 33.3143 4.40501 33.3143C4.55882 33.3143 4.70646 33.2538 4.8161 33.146C4.92574 33.0381 4.98859 32.8915 4.9911 32.7377V16.4883C5.49431 17.0651 6.23376 17.4307 7.05774 17.4307C7.93235 17.4307 8.71211 17.0187 9.21477 16.3791C9.71734 17.0187 10.497 17.4307 11.3717 17.4307C12.2463 17.4307 13.026 17.0187 13.529 16.3791C14.0313 17.0187 14.8113 17.4307 15.686 17.4307C16.5607 17.4307 17.3403 17.0187 17.843 16.3791C18.3455 17.0187 19.1253 17.4307 20.0002 17.4307C20.8748 17.4307 21.6546 17.0187 22.1572 16.3791C22.6598 17.0187 23.4395 17.4307 24.3142 17.4307C25.1891 17.4307 25.9689 17.0187 26.4715 16.3791C26.9741 17.0187 27.7538 17.4307 28.6285 17.4307C29.5031 17.4307 30.2828 17.0187 30.7854 16.3791C31.288 17.0187 32.0681 17.4307 32.9427 17.4307C33.7599 17.4307 34.4945 17.0709 34.9974 16.5018V27.7398C34.9974 27.8952 35.0591 28.0443 35.169 28.1542C35.279 28.2642 35.4281 28.3259 35.5835 28.3259C35.739 28.3259 35.888 28.2642 35.998 28.1542C36.1079 28.0443 36.1696 27.8952 36.1696 27.7398V17.2052C36.5128 17.3542 36.8829 17.4309 37.257 17.4307C38.7693 17.4307 39.9998 16.2 39.9998 14.6875V12.1487C39.9999 12.0711 39.9845 11.9943 39.9545 11.9227C39.9245 11.8511 39.8806 11.7863 39.8253 11.7319ZM8.90914 7.09225H10.5205C10.4684 7.19739 10.4216 7.30508 10.3804 7.41491L8.82336 11.5628H5.8629L7.79407 7.89366C8.05829 7.39194 8.47516 7.09225 8.90914 7.09225ZM32.194 7.89366L34.1255 11.5628H31.175L29.618 7.41483C29.5769 7.30497 29.5301 7.1973 29.4779 7.09225H31.0789C31.5132 7.09225 31.93 7.39194 32.194 7.89366ZM28.5209 7.82647L29.9232 11.5628H26.9462L26.027 7.4917C25.9967 7.35688 25.9599 7.22358 25.9168 7.09225H27.9045C28.0686 7.09225 28.3314 7.32202 28.5209 7.82647ZM24.8839 7.74991L25.7448 11.5628H22.6945L22.3958 7.57686C22.3836 7.41702 22.3713 7.25249 22.353 7.09225H24.6415C24.6998 7.17709 24.7997 7.37764 24.8839 7.74991ZM21.2269 7.66444L21.5193 11.5628H18.4791L18.7715 7.66444C18.791 7.40694 18.8127 7.22225 18.8322 7.09225H21.1665C21.1861 7.22225 21.2077 7.40694 21.2269 7.66444ZM17.6027 7.57694L17.3039 11.5628H14.2537L15.115 7.74991C15.1989 7.37764 15.2987 7.17709 15.3569 7.09225H17.6455C17.6275 7.25249 17.615 7.41702 17.6027 7.57694ZM13.9717 7.49178L13.0522 11.5628H10.0752L11.4778 7.82686C11.6673 7.32209 11.9301 7.09225 12.0942 7.09225H14.0819C14.0387 7.22356 14.0019 7.35689 13.9717 7.49178ZM35.8518 7.94889L38.296 11.5628H35.4499L33.231 7.34764C33.1847 7.26011 33.1342 7.17486 33.0797 7.09217H34.2378C34.5564 7.09198 34.8702 7.16999 35.1516 7.31935C35.433 7.4687 35.6735 7.68485 35.8519 7.94881L35.8518 7.94889ZM7.2243 1.17219H32.7641C33.1055 1.17219 33.383 1.44992 33.383 1.79109V2.78046H29.901C29.7456 2.78046 29.5965 2.8422 29.4867 2.95208C29.3768 3.06196 29.315 3.211 29.315 3.3664C29.315 3.5218 29.3768 3.67083 29.4867 3.78072C29.5965 3.8906 29.7456 3.95234 29.901 3.95234H33.383V5.9203H6.60509V3.95234H26.9957C27.1511 3.95234 27.3001 3.8906 27.41 3.78072C27.5199 3.67083 27.5816 3.5218 27.5816 3.3664C27.5816 3.28943 27.5665 3.2132 27.5371 3.14208C27.5077 3.07095 27.4645 3.00632 27.4101 2.95188C27.3557 2.89744 27.2911 2.85425 27.22 2.82478C27.1489 2.79532 27.0726 2.78015 26.9957 2.78015H6.60509V1.79109C6.60509 1.44961 6.88282 1.17219 7.2243 1.17219ZM4.1365 7.94889C4.31481 7.68492 4.55521 7.46876 4.83658 7.3194C5.11795 7.17004 5.43169 7.09204 5.75024 7.09225H6.90844C6.85402 7.175 6.8035 7.26025 6.75704 7.34772L4.53814 11.5628H1.69205L4.1365 7.94889ZM1.17205 14.6875V12.7401H4.31447V14.6875C4.31447 15.5539 3.60947 16.2588 2.74306 16.2588C1.87697 16.2588 1.17205 15.5539 1.17205 14.6875ZM7.05735 16.2586C6.19095 16.2586 5.48626 15.5539 5.48626 14.6875V12.7401H8.62868V14.6875C8.62836 15.5539 7.92375 16.2586 7.05735 16.2586ZM11.3716 16.2586C10.5052 16.2586 9.80055 15.5539 9.80055 14.6875V12.7401H12.9427V14.6875C12.9427 15.5539 12.2377 16.2586 11.3716 16.2586H11.3716ZM15.6858 16.2586C14.8194 16.2586 14.1148 15.5539 14.1148 14.6875V12.7401H17.2569V14.6875C17.2569 15.5539 16.5519 16.2586 15.6858 16.2586ZM19.9998 16.2586C19.1334 16.2586 18.4287 15.5539 18.4287 14.6875V12.7401H21.5711V14.6875C21.5711 15.5539 20.8662 16.2586 19.9998 16.2586ZM24.3141 16.2586C23.4477 16.2586 22.743 15.5539 22.743 14.6875V12.7401H25.8854V14.6875C25.8854 15.5539 25.1804 16.2586 24.3141 16.2586ZM28.6283 16.2586C27.7619 16.2586 27.0572 15.5539 27.0572 14.6875V12.7401H30.1994V14.6875C30.1994 15.5539 29.4944 16.2586 28.6283 16.2586ZM32.9424 16.2586C32.0762 16.2586 31.3713 15.5539 31.3713 14.6875V12.7401H34.5136V14.6875C34.5136 15.5539 33.8087 16.2586 32.9423 16.2586H32.9424ZM37.2566 16.2586C36.3905 16.2586 35.6855 15.5539 35.6855 14.6875V12.7401H38.8279V14.6875C38.8279 15.5539 38.123 16.2586 37.2566 16.2586Z" fill="#29323B"/>
<path d="M14.5372 29.7308C14.5347 29.8846 14.4718 30.0313 14.3622 30.1391C14.2525 30.247 14.1049 30.3074 13.9511 30.3074C13.7973 30.3074 13.6496 30.247 13.54 30.1391C13.4304 30.0313 13.3675 29.8846 13.365 29.7308C13.365 29.5754 13.4267 29.4264 13.5366 29.3165C13.6465 29.2066 13.7955 29.1449 13.9509 29.1449C14.0279 29.1449 14.1041 29.16 14.1753 29.1894C14.2464 29.2188 14.311 29.262 14.3654 29.3164C14.4199 29.3708 14.4631 29.4354 14.4925 29.5065C14.522 29.5776 14.5372 29.6539 14.5372 29.7308Z" fill="#29323B"/>
</svg>
