<svg width="40" height="40" viewBox="0 0 40 40" fill="none" xmlns="http://www.w3.org/2000/svg">
<g clip-path="url(#clip0_1655_236)">
<path d="M20 23.4375C24.8541 23.4375 28.7891 19.5025 28.7891 14.6484C28.7891 9.79437 24.8541 5.85938 20 5.85938C15.1459 5.85938 11.2109 9.79437 11.2109 14.6484C11.2109 19.5025 15.1459 23.4375 20 23.4375Z" fill="#0071DC"/>
<path fill-rule="evenodd" clip-rule="evenodd" d="M2.34375 33.5546H0.585938V38.2422C0.585938 38.8867 1.11344 39.4141 1.75781 39.4141H3.51562C2.87125 39.4141 2.34375 38.8867 2.34375 38.2422V33.5546Z" fill="#0071DC"/>
<path fill-rule="evenodd" clip-rule="evenodd" d="M25.5664 33.5546H14.4336V38.2422C14.4336 38.8867 14.9611 39.4141 15.6055 39.4141H24.3945C25.0389 39.4141 25.5664 38.8866 25.5664 38.2422V33.5546Z" fill="#0071DC"/>
<path fill-rule="evenodd" clip-rule="evenodd" d="M30.0391 33.5546H28.2812V38.2422C28.2812 38.8867 28.8087 39.4141 29.4531 39.4141H31.2109C30.5666 39.4141 30.0391 38.8867 30.0391 38.2422V33.5546Z" fill="#0071DC"/>
<path d="M14.2279 8.0207C15.772 6.67469 17.7907 5.85938 20 5.85938C24.8541 5.85938 28.7891 9.79438 28.7891 14.6484C28.7891 19.5025 24.8541 23.4375 20 23.4375C15.1459 23.4375 11.2109 19.5025 11.2109 14.6484C11.2109 12.4391 12.0263 10.4205 13.3722 8.87633M18.565 26.8693C17.3819 26.7319 16.2252 26.4223 15.1316 25.9503L13.9836 27.4129L11.9538 26.241L12.6473 24.5135C11.6934 23.8012 10.8472 22.9551 10.135 22.0012L8.40742 22.6946L7.23555 20.6648L8.69781 19.517C8.22588 18.4234 7.91639 17.2666 7.77914 16.0834L5.9375 15.8203V13.4766L7.77914 13.2134C7.91649 12.0303 8.22609 10.8736 8.69812 9.78008L7.23555 8.63203L8.40742 6.60227L10.1349 7.29563C10.8472 6.34172 11.6933 5.49558 12.6473 4.78336L11.9538 3.05586L13.9836 1.88398L15.1314 3.34625C16.225 2.87432 17.3818 2.56482 18.565 2.42758L18.8281 0.585938H21.1719L21.435 2.42758C22.6181 2.56493 23.7748 2.87453 24.8684 3.34656L26.0164 1.88406L28.0462 3.05594L27.3527 4.78344C28.3066 5.4957 29.1528 6.34184 29.8651 7.2957L31.5926 6.60234L32.7645 8.63211L31.3022 9.77992C31.7741 10.8736 32.0836 12.0303 32.2209 13.2135L34.0625 13.4766V15.8203L32.2209 16.0834C32.0835 17.2666 31.7739 18.4233 31.3019 19.5168L32.7644 20.6648L31.5925 22.6946L29.865 22.0012C29.1527 22.955 28.3066 23.8012 27.3527 24.5135L28.0462 26.241L26.0164 27.4129L24.8686 25.9506C23.775 26.4226 22.6182 26.7321 21.435 26.8693L21.1719 28.711H18.8281L18.565 26.8693Z" stroke="#29323B" stroke-width="1.0254" stroke-miterlimit="22.9256"/>
<path d="M16.2059 12.5683H14.4529V16.7286H16.2059M16.0766 14.6485H14.6919" stroke="white" stroke-width="1.0254" stroke-miterlimit="10" stroke-linecap="square"/>
<path d="M19.2598 15.0277L20.5978 16.6177" stroke="white" stroke-width="1.0254" stroke-miterlimit="10" stroke-linecap="square" stroke-linejoin="round"/>
<path d="M18.6562 14.7555L19.6181 14.7507C20.2426 14.7507 20.7711 14.2621 20.7711 13.6595C20.7711 13.0568 20.2426 12.5683 19.6181 12.5683H18.5017L18.501 16.7287M23.17 16.7286V12.5682H24.3391C24.9935 12.5682 25.5471 13.0987 25.5471 13.7531C25.5471 14.4075 24.9935 14.9379 24.3391 14.9379L23.4169 14.9432" stroke="white" stroke-width="1.0254" stroke-miterlimit="10" stroke-linecap="square"/>
<path d="M21.8579 9.1853V8.01343M24.2016 10.3573V9.18538M6.15234 33.5546V31.0547H33.8476V33.5546M33.2616 39.4141H29.453C28.8087 39.4141 28.2812 38.8867 28.2812 38.2422V33.5546H39.414V38.2422C39.414 38.8866 38.8865 39.4141 38.2421 39.4141H34.4335M20 31.1328V33.5546M20.5859 36.4843H21.7578M18.2422 36.4843H19.4141M5.56641 36.4843H6.73828M33.2617 36.4843H34.4336M35.6054 36.4843H36.7773M30.918 36.4843H32.0898M0.585938 33.5546H11.7188V38.2422C11.7188 38.8866 11.1913 39.4141 10.5469 39.4141H1.75781C1.11344 39.4141 0.585938 38.8867 0.585938 38.2422V33.5546ZM14.4336 33.5546H25.5664V38.2422C25.5664 38.8866 25.0389 39.4141 24.3945 39.4141H15.6054C14.961 39.4141 14.4335 38.8867 14.4335 38.2422V33.5546H14.4336Z" stroke="#29323B" stroke-width="1.0254" stroke-miterlimit="22.9256"/>
</g>
<defs>
<clipPath id="clip0_1655_236">
<rect width="40" height="40" fill="white"/>
</clipPath>
</defs>
</svg>
