<svg width="40" height="40" viewBox="0 0 40 40" fill="none" xmlns="http://www.w3.org/2000/svg">
<g clip-path="url(#clip0_1655_787)">
<path d="M31 10V29.8892C31.0957 29.7286 31.211 29.6125 31.3362 29.5507C31.4614 29.4889 31.5928 29.4832 31.7195 29.5341C32.1605 29.7108 32.4399 30.5103 32.3436 31.3198C32.2615 32.0091 31.9291 32.5003 31.5448 32.5C32.2969 32.5 32.9067 33.6193 32.9067 35C32.9067 33.3431 33.6384 32 34.541 32C35.4436 32 36.1753 33.3431 36.1753 35C36.1753 33.6193 36.785 32.5 37.5372 32.5C37.0858 32.5003 36.7198 31.8289 36.7196 31.0004C36.7194 30.2949 36.9871 29.6846 37.3625 29.5341C37.4892 29.4832 37.6206 29.4889 37.7458 29.5508C37.871 29.6126 37.9863 29.7287 38.082 29.8893V10H31Z" fill="#0071DC"/>
<path d="M35.918 10V29.8892C36.0137 29.7286 36.129 29.6125 36.2542 29.5507C36.3794 29.4889 36.5108 29.4832 36.6375 29.5341C37.0785 29.7108 37.3579 30.5103 37.2616 31.3198C37.1796 32.0091 36.8471 32.5003 36.4628 32.5C37.215 32.5 37.8247 33.6193 37.8247 35C37.8247 33.3431 38.5564 32 39.459 32C40.3616 32 41.0933 33.3431 41.0933 35C41.0933 33.6193 41.7031 32.5 42.4552 32.5C42.0039 32.5003 41.6378 31.8289 41.6376 31.0004C41.6375 30.2949 41.9051 29.6846 42.2805 29.5341C42.4072 29.4832 42.5386 29.4889 42.6638 29.5508C42.7891 29.6126 42.9043 29.7287 43 29.8893V10H35.918Z" fill="#0071DC"/>
<path d="M-3 11V30.8892C-2.90433 30.7286 -2.78905 30.6125 -2.66385 30.5507C-2.53865 30.4889 -2.40719 30.4832 -2.28053 30.5341C-1.83954 30.7108 -1.56015 31.5103 -1.65644 32.3198C-1.73846 33.0091 -2.07093 33.5003 -2.45523 33.5C-1.70308 33.5 -1.09332 34.6193 -1.09332 36C-1.09332 34.3431 -0.361627 33 0.540984 33C1.44359 33 2.17528 34.3431 2.17528 36C2.17528 34.6193 2.78505 33.5 3.5372 33.5C3.08583 33.5003 2.71978 32.8289 2.71961 32.0004C2.71944 31.2949 2.98705 30.6846 3.3625 30.5341C3.48915 30.4832 3.62061 30.4889 3.74582 30.5508C3.87102 30.6126 3.9863 30.7287 4.08197 30.8893V11H-3Z" fill="#0071DC"/>
<path d="M1.91803 11V30.8892C2.0137 30.7286 2.12898 30.6125 2.25419 30.5507C2.37939 30.4889 2.51085 30.4832 2.6375 30.5341C3.07849 30.7108 3.35789 31.5103 3.2616 32.3198C3.17958 33.0091 2.8471 33.5003 2.4628 33.5C3.21495 33.5 3.82472 34.6193 3.82472 36C3.82472 34.3431 4.55641 33 5.45902 33C6.36163 33 7.09332 34.3431 7.09332 36C7.09332 34.6193 7.70308 33.5 8.45523 33.5C8.00386 33.5003 7.63781 32.8289 7.63764 32.0004C7.63747 31.2949 7.90509 30.6846 8.28053 30.5341C8.40719 30.4832 8.53865 30.4889 8.66385 30.5508C8.78905 30.6126 8.90434 30.7287 9 30.8893V11H1.91803Z" fill="#0071DC"/>
<path d="M14 13.3334H15.3333V14.6667H14V13.3334ZM14 16H15.3333V17.3334H14V16ZM14 18.6667H15.3333V20H14V18.6667ZM14 21.3334H15.3333V22.6667H14V21.3334ZM16.6667 13.3334H18V14.6667H16.6667V13.3334ZM16.6667 16H18V17.3334H16.6667V16ZM16.6667 18.6667H18V20H16.6667V18.6667ZM16.6667 21.3334H18V22.6667H16.6667V21.3334ZM19.3333 13.3334H20.6667V14.6667H19.3333V13.3334ZM19.3333 16H20.6667V17.3334H19.3333V16ZM19.3333 18.6667H20.6667V20H19.3333V18.6667ZM19.3333 21.3334H20.6667V22.6667H19.3333V21.3334ZM22 13.3334H23.3333V14.6667H22V13.3334ZM16.6667 10.6667H18V12H16.6667V10.6667ZM19.3333 10.6667H20.6667V12H19.3333V10.6667ZM22 10.6667H23.3333V12H22V10.6667ZM22 16H23.3333V17.3334H22V16ZM22 18.6667H23.3333V20H22V18.6667ZM22 21.3334H23.3333V22.6667H22V21.3334ZM24.6667 13.3334H26V14.6667H24.6667V13.3334ZM24.6667 16H26V17.3334H24.6667V16ZM24.6667 18.6667H26V20H24.6667V18.6667ZM24.6667 21.3334H26V22.6667H24.6667V21.3334Z" fill="#29323B"/>
<path d="M39.3333 10H29.3333V0.666667C29.3334 0.579167 29.3162 0.492513 29.2828 0.411653C29.2493 0.330793 29.2003 0.257312 29.1385 0.195405C29.0766 0.133499 29.0032 0.0843787 28.9224 0.0508509C28.8416 0.0173231 28.7549 4.38907e-05 28.6674 1.30354e-07H11.3333C11.2458 -5.46024e-05 11.1592 0.017127 11.0783 0.0505639C10.9975 0.0840007 10.924 0.133038 10.8621 0.194875C10.8002 0.256712 10.751 0.330138 10.7175 0.41096C10.684 0.491782 10.6667 0.578417 10.6667 0.665917V10H0.666667C0.579167 9.99995 0.492513 10.0171 0.411653 10.0506C0.330793 10.084 0.257312 10.133 0.195405 10.1949C0.133499 10.2567 0.0843787 10.3301 0.0508509 10.411C0.0173231 10.4918 4.38907e-05 10.5784 1.30354e-07 10.6659V34.6667C-5.46024e-05 34.7542 0.017127 34.8408 0.0505639 34.9217C0.0840007 35.0025 0.133038 35.076 0.194875 35.1379C0.256712 35.1998 0.330138 35.249 0.41096 35.2825C0.491782 35.316 0.578417 35.3333 0.665917 35.3333H2.06025C2.02158 35.5535 2.00142 35.7765 2 36V39.3333C1.99995 39.4208 2.01713 39.5075 2.05056 39.5883C2.084 39.6692 2.13304 39.7427 2.19488 39.8046C2.25671 39.8665 2.33014 39.9156 2.41096 39.9492C2.49178 39.9827 2.57842 40 2.66592 40H37.3333C37.4208 40.0001 37.5075 39.9829 37.5883 39.9494C37.6692 39.916 37.7427 39.867 37.8046 39.8051C37.8665 39.7433 37.9156 39.6699 37.9492 39.589C37.9827 39.5082 38 39.4216 38 39.3341V36C37.9986 35.7765 37.9785 35.5535 37.9398 35.3333H39.3333C39.4208 35.3334 39.5075 35.3162 39.5883 35.2828C39.6692 35.2493 39.7427 35.2003 39.8046 35.1385C39.8665 35.0766 39.9156 35.0032 39.9492 34.9224C39.9827 34.8416 40 34.7549 40 34.6674V10.6667C40.0001 10.5792 39.9829 10.4925 39.9494 10.4117C39.916 10.3308 39.867 10.2573 39.8051 10.1954C39.7433 10.1335 39.6699 10.0844 39.589 10.0509C39.5082 10.0173 39.4216 10 39.3341 10H39.3333ZM28.6667 28.6667C28.6667 29.4031 28.0698 30 27.3333 30C26.5969 30 26 29.4031 26 28.6667C26 27.9303 26.5969 27.3333 27.3333 27.3333C28.0693 27.3343 28.6658 27.9307 28.6667 28.6667ZM12.6667 27.3333C13.4031 27.3333 14 27.9303 14 28.6667C14 29.4031 13.4031 30 12.6667 30C11.9303 30 11.3333 29.4031 11.3333 28.6667C11.3343 27.9307 11.9307 27.3343 12.6667 27.3333ZM8.66667 38.6667H3.33333V36C3.33333 34.5273 4.52725 33.3333 6 33.3333C7.47275 33.3333 8.66667 34.5273 8.66667 36V38.6667ZM4.66667 30.6667C4.66667 29.9303 5.26358 29.3333 6 29.3333C6.73642 29.3333 7.33333 29.9303 7.33333 30.6667C7.33333 31.4031 6.73642 32 6 32C5.264 31.9991 4.66758 31.4027 4.66667 30.6667ZM8.76767 33.1188C8.51627 32.8763 8.23434 32.6676 7.929 32.498C8.94583 31.4327 8.90658 29.7447 7.84125 28.7278C6.77592 27.7109 5.08792 27.7502 4.071 28.8155C3.08742 29.8459 3.08742 31.4675 4.071 32.4979C3.43467 32.8511 2.90597 33.3702 2.54117 33.9999H1.33333V11.3333H10.6667V26.9213C9.75117 27.9486 9.78208 29.5079 10.7377 30.498C10.2433 30.7715 9.81218 31.1463 9.47269 31.5979C9.1332 32.0496 8.89295 32.5678 8.76767 33.1188ZM15.3333 38.6667H10V34C10 32.5273 11.1939 31.3333 12.6667 31.3333C14.1394 31.3333 15.3333 32.5273 15.3333 34V38.6667ZM23.3333 38.6667H16.6667V34C16.6667 32.1591 18.1591 30.6667 20 30.6667C21.8409 30.6667 23.3333 32.1591 23.3333 34V38.6667ZM18 27.3333C18 26.2288 18.8954 25.3333 20 25.3333C21.1046 25.3333 22 26.2288 22 27.3333C22 28.4379 21.1046 29.3333 20 29.3333C18.8959 29.3322 18.0012 28.4374 18 27.3333ZM24.0602 31.7079C23.6138 30.9209 22.9496 30.2797 22.1474 29.8612C23.5555 28.6753 23.7355 26.5723 22.5496 25.1643C21.3636 23.7562 19.2607 23.5762 17.8526 24.7621C16.4445 25.948 16.2645 28.051 17.4504 29.4591C17.5728 29.6044 17.7073 29.7389 17.8526 29.8612C17.0504 30.2797 16.3862 30.9209 15.9398 31.7079C15.5893 31.2079 15.1297 30.7942 14.5957 30.498C15.6178 29.4524 15.5988 27.7762 14.5531 26.7541C14.2222 26.4307 13.8124 26.1996 13.3645 26.0839C12.9165 25.9682 12.4461 25.9719 12 26.0947V1.33333H28V26.0947C27.7827 26.0347 27.5587 26.0029 27.3333 26C25.8645 25.9961 24.6706 27.1837 24.6667 28.6526C24.6649 29.3399 24.9292 30.0013 25.4043 30.498C24.8703 30.7942 24.4107 31.2079 24.0602 31.7079ZM30 36V38.6667H24.6667V34C24.6667 32.5273 25.8606 31.3333 27.3333 31.3333C28.8061 31.3333 30 32.5273 30 34V36ZM36.6667 38.6667H31.3333V36C31.3333 34.5273 32.5273 33.3333 34 33.3333C35.4728 33.3333 36.6667 34.5273 36.6667 36V38.6667ZM32.6667 30.6667C32.6667 29.9303 33.2636 29.3333 34 29.3333C34.7364 29.3333 35.3333 29.9303 35.3333 30.6667C35.3333 31.4031 34.7364 32 34 32C33.264 31.9991 32.6676 31.4027 32.6667 30.6667ZM38.6667 34H37.4588C37.0941 33.3702 36.5654 32.8512 35.929 32.498C36.9458 31.4327 36.9066 29.7447 35.8413 28.7278C34.7759 27.7109 33.0879 27.7502 32.071 28.8155C31.0874 29.8459 31.0874 31.4675 32.071 32.4979C31.7656 32.6675 31.4837 32.8762 31.2323 33.1187C31.1071 32.5677 30.8668 32.0495 30.5273 31.5978C30.1878 31.1462 29.7568 30.7714 29.2623 30.4979C30.2179 29.5078 30.2489 27.9485 29.3334 26.9212V11.3333H38.6668L38.6667 34Z" fill="#29323B"/>
<path d="M31.3333 15.3334H32.6666V26H31.3333V15.3334ZM35.3333 15.3334H36.6666V26H35.3333V15.3334ZM3.33325 15.3334H4.66659V26H3.33325V15.3334ZM7.33325 15.3334H8.66659V26H7.33325V15.3334ZM15.9999 9.33335H23.9999C24.0874 9.33341 24.1741 9.31623 24.2549 9.28279C24.3358 9.24935 24.4093 9.20032 24.4712 9.13848C24.5331 9.07664 24.5822 9.00322 24.6157 8.92239C24.6493 8.84157 24.6665 8.75494 24.6666 8.66744V3.33335C24.6666 3.24585 24.6495 3.1592 24.616 3.07834C24.5826 2.99748 24.5335 2.924 24.4717 2.86209C24.4099 2.80019 24.3365 2.75107 24.2556 2.71754C24.1748 2.68401 24.0882 2.66673 24.0007 2.66669H15.9999C15.9124 2.66663 15.8258 2.68381 15.7449 2.71725C15.664 2.75069 15.5906 2.79972 15.5287 2.86156C15.4668 2.9234 15.4176 2.99683 15.3841 3.07765C15.3506 3.15847 15.3333 3.2451 15.3333 3.3326V8.66669C15.3332 8.75419 15.3504 8.84084 15.3838 8.9217C15.4173 9.00256 15.4663 9.07604 15.5281 9.13795C15.59 9.19986 15.6634 9.24898 15.7442 9.2825C15.825 9.31603 15.9124 9.33331 15.9999 9.33335ZM16.6666 4.00002H23.3333V8.00002H16.6666V4.00002Z" fill="#29323B"/>
</g>
<defs>
<clipPath id="clip0_1655_787">
<rect width="40" height="40" fill="white"/>
</clipPath>
</defs>
</svg>
