<svg width="40" height="40" viewBox="0 0 40 40" fill="none" xmlns="http://www.w3.org/2000/svg">
<path d="M17.9606 18.1725H13.863C13.718 18.1725 13.5789 18.1149 13.4763 18.0123C13.3738 17.9097 13.3162 17.7706 13.3162 17.6256V15.7682H18.5075V17.6256C18.5075 17.6974 18.4934 17.7685 18.4659 17.8349C18.4384 17.9012 18.3981 17.9615 18.3473 18.0123C18.2966 18.0631 18.2363 18.1034 18.1699 18.1309C18.1036 18.1583 18.0324 18.1725 17.9606 18.1725ZM18.5076 33.6878H13.3162V31.8304C13.3162 31.6854 13.3739 31.5463 13.4764 31.4437C13.579 31.3412 13.7181 31.2836 13.8631 31.2836H17.9607C18.1057 31.2836 18.2448 31.3412 18.3474 31.4437C18.45 31.5463 18.5076 31.6854 18.5076 31.8304V33.6878Z" fill="#0071DC"/>
<path d="M26.1371 18.1725H22.0396C21.8945 18.1725 21.7554 18.1149 21.6529 18.0123C21.5503 17.9097 21.4927 17.7706 21.4927 17.6256V15.7682H26.684V17.6256C26.684 17.7706 26.6264 17.9097 26.5238 18.0123C26.4213 18.1149 26.2822 18.1725 26.1371 18.1725ZM26.684 33.6878H21.4927V31.8304C21.4927 31.6854 21.5503 31.5463 21.6529 31.4437C21.7554 31.3412 21.8945 31.2836 22.0396 31.2836H26.1371C26.2822 31.2836 26.4213 31.3412 26.5238 31.4437C26.6264 31.5463 26.684 31.6854 26.684 31.8304V33.6878Z" fill="#0071DC"/>
<path d="M34.3134 18.1725H30.2158C30.0708 18.1725 29.9317 18.1149 29.8291 18.0123C29.7266 17.9097 29.6689 17.7706 29.6689 17.6256V15.7682H34.8603V17.6256C34.8603 17.7706 34.8027 17.9097 34.7001 18.0123C34.5975 18.1149 34.4584 18.1725 34.3134 18.1725ZM34.8603 33.6878H29.6689V31.8304C29.6689 31.6854 29.7266 31.5463 29.8291 31.4437C29.9317 31.3412 30.0708 31.2836 30.2158 31.2836H34.3134C34.4584 31.2836 34.5975 31.3412 34.7001 31.4437C34.8027 31.5463 34.8603 31.6854 34.8603 31.8304V33.6878Z" fill="#0071DC"/>
<path d="M9.7841 18.1725H5.68652C5.54148 18.1725 5.40238 18.1149 5.29982 18.0123C5.19727 17.9097 5.13965 17.7706 5.13965 17.6256V15.7682H10.331V17.6256C10.331 17.7706 10.2734 17.9097 10.1708 18.0123C10.0682 18.1149 9.92914 18.1725 9.7841 18.1725ZM10.3311 33.6878H5.13965V31.8304C5.13965 31.6854 5.19727 31.5463 5.29982 31.4437C5.40238 31.3412 5.54148 31.2836 5.68652 31.2836H9.7841C9.92914 31.2836 10.0682 31.3412 10.1708 31.4437C10.2734 31.5463 10.331 31.6854 10.331 31.8304V33.6878H10.3311Z" fill="#0071DC"/>
<path d="M39.1324 38.3397H0.867852C0.793342 38.3397 0.721885 38.3101 0.669199 38.2574C0.616513 38.2047 0.586914 38.1332 0.586914 38.0587V36.8313C0.586914 36.3797 0.95293 36.0137 1.40449 36.0137H38.5957C39.0472 36.0137 39.4132 36.3797 39.4132 36.8313V38.0587C39.4133 38.0956 39.406 38.1322 39.3919 38.1662C39.3778 38.2003 39.3571 38.2313 39.331 38.2574C39.3049 38.2835 39.274 38.3042 39.2399 38.3183C39.2058 38.3324 39.1693 38.3397 39.1324 38.3397Z" fill="#0071DC"/>
<path d="M20.0169 4.05088L4.14315 11.7463C4.09998 11.7672 4.06382 11.7986 4.03859 11.8372C4.01336 11.8757 4.00001 11.9199 4 11.965V12.753C4 12.8185 4.02816 12.8813 4.07828 12.9277C4.1284 12.974 4.19638 13 4.26726 13H35.7327C35.8036 13 35.8716 12.974 35.9217 12.9277C35.9718 12.8813 36 12.8185 36 12.753V11.9629C36 11.9184 35.987 11.8747 35.9623 11.8364C35.9376 11.7982 35.9023 11.7668 35.8599 11.7456L20.469 4.0535C20.3996 4.01884 20.3221 4.00047 20.2433 4.00001C20.1645 3.99955 20.0867 4.01702 20.0169 4.05088Z" fill="#0071DC"/>
<path d="M38.5955 35.4268H38.5244V34.5054C38.5244 33.731 37.8944 33.101 37.1199 33.101H35.4471V31.8304C35.4471 31.2268 34.9726 30.7332 34.3772 30.6999V18.7561C34.9726 18.7227 35.4471 18.2292 35.4471 17.6256V16.355H37.0701C37.6884 16.355 38.1916 15.8519 38.1916 15.2335V14.036H39.0446C39.5466 14.036 39.955 13.6275 39.955 13.1257V12.0907C39.9551 11.9265 39.9108 11.7654 39.8267 11.6245C39.7427 11.4835 39.6221 11.3679 39.4777 11.2899L26.0402 4.02317C25.9725 3.98645 25.8981 3.96345 25.8215 3.95549C25.7448 3.94753 25.6673 3.95476 25.5934 3.97678C25.5196 3.99879 25.4508 4.03516 25.391 4.08379C25.3312 4.13242 25.2815 4.19237 25.2449 4.2602C25.2083 4.32798 25.1853 4.40232 25.1774 4.47896C25.1695 4.55561 25.1767 4.63307 25.1987 4.70692C25.2207 4.78076 25.2571 4.84955 25.3057 4.90935C25.3543 4.96915 25.4142 5.01879 25.482 5.05544L38.7813 12.2475V12.8623H1.21867V12.2526L20.2884 2.24684L23.0638 3.74778C23.1315 3.78447 23.2059 3.80745 23.2825 3.81539C23.3592 3.82333 23.4367 3.81609 23.5105 3.79408C23.5844 3.77207 23.6532 3.73571 23.713 3.6871C23.7728 3.63848 23.8224 3.57856 23.8591 3.51075C23.8957 3.44297 23.9187 3.36864 23.9266 3.29199C23.9345 3.21534 23.9273 3.13788 23.9053 3.06404C23.8833 2.99019 23.8469 2.9214 23.7983 2.8616C23.7497 2.8018 23.6898 2.75216 23.622 2.71551L20.8466 1.2145C20.6781 1.12321 20.4897 1.07483 20.2981 1.07363C20.1064 1.07243 19.9175 1.11845 19.7478 1.20762L0.532578 11.2872C0.385323 11.3641 0.261993 11.48 0.176021 11.6221C0.0900478 11.7643 0.044729 11.9273 0.045 12.0934V13.1256C0.045 13.6275 0.453438 14.0359 0.955391 14.0359H1.80844V15.2335C1.80844 15.8518 2.31148 16.355 2.92992 16.355H4.55289V17.6256C4.55289 18.2292 5.02742 18.7227 5.62281 18.7561V26.5315C5.62281 26.6871 5.68464 26.8363 5.79468 26.9464C5.90473 27.0564 6.05398 27.1182 6.20961 27.1182C6.36524 27.1182 6.51449 27.0564 6.62454 26.9464C6.73458 26.8363 6.79641 26.6871 6.79641 26.5315V18.7593H8.67422V30.6967H6.79648V29.2895C6.79648 28.9654 6.53375 28.7027 6.20969 28.7027C5.88563 28.7027 5.62289 28.9654 5.62289 29.2895V30.6999C5.0275 30.7332 4.55297 31.2268 4.55297 31.8304V33.101H2.88008C2.1057 33.101 1.47563 33.731 1.47563 34.5054V35.4268H1.40445C0.63 35.4268 0 36.0568 0 36.8313V38.0587C0 38.5372 0.389297 38.9265 0.867734 38.9265H39.1323C39.6107 38.9265 40 38.5372 40 38.0587V36.8313C40 36.0568 39.37 35.4268 38.5955 35.4268ZM2.98211 15.1814V14.036H37.0179V15.1814H2.98211ZM34.2734 31.8703V33.1009H30.2558V31.8703H34.2734ZM31.3257 30.6967V18.7593H33.2035V30.6966L31.3257 30.6967ZM34.2734 17.5857H30.2558V16.355H34.2734V17.5857ZM26.2008 30.6999V18.7561C26.7962 18.7227 27.2707 18.2292 27.2707 17.6256V16.355H29.0821V17.6256C29.0821 18.2292 29.5566 18.7227 30.152 18.7561V30.6999C29.5566 30.7332 29.0821 31.2268 29.0821 31.8304V33.101H27.2707V31.8304C27.2707 31.2268 26.7962 30.7332 26.2008 30.6999ZM26.097 31.8703V33.1009H22.0794V31.8703H26.097ZM23.1493 30.6967V18.7593H25.0271V30.6966L23.1493 30.6967ZM26.097 17.5857H22.0794V16.355H26.097V17.5857ZM18.0244 30.6999V18.7561C18.6198 18.7227 19.0943 18.2292 19.0943 17.6256V16.355H20.9057V17.6256C20.9057 18.2292 21.3802 18.7227 21.9756 18.7561V30.6999C21.3802 30.7332 20.9057 31.2268 20.9057 31.8304V33.101H19.0943V31.8304C19.0943 31.2268 18.6198 30.7332 18.0244 30.6999ZM17.9206 31.8703V33.1009H13.903V31.8703H17.9206ZM14.9729 30.6967V18.7593H16.8507V30.6966L14.9729 30.6967ZM17.9206 17.5857H13.903V16.355H17.9206V17.5857ZM9.84797 30.6999V18.7561C10.4434 18.7227 10.9179 18.2292 10.9179 17.6256V16.355H12.7293V17.6256C12.7293 18.2292 13.2038 18.7227 13.7992 18.7561V30.6999C13.2038 30.7332 12.7293 31.2268 12.7293 31.8304V33.101H10.9179V31.8304C10.9179 31.2268 10.4434 30.7332 9.84797 30.6999ZM5.72656 17.5857V16.355H9.74422V17.5857H5.72656ZM5.72656 31.8703H9.74422V33.1009H5.72656V31.8703ZM2.88008 34.2746H37.1199C37.1811 34.2746 37.2398 34.299 37.283 34.3422C37.3263 34.3855 37.3506 34.4442 37.3507 34.5054V35.4268H2.6493V34.5054C2.64938 34.4442 2.67372 34.3855 2.71698 34.3423C2.76024 34.299 2.8189 34.2747 2.88008 34.2746ZM38.8263 37.7529H1.17367V36.8313C1.17375 36.7701 1.1981 36.7115 1.24136 36.6682C1.28462 36.6249 1.34327 36.6006 1.40445 36.6005H38.5955C38.6567 36.6006 38.7154 36.6249 38.7587 36.6682C38.8019 36.7114 38.8263 36.7701 38.8263 36.8313V37.7529Z" fill="#29323B"/>
</svg>
